<mxfile host="app.diagrams.net" modified="2024-05-12T13:00:06.978Z" agent="Mozilla/5.0 (Windows NT 10.0; Win64; x64) AppleWebKit/537.36 (KHTML, like Gecko) Chrome/124.0.0.0 Safari/537.36" etag="FeVHQvsPJUO3-ugqXeOW" version="24.3.1" type="github" pages="12">
  <diagram name="第 1 页" id="E07JExMe8J2s8GEo1SoB">
    <mxGraphModel dx="1434" dy="738" grid="1" gridSize="10" guides="1" tooltips="1" connect="1" arrows="1" fold="1" page="0" pageScale="1" pageWidth="827" pageHeight="1169" math="0" shadow="0">
      <root>
        <mxCell id="0" />
        <mxCell id="1" parent="0" />
        <mxCell id="A4pthZk7pS7JeVkGoOn--2" value="" style="ellipse;html=1;shape=endState;fillColor=#000000;strokeColor=#ff0000;strokeWidth=2;fontSize=13;" parent="1" vertex="1">
          <mxGeometry x="525" y="890" width="30" height="30" as="geometry" />
        </mxCell>
        <mxCell id="A4pthZk7pS7JeVkGoOn--3" value="" style="ellipse;html=1;shape=startState;fillColor=#000000;strokeColor=#ff0000;strokeWidth=2;fontSize=13;" parent="1" vertex="1">
          <mxGeometry x="410" y="340" width="30" height="30" as="geometry" />
        </mxCell>
        <mxCell id="A4pthZk7pS7JeVkGoOn--4" value="" style="edgeStyle=orthogonalEdgeStyle;html=1;verticalAlign=bottom;endArrow=open;endSize=8;strokeColor=#ff0000;rounded=0;strokeWidth=2;fontSize=13;" parent="1" source="A4pthZk7pS7JeVkGoOn--3" target="A4pthZk7pS7JeVkGoOn--5" edge="1">
          <mxGeometry relative="1" as="geometry">
            <mxPoint x="585" y="330" as="targetPoint" />
          </mxGeometry>
        </mxCell>
        <mxCell id="A4pthZk7pS7JeVkGoOn--8" style="edgeStyle=orthogonalEdgeStyle;rounded=0;orthogonalLoop=1;jettySize=auto;html=1;exitX=0.5;exitY=1;exitDx=0;exitDy=0;entryX=0.5;entryY=0;entryDx=0;entryDy=0;strokeWidth=2;fontSize=13;" parent="1" source="A4pthZk7pS7JeVkGoOn--5" target="A4pthZk7pS7JeVkGoOn--6" edge="1">
          <mxGeometry relative="1" as="geometry" />
        </mxCell>
        <mxCell id="A4pthZk7pS7JeVkGoOn--5" value="点击任一用户的解禁按钮" style="rounded=1;whiteSpace=wrap;html=1;strokeWidth=2;fontSize=13;" parent="1" vertex="1">
          <mxGeometry x="350" y="400" width="150" height="50" as="geometry" />
        </mxCell>
        <mxCell id="A4pthZk7pS7JeVkGoOn--13" style="edgeStyle=orthogonalEdgeStyle;rounded=0;orthogonalLoop=1;jettySize=auto;html=1;exitX=0.5;exitY=1;exitDx=0;exitDy=0;entryX=0;entryY=0.5;entryDx=0;entryDy=0;strokeWidth=2;fontSize=13;" parent="1" source="A4pthZk7pS7JeVkGoOn--6" target="A4pthZk7pS7JeVkGoOn--2" edge="1">
          <mxGeometry relative="1" as="geometry" />
        </mxCell>
        <mxCell id="A4pthZk7pS7JeVkGoOn--14" style="edgeStyle=orthogonalEdgeStyle;rounded=0;orthogonalLoop=1;jettySize=auto;html=1;exitX=1;exitY=0.5;exitDx=0;exitDy=0;entryX=0;entryY=0.5;entryDx=0;entryDy=0;strokeWidth=2;fontSize=13;" parent="1" source="A4pthZk7pS7JeVkGoOn--6" target="A4pthZk7pS7JeVkGoOn--11" edge="1">
          <mxGeometry relative="1" as="geometry" />
        </mxCell>
        <mxCell id="A4pthZk7pS7JeVkGoOn--6" value="" style="rhombus;whiteSpace=wrap;html=1;strokeWidth=2;fontSize=13;" parent="1" vertex="1">
          <mxGeometry x="385" y="480" width="80" height="40" as="geometry" />
        </mxCell>
        <mxCell id="A4pthZk7pS7JeVkGoOn--23" style="edgeStyle=orthogonalEdgeStyle;rounded=0;orthogonalLoop=1;jettySize=auto;html=1;exitX=0.5;exitY=1;exitDx=0;exitDy=0;entryX=1;entryY=0.5;entryDx=0;entryDy=0;strokeWidth=2;fontSize=13;" parent="1" source="A4pthZk7pS7JeVkGoOn--9" target="A4pthZk7pS7JeVkGoOn--2" edge="1">
          <mxGeometry relative="1" as="geometry" />
        </mxCell>
        <mxCell id="A4pthZk7pS7JeVkGoOn--9" value="提示失败信息" style="rounded=1;whiteSpace=wrap;html=1;strokeWidth=2;fontSize=13;" parent="1" vertex="1">
          <mxGeometry x="750" y="720" width="150" height="50" as="geometry" />
        </mxCell>
        <mxCell id="z_lhrSdIOaJN08XstYBw-2" style="edgeStyle=orthogonalEdgeStyle;rounded=0;orthogonalLoop=1;jettySize=auto;html=1;exitX=0.5;exitY=1;exitDx=0;exitDy=0;fontSize=13;strokeWidth=2;" parent="1" source="A4pthZk7pS7JeVkGoOn--10" target="z_lhrSdIOaJN08XstYBw-1" edge="1">
          <mxGeometry relative="1" as="geometry" />
        </mxCell>
        <mxCell id="A4pthZk7pS7JeVkGoOn--10" value="提示解禁成功" style="rounded=1;whiteSpace=wrap;html=1;strokeWidth=2;fontSize=13;" parent="1" vertex="1">
          <mxGeometry x="465" y="720" width="150" height="50" as="geometry" />
        </mxCell>
        <mxCell id="A4pthZk7pS7JeVkGoOn--18" style="edgeStyle=orthogonalEdgeStyle;rounded=0;orthogonalLoop=1;jettySize=auto;html=1;exitX=0.5;exitY=1;exitDx=0;exitDy=0;entryX=0.5;entryY=0;entryDx=0;entryDy=0;strokeWidth=2;fontSize=13;" parent="1" source="A4pthZk7pS7JeVkGoOn--11" target="A4pthZk7pS7JeVkGoOn--17" edge="1">
          <mxGeometry relative="1" as="geometry" />
        </mxCell>
        <mxCell id="A4pthZk7pS7JeVkGoOn--11" value="发送解禁用户请求" style="rounded=1;whiteSpace=wrap;html=1;strokeWidth=2;fontSize=13;" parent="1" vertex="1">
          <mxGeometry x="600" y="475" width="150" height="50" as="geometry" />
        </mxCell>
        <mxCell id="A4pthZk7pS7JeVkGoOn--20" style="edgeStyle=orthogonalEdgeStyle;rounded=0;orthogonalLoop=1;jettySize=auto;html=1;exitX=0;exitY=0.5;exitDx=0;exitDy=0;entryX=0.5;entryY=0;entryDx=0;entryDy=0;strokeWidth=2;fontSize=13;" parent="1" source="A4pthZk7pS7JeVkGoOn--15" target="A4pthZk7pS7JeVkGoOn--10" edge="1">
          <mxGeometry relative="1" as="geometry" />
        </mxCell>
        <mxCell id="A4pthZk7pS7JeVkGoOn--21" style="edgeStyle=orthogonalEdgeStyle;rounded=0;orthogonalLoop=1;jettySize=auto;html=1;exitX=1;exitY=0.5;exitDx=0;exitDy=0;strokeWidth=2;fontSize=13;" parent="1" source="A4pthZk7pS7JeVkGoOn--15" target="A4pthZk7pS7JeVkGoOn--9" edge="1">
          <mxGeometry relative="1" as="geometry" />
        </mxCell>
        <mxCell id="A4pthZk7pS7JeVkGoOn--15" value="" style="rhombus;whiteSpace=wrap;html=1;strokeWidth=2;fontSize=13;" parent="1" vertex="1">
          <mxGeometry x="635" y="650" width="80" height="40" as="geometry" />
        </mxCell>
        <mxCell id="A4pthZk7pS7JeVkGoOn--19" style="edgeStyle=orthogonalEdgeStyle;rounded=0;orthogonalLoop=1;jettySize=auto;html=1;exitX=0.5;exitY=1;exitDx=0;exitDy=0;entryX=0.5;entryY=0;entryDx=0;entryDy=0;strokeWidth=2;fontSize=13;" parent="1" source="A4pthZk7pS7JeVkGoOn--17" target="A4pthZk7pS7JeVkGoOn--15" edge="1">
          <mxGeometry relative="1" as="geometry" />
        </mxCell>
        <mxCell id="A4pthZk7pS7JeVkGoOn--17" value="等待后端响应" style="rounded=1;whiteSpace=wrap;html=1;strokeWidth=2;fontSize=13;" parent="1" vertex="1">
          <mxGeometry x="600" y="560" width="150" height="50" as="geometry" />
        </mxCell>
        <mxCell id="A4pthZk7pS7JeVkGoOn--24" value="提交" style="text;html=1;align=center;verticalAlign=middle;resizable=0;points=[];autosize=1;strokeColor=none;fillColor=none;strokeWidth=2;fontSize=13;" parent="1" vertex="1">
          <mxGeometry x="475" y="468" width="50" height="30" as="geometry" />
        </mxCell>
        <mxCell id="A4pthZk7pS7JeVkGoOn--25" value="取消" style="text;html=1;align=center;verticalAlign=middle;resizable=0;points=[];autosize=1;strokeColor=none;fillColor=none;strokeWidth=2;fontSize=13;" parent="1" vertex="1">
          <mxGeometry x="365" y="618" width="50" height="30" as="geometry" />
        </mxCell>
        <mxCell id="A4pthZk7pS7JeVkGoOn--26" value="响应失败" style="text;html=1;align=center;verticalAlign=middle;resizable=0;points=[];autosize=1;strokeColor=none;fillColor=none;strokeWidth=2;fontSize=13;" parent="1" vertex="1">
          <mxGeometry x="710" y="628" width="80" height="30" as="geometry" />
        </mxCell>
        <mxCell id="A4pthZk7pS7JeVkGoOn--27" value="&lt;span style=&quot;color: rgb(0, 0, 0); font-family: Helvetica; font-size: 13px; font-style: normal; font-variant-ligatures: normal; font-variant-caps: normal; font-weight: 400; letter-spacing: normal; orphans: 2; text-align: center; text-indent: 0px; text-transform: none; widows: 2; word-spacing: 0px; -webkit-text-stroke-width: 0px; white-space: nowrap; background-color: rgb(255, 255, 255); text-decoration-thickness: initial; text-decoration-style: initial; text-decoration-color: initial; float: none; display: inline !important;&quot;&gt;响应成功&lt;/span&gt;" style="text;whiteSpace=wrap;html=1;strokeWidth=2;fontSize=13;" parent="1" vertex="1">
          <mxGeometry x="555" y="628" width="80" height="40" as="geometry" />
        </mxCell>
        <mxCell id="z_lhrSdIOaJN08XstYBw-3" style="edgeStyle=orthogonalEdgeStyle;rounded=0;orthogonalLoop=1;jettySize=auto;html=1;exitX=0.5;exitY=1;exitDx=0;exitDy=0;entryX=0.5;entryY=0;entryDx=0;entryDy=0;fontSize=13;strokeWidth=2;" parent="1" source="z_lhrSdIOaJN08XstYBw-1" target="A4pthZk7pS7JeVkGoOn--2" edge="1">
          <mxGeometry relative="1" as="geometry" />
        </mxCell>
        <mxCell id="z_lhrSdIOaJN08XstYBw-1" value="重新获取用户列表信息" style="rounded=1;whiteSpace=wrap;html=1;strokeWidth=2;fontSize=13;" parent="1" vertex="1">
          <mxGeometry x="465" y="800" width="150" height="50" as="geometry" />
        </mxCell>
      </root>
    </mxGraphModel>
  </diagram>
  <diagram id="A4DT1ZkW6heTn9PrMQZz" name="第 2 页">
    <mxGraphModel dx="1434" dy="738" grid="1" gridSize="10" guides="1" tooltips="1" connect="1" arrows="1" fold="1" page="0" pageScale="1" pageWidth="827" pageHeight="1169" math="0" shadow="0">
      <root>
        <mxCell id="0" />
        <mxCell id="1" parent="0" />
        <mxCell id="4f7q-i6u_B6kfGfW3AI1-1" value="" style="ellipse;html=1;shape=endState;fillColor=#000000;strokeColor=#ff0000;strokeWidth=2;fontSize=13;" vertex="1" parent="1">
          <mxGeometry x="525" y="900" width="30" height="30" as="geometry" />
        </mxCell>
        <mxCell id="4f7q-i6u_B6kfGfW3AI1-2" value="" style="ellipse;html=1;shape=startState;fillColor=#000000;strokeColor=#ff0000;strokeWidth=2;fontSize=13;" vertex="1" parent="1">
          <mxGeometry x="410" y="340" width="30" height="30" as="geometry" />
        </mxCell>
        <mxCell id="4f7q-i6u_B6kfGfW3AI1-3" value="" style="edgeStyle=orthogonalEdgeStyle;html=1;verticalAlign=bottom;endArrow=open;endSize=8;strokeColor=#ff0000;rounded=0;strokeWidth=2;fontSize=13;" edge="1" parent="1" source="4f7q-i6u_B6kfGfW3AI1-2" target="4f7q-i6u_B6kfGfW3AI1-5">
          <mxGeometry relative="1" as="geometry">
            <mxPoint x="585" y="330" as="targetPoint" />
          </mxGeometry>
        </mxCell>
        <mxCell id="4f7q-i6u_B6kfGfW3AI1-4" style="edgeStyle=orthogonalEdgeStyle;rounded=0;orthogonalLoop=1;jettySize=auto;html=1;exitX=0.5;exitY=1;exitDx=0;exitDy=0;entryX=0.5;entryY=0;entryDx=0;entryDy=0;strokeWidth=2;fontSize=13;" edge="1" parent="1" source="4f7q-i6u_B6kfGfW3AI1-5" target="4f7q-i6u_B6kfGfW3AI1-8">
          <mxGeometry relative="1" as="geometry" />
        </mxCell>
        <mxCell id="4f7q-i6u_B6kfGfW3AI1-5" value="点击任一用户的封禁按钮" style="rounded=1;whiteSpace=wrap;html=1;strokeWidth=2;fontSize=13;" vertex="1" parent="1">
          <mxGeometry x="350" y="400" width="150" height="50" as="geometry" />
        </mxCell>
        <mxCell id="4f7q-i6u_B6kfGfW3AI1-6" style="edgeStyle=orthogonalEdgeStyle;rounded=0;orthogonalLoop=1;jettySize=auto;html=1;exitX=0.5;exitY=1;exitDx=0;exitDy=0;entryX=0;entryY=0.5;entryDx=0;entryDy=0;strokeWidth=2;fontSize=13;" edge="1" parent="1" source="4f7q-i6u_B6kfGfW3AI1-8" target="4f7q-i6u_B6kfGfW3AI1-1">
          <mxGeometry relative="1" as="geometry" />
        </mxCell>
        <mxCell id="4f7q-i6u_B6kfGfW3AI1-7" style="edgeStyle=orthogonalEdgeStyle;rounded=0;orthogonalLoop=1;jettySize=auto;html=1;exitX=1;exitY=0.5;exitDx=0;exitDy=0;entryX=0;entryY=0.5;entryDx=0;entryDy=0;strokeWidth=2;fontSize=13;" edge="1" parent="1" source="4f7q-i6u_B6kfGfW3AI1-8" target="4f7q-i6u_B6kfGfW3AI1-14">
          <mxGeometry relative="1" as="geometry" />
        </mxCell>
        <mxCell id="4f7q-i6u_B6kfGfW3AI1-8" value="" style="rhombus;whiteSpace=wrap;html=1;strokeWidth=2;fontSize=13;" vertex="1" parent="1">
          <mxGeometry x="385" y="480" width="80" height="40" as="geometry" />
        </mxCell>
        <mxCell id="4f7q-i6u_B6kfGfW3AI1-9" style="edgeStyle=orthogonalEdgeStyle;rounded=0;orthogonalLoop=1;jettySize=auto;html=1;exitX=0.5;exitY=1;exitDx=0;exitDy=0;entryX=1;entryY=0.5;entryDx=0;entryDy=0;strokeWidth=2;fontSize=13;" edge="1" parent="1" source="4f7q-i6u_B6kfGfW3AI1-10" target="4f7q-i6u_B6kfGfW3AI1-1">
          <mxGeometry relative="1" as="geometry" />
        </mxCell>
        <mxCell id="4f7q-i6u_B6kfGfW3AI1-10" value="提示失败信息" style="rounded=1;whiteSpace=wrap;html=1;strokeWidth=2;fontSize=13;" vertex="1" parent="1">
          <mxGeometry x="750" y="720" width="150" height="50" as="geometry" />
        </mxCell>
        <mxCell id="4f7q-i6u_B6kfGfW3AI1-26" style="edgeStyle=orthogonalEdgeStyle;rounded=0;orthogonalLoop=1;jettySize=auto;html=1;exitX=0.5;exitY=1;exitDx=0;exitDy=0;entryX=0.5;entryY=0;entryDx=0;entryDy=0;strokeWidth=2;" edge="1" parent="1" source="4f7q-i6u_B6kfGfW3AI1-12" target="4f7q-i6u_B6kfGfW3AI1-24">
          <mxGeometry relative="1" as="geometry" />
        </mxCell>
        <mxCell id="4f7q-i6u_B6kfGfW3AI1-12" value="提示封禁成功" style="rounded=1;whiteSpace=wrap;html=1;strokeWidth=2;fontSize=13;" vertex="1" parent="1">
          <mxGeometry x="465" y="720" width="150" height="50" as="geometry" />
        </mxCell>
        <mxCell id="4f7q-i6u_B6kfGfW3AI1-13" style="edgeStyle=orthogonalEdgeStyle;rounded=0;orthogonalLoop=1;jettySize=auto;html=1;exitX=0.5;exitY=1;exitDx=0;exitDy=0;entryX=0.5;entryY=0;entryDx=0;entryDy=0;strokeWidth=2;fontSize=13;" edge="1" parent="1" source="4f7q-i6u_B6kfGfW3AI1-14" target="4f7q-i6u_B6kfGfW3AI1-19">
          <mxGeometry relative="1" as="geometry" />
        </mxCell>
        <mxCell id="4f7q-i6u_B6kfGfW3AI1-14" value="发送封禁用户请求" style="rounded=1;whiteSpace=wrap;html=1;strokeWidth=2;fontSize=13;" vertex="1" parent="1">
          <mxGeometry x="600" y="475" width="150" height="50" as="geometry" />
        </mxCell>
        <mxCell id="4f7q-i6u_B6kfGfW3AI1-15" style="edgeStyle=orthogonalEdgeStyle;rounded=0;orthogonalLoop=1;jettySize=auto;html=1;exitX=0;exitY=0.5;exitDx=0;exitDy=0;entryX=0.5;entryY=0;entryDx=0;entryDy=0;strokeWidth=2;fontSize=13;" edge="1" parent="1" source="4f7q-i6u_B6kfGfW3AI1-17" target="4f7q-i6u_B6kfGfW3AI1-12">
          <mxGeometry relative="1" as="geometry" />
        </mxCell>
        <mxCell id="4f7q-i6u_B6kfGfW3AI1-16" style="edgeStyle=orthogonalEdgeStyle;rounded=0;orthogonalLoop=1;jettySize=auto;html=1;exitX=1;exitY=0.5;exitDx=0;exitDy=0;strokeWidth=2;fontSize=13;" edge="1" parent="1" source="4f7q-i6u_B6kfGfW3AI1-17" target="4f7q-i6u_B6kfGfW3AI1-10">
          <mxGeometry relative="1" as="geometry" />
        </mxCell>
        <mxCell id="4f7q-i6u_B6kfGfW3AI1-17" value="" style="rhombus;whiteSpace=wrap;html=1;strokeWidth=2;fontSize=13;" vertex="1" parent="1">
          <mxGeometry x="635" y="650" width="80" height="40" as="geometry" />
        </mxCell>
        <mxCell id="4f7q-i6u_B6kfGfW3AI1-18" style="edgeStyle=orthogonalEdgeStyle;rounded=0;orthogonalLoop=1;jettySize=auto;html=1;exitX=0.5;exitY=1;exitDx=0;exitDy=0;entryX=0.5;entryY=0;entryDx=0;entryDy=0;strokeWidth=2;fontSize=13;" edge="1" parent="1" source="4f7q-i6u_B6kfGfW3AI1-19" target="4f7q-i6u_B6kfGfW3AI1-17">
          <mxGeometry relative="1" as="geometry" />
        </mxCell>
        <mxCell id="4f7q-i6u_B6kfGfW3AI1-19" value="等待后端响应" style="rounded=1;whiteSpace=wrap;html=1;strokeWidth=2;fontSize=13;" vertex="1" parent="1">
          <mxGeometry x="600" y="560" width="150" height="50" as="geometry" />
        </mxCell>
        <mxCell id="4f7q-i6u_B6kfGfW3AI1-20" value="提交" style="text;html=1;align=center;verticalAlign=middle;resizable=0;points=[];autosize=1;strokeColor=none;fillColor=none;strokeWidth=2;fontSize=13;" vertex="1" parent="1">
          <mxGeometry x="475" y="468" width="50" height="30" as="geometry" />
        </mxCell>
        <mxCell id="4f7q-i6u_B6kfGfW3AI1-21" value="取消" style="text;html=1;align=center;verticalAlign=middle;resizable=0;points=[];autosize=1;strokeColor=none;fillColor=none;strokeWidth=2;fontSize=13;" vertex="1" parent="1">
          <mxGeometry x="365" y="618" width="50" height="30" as="geometry" />
        </mxCell>
        <mxCell id="4f7q-i6u_B6kfGfW3AI1-22" value="响应失败" style="text;html=1;align=center;verticalAlign=middle;resizable=0;points=[];autosize=1;strokeColor=none;fillColor=none;strokeWidth=2;fontSize=13;" vertex="1" parent="1">
          <mxGeometry x="710" y="628" width="80" height="30" as="geometry" />
        </mxCell>
        <mxCell id="4f7q-i6u_B6kfGfW3AI1-23" value="&lt;span style=&quot;color: rgb(0, 0, 0); font-family: Helvetica; font-size: 13px; font-style: normal; font-variant-ligatures: normal; font-variant-caps: normal; font-weight: 400; letter-spacing: normal; orphans: 2; text-align: center; text-indent: 0px; text-transform: none; widows: 2; word-spacing: 0px; -webkit-text-stroke-width: 0px; white-space: nowrap; background-color: rgb(255, 255, 255); text-decoration-thickness: initial; text-decoration-style: initial; text-decoration-color: initial; float: none; display: inline !important;&quot;&gt;响应成功&lt;/span&gt;" style="text;whiteSpace=wrap;html=1;strokeWidth=2;fontSize=13;" vertex="1" parent="1">
          <mxGeometry x="555" y="628" width="80" height="40" as="geometry" />
        </mxCell>
        <mxCell id="4f7q-i6u_B6kfGfW3AI1-25" style="edgeStyle=orthogonalEdgeStyle;rounded=0;orthogonalLoop=1;jettySize=auto;html=1;exitX=0.5;exitY=1;exitDx=0;exitDy=0;entryX=0.5;entryY=0;entryDx=0;entryDy=0;strokeWidth=2;" edge="1" parent="1" source="4f7q-i6u_B6kfGfW3AI1-24" target="4f7q-i6u_B6kfGfW3AI1-1">
          <mxGeometry relative="1" as="geometry" />
        </mxCell>
        <mxCell id="4f7q-i6u_B6kfGfW3AI1-24" value="重新获取用户列表信息" style="rounded=1;whiteSpace=wrap;html=1;strokeWidth=2;fontSize=13;" vertex="1" parent="1">
          <mxGeometry x="465" y="800" width="150" height="50" as="geometry" />
        </mxCell>
      </root>
    </mxGraphModel>
  </diagram>
  <diagram id="1dg-nWsxRVL_dmLD2rcM" name="第 3 页">
    <mxGraphModel dx="1834" dy="738" grid="1" gridSize="10" guides="1" tooltips="1" connect="1" arrows="1" fold="1" page="0" pageScale="1" pageWidth="827" pageHeight="1169" math="0" shadow="0">
      <root>
        <mxCell id="0" />
        <mxCell id="1" parent="0" />
        <mxCell id="LhQWiA1bc7o83kBUx7r5-1" value=":User" style="shape=umlActor;verticalLabelPosition=bottom;verticalAlign=top;html=1;outlineConnect=0;fontSize=13;" vertex="1" parent="1">
          <mxGeometry x="-14" y="185" width="30" height="60" as="geometry" />
        </mxCell>
        <mxCell id="LhQWiA1bc7o83kBUx7r5-12" value="&lt;u style=&quot;font-size: 13px;&quot;&gt;&lt;b style=&quot;font-size: 13px;&quot;&gt;Home page&lt;/b&gt;&lt;/u&gt;" style="shape=umlLifeline;perimeter=lifelinePerimeter;whiteSpace=wrap;html=1;container=1;dropTarget=0;collapsible=0;recursiveResize=0;outlineConnect=0;portConstraint=eastwest;newEdgeStyle={&quot;edgeStyle&quot;:&quot;elbowEdgeStyle&quot;,&quot;elbow&quot;:&quot;vertical&quot;,&quot;curved&quot;:0,&quot;rounded&quot;:0};fontSize=13;" vertex="1" parent="1">
          <mxGeometry x="151" y="185" width="100" height="375" as="geometry" />
        </mxCell>
        <mxCell id="LhQWiA1bc7o83kBUx7r5-24" style="edgeStyle=orthogonalEdgeStyle;rounded=0;orthogonalLoop=1;jettySize=auto;html=1;curved=0;exitX=1;exitY=0;exitDx=0;exitDy=5;exitPerimeter=0;" edge="1" parent="LhQWiA1bc7o83kBUx7r5-12">
          <mxGeometry relative="1" as="geometry">
            <mxPoint x="55" y="118" as="sourcePoint" />
            <mxPoint x="55" y="153" as="targetPoint" />
            <Array as="points">
              <mxPoint x="55" y="128" />
              <mxPoint x="159" y="128" />
              <mxPoint x="159" y="153" />
            </Array>
          </mxGeometry>
        </mxCell>
        <mxCell id="LhQWiA1bc7o83kBUx7r5-13" value="" style="html=1;points=[[0,0,0,0,5],[0,1,0,0,-5],[1,0,0,0,5],[1,1,0,0,-5]];perimeter=orthogonalPerimeter;outlineConnect=0;targetShapes=umlLifeline;portConstraint=eastwest;newEdgeStyle={&quot;curved&quot;:0,&quot;rounded&quot;:0};fontSize=13;" vertex="1" parent="LhQWiA1bc7o83kBUx7r5-12">
          <mxGeometry x="45" y="90" width="10" height="110" as="geometry" />
        </mxCell>
        <mxCell id="LhQWiA1bc7o83kBUx7r5-37" value="" style="html=1;points=[[0,0,0,0,5],[0,1,0,0,-5],[1,0,0,0,5],[1,1,0,0,-5]];perimeter=orthogonalPerimeter;outlineConnect=0;targetShapes=umlLifeline;portConstraint=eastwest;newEdgeStyle={&quot;curved&quot;:0,&quot;rounded&quot;:0};fontSize=13;" vertex="1" parent="LhQWiA1bc7o83kBUx7r5-12">
          <mxGeometry x="45" y="230" width="10" height="30" as="geometry" />
        </mxCell>
        <mxCell id="LhQWiA1bc7o83kBUx7r5-17" value="" style="rounded=0;orthogonalLoop=1;jettySize=auto;html=1;dashed=1;endArrow=none;endFill=0;fontSize=13;" edge="1" parent="1" target="LhQWiA1bc7o83kBUx7r5-16">
          <mxGeometry relative="1" as="geometry">
            <mxPoint x="1" y="740" as="targetPoint" />
            <mxPoint y="270" as="sourcePoint" />
          </mxGeometry>
        </mxCell>
        <mxCell id="LhQWiA1bc7o83kBUx7r5-16" value="" style="html=1;points=[[0,0,0,0,5],[0,1,0,0,-5],[1,0,0,0,5],[1,1,0,0,-5]];perimeter=orthogonalPerimeter;outlineConnect=0;targetShapes=umlLifeline;portConstraint=eastwest;newEdgeStyle={&quot;curved&quot;:0,&quot;rounded&quot;:0};fontSize=13;" vertex="1" parent="1">
          <mxGeometry x="-4" y="275" width="10" height="30" as="geometry" />
        </mxCell>
        <mxCell id="LhQWiA1bc7o83kBUx7r5-18" style="edgeStyle=orthogonalEdgeStyle;rounded=0;orthogonalLoop=1;jettySize=auto;html=1;curved=0;exitX=1;exitY=0;exitDx=0;exitDy=5;exitPerimeter=0;entryX=0;entryY=0;entryDx=0;entryDy=5;entryPerimeter=0;endArrow=open;endFill=0;fontSize=13;" edge="1" parent="1" source="LhQWiA1bc7o83kBUx7r5-16" target="LhQWiA1bc7o83kBUx7r5-13">
          <mxGeometry relative="1" as="geometry" />
        </mxCell>
        <mxCell id="LhQWiA1bc7o83kBUx7r5-19" value="1:Into" style="text;html=1;align=center;verticalAlign=middle;resizable=0;points=[];autosize=1;strokeColor=none;fillColor=none;fontSize=13;" vertex="1" parent="1">
          <mxGeometry x="55" y="250" width="60" height="30" as="geometry" />
        </mxCell>
        <mxCell id="LhQWiA1bc7o83kBUx7r5-23" value="2:verifyLogin()" style="text;html=1;align=center;verticalAlign=middle;resizable=0;points=[];autosize=1;strokeColor=none;fillColor=none;" vertex="1" parent="1">
          <mxGeometry x="210" y="280" width="100" height="30" as="geometry" />
        </mxCell>
        <mxCell id="LhQWiA1bc7o83kBUx7r5-25" value="&lt;b style=&quot;font-size: 13px;&quot;&gt;&lt;u style=&quot;font-size: 13px;&quot;&gt;DBServer&lt;/u&gt;&lt;/b&gt;" style="shape=umlLifeline;perimeter=lifelinePerimeter;whiteSpace=wrap;html=1;container=1;dropTarget=0;collapsible=0;recursiveResize=0;outlineConnect=0;portConstraint=eastwest;newEdgeStyle={&quot;edgeStyle&quot;:&quot;elbowEdgeStyle&quot;,&quot;elbow&quot;:&quot;vertical&quot;,&quot;curved&quot;:0,&quot;rounded&quot;:0};fontSize=13;" vertex="1" parent="1">
          <mxGeometry x="370" y="185" width="100" height="375" as="geometry" />
        </mxCell>
        <mxCell id="LhQWiA1bc7o83kBUx7r5-26" value="" style="html=1;points=[[0,0,0,0,5],[0,1,0,0,-5],[1,0,0,0,5],[1,1,0,0,-5]];perimeter=orthogonalPerimeter;outlineConnect=0;targetShapes=umlLifeline;portConstraint=eastwest;newEdgeStyle={&quot;curved&quot;:0,&quot;rounded&quot;:0};fontSize=13;" vertex="1" parent="LhQWiA1bc7o83kBUx7r5-25">
          <mxGeometry x="45" y="185" width="10" height="55" as="geometry" />
        </mxCell>
        <mxCell id="LhQWiA1bc7o83kBUx7r5-28" value="" style="rounded=0;orthogonalLoop=1;jettySize=auto;html=1;dashed=1;endArrow=none;endFill=0;fontSize=13;" edge="1" parent="1" source="LhQWiA1bc7o83kBUx7r5-16">
          <mxGeometry relative="1" as="geometry">
            <mxPoint y="540" as="targetPoint" />
            <mxPoint x="1" y="305" as="sourcePoint" />
          </mxGeometry>
        </mxCell>
        <mxCell id="LhQWiA1bc7o83kBUx7r5-33" style="edgeStyle=orthogonalEdgeStyle;rounded=0;orthogonalLoop=1;jettySize=auto;html=1;curved=0;exitX=1;exitY=1;exitDx=0;exitDy=-5;exitPerimeter=0;entryX=0;entryY=0;entryDx=0;entryDy=5;entryPerimeter=0;endArrow=open;endFill=0;" edge="1" parent="1" source="LhQWiA1bc7o83kBUx7r5-13" target="LhQWiA1bc7o83kBUx7r5-26">
          <mxGeometry relative="1" as="geometry">
            <mxPoint x="407" y="380" as="targetPoint" />
            <Array as="points">
              <mxPoint x="206" y="375" />
            </Array>
          </mxGeometry>
        </mxCell>
        <mxCell id="LhQWiA1bc7o83kBUx7r5-38" style="edgeStyle=orthogonalEdgeStyle;rounded=0;orthogonalLoop=1;jettySize=auto;html=1;curved=0;exitX=0;exitY=1;exitDx=0;exitDy=-5;exitPerimeter=0;entryX=1;entryY=0;entryDx=0;entryDy=5;entryPerimeter=0;" edge="1" parent="1" source="LhQWiA1bc7o83kBUx7r5-26" target="LhQWiA1bc7o83kBUx7r5-37">
          <mxGeometry relative="1" as="geometry" />
        </mxCell>
        <mxCell id="LhQWiA1bc7o83kBUx7r5-39" value="3:QueryInfants()" style="text;html=1;align=center;verticalAlign=middle;resizable=0;points=[];autosize=1;strokeColor=none;fillColor=none;" vertex="1" parent="1">
          <mxGeometry x="245" y="348" width="110" height="30" as="geometry" />
        </mxCell>
        <mxCell id="LhQWiA1bc7o83kBUx7r5-40" value="3:ShowInfantsList()" style="text;html=1;align=center;verticalAlign=middle;resizable=0;points=[];autosize=1;strokeColor=none;fillColor=none;" vertex="1" parent="1">
          <mxGeometry x="241" y="420" width="130" height="30" as="geometry" />
        </mxCell>
      </root>
    </mxGraphModel>
  </diagram>
  <diagram id="AyCJhzIWoaVsG0YSOWc8" name="第 4 页">
    <mxGraphModel dx="1834" dy="738" grid="1" gridSize="10" guides="1" tooltips="1" connect="1" arrows="1" fold="1" page="0" pageScale="1" pageWidth="827" pageHeight="1169" math="0" shadow="0">
      <root>
        <mxCell id="0" />
        <mxCell id="1" parent="0" />
        <mxCell id="h3RWsHIK0cvni8HY3_bA-1" value=":User" style="shape=umlActor;verticalLabelPosition=bottom;verticalAlign=top;html=1;outlineConnect=0;fontSize=13;strokeWidth=1;" vertex="1" parent="1">
          <mxGeometry x="-14" y="185" width="30" height="60" as="geometry" />
        </mxCell>
        <mxCell id="h3RWsHIK0cvni8HY3_bA-2" value="&lt;u style=&quot;font-size: 13px;&quot;&gt;&lt;b style=&quot;font-size: 13px;&quot;&gt;Login page&lt;/b&gt;&lt;/u&gt;" style="shape=umlLifeline;perimeter=lifelinePerimeter;whiteSpace=wrap;html=1;container=1;dropTarget=0;collapsible=0;recursiveResize=0;outlineConnect=0;portConstraint=eastwest;newEdgeStyle={&quot;edgeStyle&quot;:&quot;elbowEdgeStyle&quot;,&quot;elbow&quot;:&quot;vertical&quot;,&quot;curved&quot;:0,&quot;rounded&quot;:0};fontSize=13;strokeWidth=1;" vertex="1" parent="1">
          <mxGeometry x="151" y="185" width="100" height="455" as="geometry" />
        </mxCell>
        <mxCell id="h3RWsHIK0cvni8HY3_bA-3" style="edgeStyle=orthogonalEdgeStyle;rounded=0;orthogonalLoop=1;jettySize=auto;html=1;curved=0;exitX=1;exitY=0;exitDx=0;exitDy=5;exitPerimeter=0;endArrow=open;endFill=0;strokeWidth=1;fontSize=13;" edge="1" parent="h3RWsHIK0cvni8HY3_bA-2">
          <mxGeometry relative="1" as="geometry">
            <mxPoint x="55" y="118" as="sourcePoint" />
            <mxPoint x="55" y="153" as="targetPoint" />
            <Array as="points">
              <mxPoint x="55" y="128" />
              <mxPoint x="159" y="128" />
              <mxPoint x="159" y="153" />
            </Array>
          </mxGeometry>
        </mxCell>
        <mxCell id="h3RWsHIK0cvni8HY3_bA-4" value="" style="html=1;points=[[0,0,0,0,5],[0,1,0,0,-5],[1,0,0,0,5],[1,1,0,0,-5]];perimeter=orthogonalPerimeter;outlineConnect=0;targetShapes=umlLifeline;portConstraint=eastwest;newEdgeStyle={&quot;curved&quot;:0,&quot;rounded&quot;:0};fontSize=13;strokeWidth=1;" vertex="1" parent="h3RWsHIK0cvni8HY3_bA-2">
          <mxGeometry x="45" y="90" width="10" height="110" as="geometry" />
        </mxCell>
        <mxCell id="h3RWsHIK0cvni8HY3_bA-5" value="" style="html=1;points=[[0,0,0,0,5],[0,1,0,0,-5],[1,0,0,0,5],[1,1,0,0,-5]];perimeter=orthogonalPerimeter;outlineConnect=0;targetShapes=umlLifeline;portConstraint=eastwest;newEdgeStyle={&quot;curved&quot;:0,&quot;rounded&quot;:0};fontSize=13;strokeWidth=1;" vertex="1" parent="h3RWsHIK0cvni8HY3_bA-2">
          <mxGeometry x="45" y="230" width="10" height="30" as="geometry" />
        </mxCell>
        <mxCell id="h3RWsHIK0cvni8HY3_bA-24" value="" style="html=1;points=[[0,0,0,0,5],[0,1,0,0,-5],[1,0,0,0,5],[1,1,0,0,-5]];perimeter=orthogonalPerimeter;outlineConnect=0;targetShapes=umlLifeline;portConstraint=eastwest;newEdgeStyle={&quot;curved&quot;:0,&quot;rounded&quot;:0};fontSize=13;strokeWidth=1;" vertex="1" parent="h3RWsHIK0cvni8HY3_bA-2">
          <mxGeometry x="45" y="295" width="10" height="30" as="geometry" />
        </mxCell>
        <mxCell id="bzlslXiP8H7djkPzpa-w-1" value="" style="html=1;points=[[0,0,0,0,5],[0,1,0,0,-5],[1,0,0,0,5],[1,1,0,0,-5]];perimeter=orthogonalPerimeter;outlineConnect=0;targetShapes=umlLifeline;portConstraint=eastwest;newEdgeStyle={&quot;curved&quot;:0,&quot;rounded&quot;:0};fontSize=13;strokeWidth=1;" vertex="1" parent="h3RWsHIK0cvni8HY3_bA-2">
          <mxGeometry x="45" y="345" width="10" height="85" as="geometry" />
        </mxCell>
        <mxCell id="C_hP9BybmH09RSRFd_sS-1" style="edgeStyle=orthogonalEdgeStyle;rounded=0;orthogonalLoop=1;jettySize=auto;html=1;curved=0;endArrow=open;endFill=0;" edge="1" parent="h3RWsHIK0cvni8HY3_bA-2" source="bzlslXiP8H7djkPzpa-w-1">
          <mxGeometry relative="1" as="geometry">
            <mxPoint x="125" y="385" as="sourcePoint" />
            <mxPoint x="55.5" y="415" as="targetPoint" />
            <Array as="points">
              <mxPoint x="119" y="388" />
              <mxPoint x="119" y="416" />
            </Array>
          </mxGeometry>
        </mxCell>
        <mxCell id="h3RWsHIK0cvni8HY3_bA-6" value="" style="rounded=0;orthogonalLoop=1;jettySize=auto;html=1;dashed=1;endArrow=none;endFill=0;fontSize=13;strokeWidth=1;" edge="1" parent="1" target="h3RWsHIK0cvni8HY3_bA-7">
          <mxGeometry relative="1" as="geometry">
            <mxPoint x="1" y="740" as="targetPoint" />
            <mxPoint y="270" as="sourcePoint" />
          </mxGeometry>
        </mxCell>
        <mxCell id="h3RWsHIK0cvni8HY3_bA-7" value="" style="html=1;points=[[0,0,0,0,5],[0,1,0,0,-5],[1,0,0,0,5],[1,1,0,0,-5]];perimeter=orthogonalPerimeter;outlineConnect=0;targetShapes=umlLifeline;portConstraint=eastwest;newEdgeStyle={&quot;curved&quot;:0,&quot;rounded&quot;:0};fontSize=13;strokeWidth=1;" vertex="1" parent="1">
          <mxGeometry x="-4" y="275" width="10" height="30" as="geometry" />
        </mxCell>
        <mxCell id="h3RWsHIK0cvni8HY3_bA-8" style="edgeStyle=orthogonalEdgeStyle;rounded=0;orthogonalLoop=1;jettySize=auto;html=1;curved=0;exitX=1;exitY=0;exitDx=0;exitDy=5;exitPerimeter=0;entryX=0;entryY=0;entryDx=0;entryDy=5;entryPerimeter=0;endArrow=open;endFill=0;fontSize=13;strokeWidth=1;" edge="1" parent="1" source="h3RWsHIK0cvni8HY3_bA-7" target="h3RWsHIK0cvni8HY3_bA-4">
          <mxGeometry relative="1" as="geometry" />
        </mxCell>
        <mxCell id="h3RWsHIK0cvni8HY3_bA-9" value="1:Into" style="text;html=1;align=center;verticalAlign=middle;resizable=0;points=[];autosize=1;strokeColor=none;fillColor=none;fontSize=13;strokeWidth=1;" vertex="1" parent="1">
          <mxGeometry x="55" y="250" width="60" height="30" as="geometry" />
        </mxCell>
        <mxCell id="h3RWsHIK0cvni8HY3_bA-10" value="2:verifyLogin()" style="text;html=1;align=center;verticalAlign=middle;resizable=0;points=[];autosize=1;strokeColor=none;fillColor=none;strokeWidth=1;fontSize=13;" vertex="1" parent="1">
          <mxGeometry x="205" y="280" width="110" height="30" as="geometry" />
        </mxCell>
        <mxCell id="h3RWsHIK0cvni8HY3_bA-11" value="&lt;b style=&quot;font-size: 13px;&quot;&gt;&lt;u style=&quot;font-size: 13px;&quot;&gt;WeChatServer&lt;/u&gt;&lt;/b&gt;" style="shape=umlLifeline;perimeter=lifelinePerimeter;whiteSpace=wrap;html=1;container=1;dropTarget=0;collapsible=0;recursiveResize=0;outlineConnect=0;portConstraint=eastwest;newEdgeStyle={&quot;edgeStyle&quot;:&quot;elbowEdgeStyle&quot;,&quot;elbow&quot;:&quot;vertical&quot;,&quot;curved&quot;:0,&quot;rounded&quot;:0};fontSize=13;strokeWidth=1;" vertex="1" parent="1">
          <mxGeometry x="370" y="185" width="100" height="465" as="geometry" />
        </mxCell>
        <mxCell id="h3RWsHIK0cvni8HY3_bA-12" value="" style="html=1;points=[[0,0,0,0,5],[0,1,0,0,-5],[1,0,0,0,5],[1,1,0,0,-5]];perimeter=orthogonalPerimeter;outlineConnect=0;targetShapes=umlLifeline;portConstraint=eastwest;newEdgeStyle={&quot;curved&quot;:0,&quot;rounded&quot;:0};fontSize=13;strokeWidth=1;" vertex="1" parent="h3RWsHIK0cvni8HY3_bA-11">
          <mxGeometry x="45" y="185" width="10" height="55" as="geometry" />
        </mxCell>
        <mxCell id="h3RWsHIK0cvni8HY3_bA-13" value="" style="rounded=0;orthogonalLoop=1;jettySize=auto;html=1;dashed=1;endArrow=none;endFill=0;fontSize=13;strokeWidth=1;" edge="1" parent="1" source="h3RWsHIK0cvni8HY3_bA-20">
          <mxGeometry relative="1" as="geometry">
            <mxPoint y="630" as="targetPoint" />
            <mxPoint x="1" y="305" as="sourcePoint" />
          </mxGeometry>
        </mxCell>
        <mxCell id="h3RWsHIK0cvni8HY3_bA-14" style="edgeStyle=orthogonalEdgeStyle;rounded=0;orthogonalLoop=1;jettySize=auto;html=1;curved=0;exitX=1;exitY=1;exitDx=0;exitDy=-5;exitPerimeter=0;entryX=0;entryY=0;entryDx=0;entryDy=5;entryPerimeter=0;endArrow=open;endFill=0;strokeWidth=1;fontSize=13;" edge="1" parent="1" source="h3RWsHIK0cvni8HY3_bA-4" target="h3RWsHIK0cvni8HY3_bA-12">
          <mxGeometry relative="1" as="geometry">
            <mxPoint x="407" y="380" as="targetPoint" />
            <Array as="points">
              <mxPoint x="206" y="375" />
            </Array>
          </mxGeometry>
        </mxCell>
        <mxCell id="h3RWsHIK0cvni8HY3_bA-15" style="edgeStyle=orthogonalEdgeStyle;rounded=0;orthogonalLoop=1;jettySize=auto;html=1;curved=0;exitX=0;exitY=1;exitDx=0;exitDy=-5;exitPerimeter=0;entryX=1;entryY=0;entryDx=0;entryDy=5;entryPerimeter=0;endArrow=open;endFill=0;strokeWidth=1;fontSize=13;" edge="1" parent="1" source="h3RWsHIK0cvni8HY3_bA-12" target="h3RWsHIK0cvni8HY3_bA-5">
          <mxGeometry relative="1" as="geometry" />
        </mxCell>
        <mxCell id="h3RWsHIK0cvni8HY3_bA-16" value="3:wx.Login()" style="text;html=1;align=center;verticalAlign=middle;resizable=0;points=[];autosize=1;strokeColor=none;fillColor=none;strokeWidth=1;fontSize=13;" vertex="1" parent="1">
          <mxGeometry x="255" y="348" width="90" height="30" as="geometry" />
        </mxCell>
        <mxCell id="h3RWsHIK0cvni8HY3_bA-17" value="4:WXUserInfo()" style="text;html=1;align=center;verticalAlign=middle;resizable=0;points=[];autosize=1;strokeColor=none;fillColor=none;strokeWidth=1;fontSize=13;" vertex="1" parent="1">
          <mxGeometry x="251" y="420" width="110" height="30" as="geometry" />
        </mxCell>
        <mxCell id="h3RWsHIK0cvni8HY3_bA-18" value="&lt;b style=&quot;font-size: 13px;&quot;&gt;&lt;u style=&quot;font-size: 13px;&quot;&gt;DBServer&lt;/u&gt;&lt;/b&gt;" style="shape=umlLifeline;perimeter=lifelinePerimeter;whiteSpace=wrap;html=1;container=1;dropTarget=0;collapsible=0;recursiveResize=0;outlineConnect=0;portConstraint=eastwest;newEdgeStyle={&quot;edgeStyle&quot;:&quot;elbowEdgeStyle&quot;,&quot;elbow&quot;:&quot;vertical&quot;,&quot;curved&quot;:0,&quot;rounded&quot;:0};fontSize=13;strokeWidth=1;" vertex="1" parent="1">
          <mxGeometry x="510" y="185" width="100" height="465" as="geometry" />
        </mxCell>
        <mxCell id="h3RWsHIK0cvni8HY3_bA-19" value="" style="html=1;points=[[0,0,0,0,5],[0,1,0,0,-5],[1,0,0,0,5],[1,1,0,0,-5]];perimeter=orthogonalPerimeter;outlineConnect=0;targetShapes=umlLifeline;portConstraint=eastwest;newEdgeStyle={&quot;curved&quot;:0,&quot;rounded&quot;:0};fontSize=13;strokeWidth=1;" vertex="1" parent="h3RWsHIK0cvni8HY3_bA-18">
          <mxGeometry x="45" y="315" width="10" height="40" as="geometry" />
        </mxCell>
        <mxCell id="h3RWsHIK0cvni8HY3_bA-22" value="" style="rounded=0;orthogonalLoop=1;jettySize=auto;html=1;dashed=1;endArrow=none;endFill=0;fontSize=13;strokeWidth=1;" edge="1" parent="1" source="h3RWsHIK0cvni8HY3_bA-7" target="h3RWsHIK0cvni8HY3_bA-20">
          <mxGeometry relative="1" as="geometry">
            <mxPoint y="630" as="targetPoint" />
            <mxPoint y="305" as="sourcePoint" />
          </mxGeometry>
        </mxCell>
        <mxCell id="h3RWsHIK0cvni8HY3_bA-23" style="edgeStyle=orthogonalEdgeStyle;rounded=0;orthogonalLoop=1;jettySize=auto;html=1;curved=0;exitX=1;exitY=0;exitDx=0;exitDy=5;exitPerimeter=0;entryX=0;entryY=0;entryDx=0;entryDy=5;entryPerimeter=0;endArrow=open;endFill=0;strokeWidth=1;fontSize=13;" edge="1" parent="1" source="h3RWsHIK0cvni8HY3_bA-20" target="h3RWsHIK0cvni8HY3_bA-24">
          <mxGeometry relative="1" as="geometry">
            <mxPoint x="122" y="410" as="targetPoint" />
          </mxGeometry>
        </mxCell>
        <mxCell id="h3RWsHIK0cvni8HY3_bA-20" value="" style="html=1;points=[[0,0,0,0,5],[0,1,0,0,-5],[1,0,0,0,5],[1,1,0,0,-5]];perimeter=orthogonalPerimeter;outlineConnect=0;targetShapes=umlLifeline;portConstraint=eastwest;newEdgeStyle={&quot;curved&quot;:0,&quot;rounded&quot;:0};fontSize=13;strokeWidth=1;" vertex="1" parent="1">
          <mxGeometry x="-4" y="480" width="10" height="30" as="geometry" />
        </mxCell>
        <mxCell id="h3RWsHIK0cvni8HY3_bA-25" value="5:toLogin(openid)" style="text;html=1;align=center;verticalAlign=middle;resizable=0;points=[];autosize=1;strokeColor=none;fillColor=none;strokeWidth=1;fontSize=13;" vertex="1" parent="1">
          <mxGeometry x="30" y="458" width="120" height="30" as="geometry" />
        </mxCell>
        <mxCell id="h3RWsHIK0cvni8HY3_bA-27" style="edgeStyle=orthogonalEdgeStyle;rounded=0;orthogonalLoop=1;jettySize=auto;html=1;curved=0;exitX=1;exitY=1;exitDx=0;exitDy=-5;exitPerimeter=0;entryX=0;entryY=0;entryDx=0;entryDy=5;entryPerimeter=0;endArrow=open;endFill=0;strokeWidth=1;fontSize=13;" edge="1" parent="1" source="h3RWsHIK0cvni8HY3_bA-24" target="h3RWsHIK0cvni8HY3_bA-19">
          <mxGeometry relative="1" as="geometry" />
        </mxCell>
        <mxCell id="h3RWsHIK0cvni8HY3_bA-28" value="6:loginService()" style="text;html=1;align=center;verticalAlign=middle;resizable=0;points=[];autosize=1;strokeColor=none;fillColor=none;strokeWidth=1;fontSize=13;" vertex="1" parent="1">
          <mxGeometry x="285" y="478" width="110" height="30" as="geometry" />
        </mxCell>
        <mxCell id="bzlslXiP8H7djkPzpa-w-2" style="edgeStyle=orthogonalEdgeStyle;rounded=0;orthogonalLoop=1;jettySize=auto;html=1;curved=0;exitX=0;exitY=1;exitDx=0;exitDy=-5;exitPerimeter=0;entryX=1;entryY=0;entryDx=0;entryDy=5;entryPerimeter=0;endArrow=open;endFill=0;strokeWidth=1;fontSize=13;" edge="1" parent="1" source="h3RWsHIK0cvni8HY3_bA-19" target="bzlslXiP8H7djkPzpa-w-1">
          <mxGeometry relative="1" as="geometry" />
        </mxCell>
        <mxCell id="bzlslXiP8H7djkPzpa-w-3" value="7:return(UserID,Token)" style="text;html=1;align=center;verticalAlign=middle;resizable=0;points=[];autosize=1;strokeColor=none;fillColor=none;strokeWidth=1;fontSize=13;" vertex="1" parent="1">
          <mxGeometry x="260" y="508" width="160" height="30" as="geometry" />
        </mxCell>
        <mxCell id="C_hP9BybmH09RSRFd_sS-2" value="8:showUserInfo()" style="text;html=1;align=center;verticalAlign=middle;resizable=0;points=[];autosize=1;strokeColor=none;fillColor=none;strokeWidth=1;fontSize=13;" vertex="1" parent="1">
          <mxGeometry x="225" y="600" width="120" height="30" as="geometry" />
        </mxCell>
      </root>
    </mxGraphModel>
  </diagram>
  <diagram id="xZtYQmLCGwy2njoYLHlK" name="第 5 页">
    <mxGraphModel dx="1834" dy="738" grid="1" gridSize="10" guides="1" tooltips="1" connect="1" arrows="1" fold="1" page="0" pageScale="1" pageWidth="827" pageHeight="1169" math="0" shadow="0">
      <root>
        <mxCell id="0" />
        <mxCell id="1" parent="0" />
        <mxCell id="STYy170UVrBewqX6tWQa-1" value=":User" style="shape=umlActor;verticalLabelPosition=bottom;verticalAlign=top;html=1;outlineConnect=0;fontSize=13;" vertex="1" parent="1">
          <mxGeometry x="-14" y="185" width="30" height="60" as="geometry" />
        </mxCell>
        <mxCell id="STYy170UVrBewqX6tWQa-2" value="&lt;u style=&quot;font-size: 13px;&quot;&gt;&lt;b style=&quot;font-size: 13px;&quot;&gt;Infants page&lt;/b&gt;&lt;/u&gt;" style="shape=umlLifeline;perimeter=lifelinePerimeter;whiteSpace=wrap;html=1;container=1;dropTarget=0;collapsible=0;recursiveResize=0;outlineConnect=0;portConstraint=eastwest;newEdgeStyle={&quot;edgeStyle&quot;:&quot;elbowEdgeStyle&quot;,&quot;elbow&quot;:&quot;vertical&quot;,&quot;curved&quot;:0,&quot;rounded&quot;:0};fontSize=13;" vertex="1" parent="1">
          <mxGeometry x="151" y="185" width="100" height="385" as="geometry" />
        </mxCell>
        <mxCell id="STYy170UVrBewqX6tWQa-4" value="" style="html=1;points=[[0,0,0,0,5],[0,1,0,0,-5],[1,0,0,0,5],[1,1,0,0,-5]];perimeter=orthogonalPerimeter;outlineConnect=0;targetShapes=umlLifeline;portConstraint=eastwest;newEdgeStyle={&quot;curved&quot;:0,&quot;rounded&quot;:0};fontSize=13;" vertex="1" parent="STYy170UVrBewqX6tWQa-2">
          <mxGeometry x="45" y="90" width="10" height="40" as="geometry" />
        </mxCell>
        <mxCell id="STYy170UVrBewqX6tWQa-6" value="" style="html=1;points=[[0,0,0,0,5],[0,1,0,0,-5],[1,0,0,0,5],[1,1,0,0,-5]];perimeter=orthogonalPerimeter;outlineConnect=0;targetShapes=umlLifeline;portConstraint=eastwest;newEdgeStyle={&quot;curved&quot;:0,&quot;rounded&quot;:0};fontSize=13;" vertex="1" parent="STYy170UVrBewqX6tWQa-2">
          <mxGeometry x="45" y="270" width="10" height="90" as="geometry" />
        </mxCell>
        <mxCell id="fysDTIgjO2Bx7yAoU0-C-5" style="edgeStyle=orthogonalEdgeStyle;rounded=0;orthogonalLoop=1;jettySize=auto;html=1;curved=0;exitX=1;exitY=0;exitDx=0;exitDy=5;exitPerimeter=0;fontSize=13;" edge="1" parent="STYy170UVrBewqX6tWQa-2" source="STYy170UVrBewqX6tWQa-6">
          <mxGeometry relative="1" as="geometry">
            <mxPoint x="55" y="335" as="targetPoint" />
            <Array as="points">
              <mxPoint x="55" y="305" />
              <mxPoint x="199" y="305" />
              <mxPoint x="199" y="335" />
            </Array>
          </mxGeometry>
        </mxCell>
        <mxCell id="STYy170UVrBewqX6tWQa-7" value="" style="rounded=0;orthogonalLoop=1;jettySize=auto;html=1;dashed=1;endArrow=none;endFill=0;fontSize=13;" edge="1" parent="1" target="STYy170UVrBewqX6tWQa-8">
          <mxGeometry relative="1" as="geometry">
            <mxPoint x="1" y="740" as="targetPoint" />
            <mxPoint y="270" as="sourcePoint" />
          </mxGeometry>
        </mxCell>
        <mxCell id="STYy170UVrBewqX6tWQa-8" value="" style="html=1;points=[[0,0,0,0,5],[0,1,0,0,-5],[1,0,0,0,5],[1,1,0,0,-5]];perimeter=orthogonalPerimeter;outlineConnect=0;targetShapes=umlLifeline;portConstraint=eastwest;newEdgeStyle={&quot;curved&quot;:0,&quot;rounded&quot;:0};fontSize=13;" vertex="1" parent="1">
          <mxGeometry x="-4" y="275" width="10" height="30" as="geometry" />
        </mxCell>
        <mxCell id="STYy170UVrBewqX6tWQa-9" style="edgeStyle=orthogonalEdgeStyle;rounded=0;orthogonalLoop=1;jettySize=auto;html=1;curved=0;exitX=1;exitY=0;exitDx=0;exitDy=5;exitPerimeter=0;entryX=0;entryY=0;entryDx=0;entryDy=5;entryPerimeter=0;endArrow=classic;endFill=1;fontSize=13;" edge="1" parent="1" source="STYy170UVrBewqX6tWQa-8" target="STYy170UVrBewqX6tWQa-4">
          <mxGeometry relative="1" as="geometry" />
        </mxCell>
        <mxCell id="STYy170UVrBewqX6tWQa-10" value="1:Into" style="text;html=1;align=center;verticalAlign=middle;resizable=0;points=[];autosize=1;strokeColor=none;fillColor=none;fontSize=13;" vertex="1" parent="1">
          <mxGeometry x="55" y="250" width="60" height="30" as="geometry" />
        </mxCell>
        <mxCell id="STYy170UVrBewqX6tWQa-14" value="" style="rounded=0;orthogonalLoop=1;jettySize=auto;html=1;dashed=1;endArrow=none;endFill=0;fontSize=13;" edge="1" parent="1" source="fysDTIgjO2Bx7yAoU0-C-7">
          <mxGeometry relative="1" as="geometry">
            <mxPoint y="580" as="targetPoint" />
            <mxPoint x="1" y="305" as="sourcePoint" />
          </mxGeometry>
        </mxCell>
        <mxCell id="STYy170UVrBewqX6tWQa-19" value="&lt;b style=&quot;font-size: 13px;&quot;&gt;&lt;u style=&quot;font-size: 13px;&quot;&gt;InfantInfoFrom Page&lt;/u&gt;&lt;/b&gt;" style="shape=umlLifeline;perimeter=lifelinePerimeter;whiteSpace=wrap;html=1;container=1;dropTarget=0;collapsible=0;recursiveResize=0;outlineConnect=0;portConstraint=eastwest;newEdgeStyle={&quot;edgeStyle&quot;:&quot;elbowEdgeStyle&quot;,&quot;elbow&quot;:&quot;vertical&quot;,&quot;curved&quot;:0,&quot;rounded&quot;:0};fontSize=13;" vertex="1" parent="1">
          <mxGeometry x="338" y="185" width="169" height="385" as="geometry" />
        </mxCell>
        <mxCell id="STYy170UVrBewqX6tWQa-20" value="" style="html=1;points=[[0,0,0,0,5],[0,1,0,0,-5],[1,0,0,0,5],[1,1,0,0,-5]];perimeter=orthogonalPerimeter;outlineConnect=0;targetShapes=umlLifeline;portConstraint=eastwest;newEdgeStyle={&quot;curved&quot;:0,&quot;rounded&quot;:0};fontSize=13;" vertex="1" parent="STYy170UVrBewqX6tWQa-19">
          <mxGeometry x="79.5" y="120" width="10" height="90" as="geometry" />
        </mxCell>
        <mxCell id="STYy170UVrBewqX6tWQa-21" value="" style="rounded=0;orthogonalLoop=1;jettySize=auto;html=1;dashed=1;endArrow=none;endFill=0;fontSize=13;" edge="1" parent="1" source="STYy170UVrBewqX6tWQa-8" target="STYy170UVrBewqX6tWQa-23">
          <mxGeometry relative="1" as="geometry">
            <mxPoint y="630" as="targetPoint" />
            <mxPoint y="305" as="sourcePoint" />
          </mxGeometry>
        </mxCell>
        <mxCell id="XEA2S3gQdm62LOCSLKKb-3" style="edgeStyle=orthogonalEdgeStyle;rounded=0;orthogonalLoop=1;jettySize=auto;html=1;curved=0;exitX=1;exitY=0;exitDx=0;exitDy=5;exitPerimeter=0;entryX=0.05;entryY=0.611;entryDx=0;entryDy=0;entryPerimeter=0;fontSize=13;" edge="1" parent="1" source="STYy170UVrBewqX6tWQa-23" target="STYy170UVrBewqX6tWQa-20">
          <mxGeometry relative="1" as="geometry">
            <mxPoint x="500" y="360" as="targetPoint" />
          </mxGeometry>
        </mxCell>
        <mxCell id="STYy170UVrBewqX6tWQa-23" value="" style="html=1;points=[[0,0,0,0,5],[0,1,0,0,-5],[1,0,0,0,5],[1,1,0,0,-5]];perimeter=orthogonalPerimeter;outlineConnect=0;targetShapes=umlLifeline;portConstraint=eastwest;newEdgeStyle={&quot;curved&quot;:0,&quot;rounded&quot;:0};fontSize=13;" vertex="1" parent="1">
          <mxGeometry x="-4" y="355" width="10" height="30" as="geometry" />
        </mxCell>
        <mxCell id="STYy170UVrBewqX6tWQa-31" style="edgeStyle=orthogonalEdgeStyle;rounded=0;orthogonalLoop=1;jettySize=auto;html=1;curved=0;exitX=1;exitY=1;exitDx=0;exitDy=-5;exitPerimeter=0;entryX=0;entryY=0;entryDx=0;entryDy=5;entryPerimeter=0;fontSize=13;" edge="1" parent="1" source="STYy170UVrBewqX6tWQa-4" target="STYy170UVrBewqX6tWQa-20">
          <mxGeometry relative="1" as="geometry" />
        </mxCell>
        <mxCell id="STYy170UVrBewqX6tWQa-32" value="2:toAddInfant()" style="text;html=1;align=center;verticalAlign=middle;resizable=0;points=[];autosize=1;strokeColor=none;fillColor=none;fontSize=13;" vertex="1" parent="1">
          <mxGeometry x="277" y="280" width="110" height="30" as="geometry" />
        </mxCell>
        <mxCell id="XEA2S3gQdm62LOCSLKKb-1" value="&lt;b style=&quot;font-size: 13px;&quot;&gt;&lt;u style=&quot;font-size: 13px;&quot;&gt;DBServer&lt;/u&gt;&lt;/b&gt;" style="shape=umlLifeline;perimeter=lifelinePerimeter;whiteSpace=wrap;html=1;container=1;dropTarget=0;collapsible=0;recursiveResize=0;outlineConnect=0;portConstraint=eastwest;newEdgeStyle={&quot;edgeStyle&quot;:&quot;elbowEdgeStyle&quot;,&quot;elbow&quot;:&quot;vertical&quot;,&quot;curved&quot;:0,&quot;rounded&quot;:0};fontSize=13;" vertex="1" parent="1">
          <mxGeometry x="563" y="185" width="100" height="385" as="geometry" />
        </mxCell>
        <mxCell id="XEA2S3gQdm62LOCSLKKb-7" style="edgeStyle=orthogonalEdgeStyle;rounded=0;orthogonalLoop=1;jettySize=auto;html=1;curved=0;exitX=1;exitY=0;exitDx=0;exitDy=5;exitPerimeter=0;fontSize=13;" edge="1" parent="XEA2S3gQdm62LOCSLKKb-1">
          <mxGeometry relative="1" as="geometry">
            <mxPoint x="55" y="220" as="sourcePoint" />
            <mxPoint x="55" y="248" as="targetPoint" />
            <Array as="points">
              <mxPoint x="120" y="220" />
              <mxPoint x="120" y="248" />
            </Array>
          </mxGeometry>
        </mxCell>
        <mxCell id="XEA2S3gQdm62LOCSLKKb-2" value="" style="html=1;points=[[0,0,0,0,5],[0,1,0,0,-5],[1,0,0,0,5],[1,1,0,0,-5]];perimeter=orthogonalPerimeter;outlineConnect=0;targetShapes=umlLifeline;portConstraint=eastwest;newEdgeStyle={&quot;curved&quot;:0,&quot;rounded&quot;:0};fontSize=13;" vertex="1" parent="XEA2S3gQdm62LOCSLKKb-1">
          <mxGeometry x="45" y="200" width="10" height="80" as="geometry" />
        </mxCell>
        <mxCell id="XEA2S3gQdm62LOCSLKKb-4" value="3:input infant information" style="text;html=1;align=center;verticalAlign=middle;resizable=0;points=[];autosize=1;strokeColor=none;fillColor=none;fontSize=13;" vertex="1" parent="1">
          <mxGeometry x="6" y="330" width="170" height="30" as="geometry" />
        </mxCell>
        <mxCell id="XEA2S3gQdm62LOCSLKKb-5" style="edgeStyle=orthogonalEdgeStyle;rounded=0;orthogonalLoop=1;jettySize=auto;html=1;curved=0;exitX=1;exitY=1;exitDx=0;exitDy=-5;exitPerimeter=0;fontSize=13;" edge="1" parent="1" source="STYy170UVrBewqX6tWQa-20">
          <mxGeometry relative="1" as="geometry">
            <mxPoint x="607" y="390" as="targetPoint" />
            <Array as="points">
              <mxPoint x="587" y="390" />
              <mxPoint x="587" y="390" />
            </Array>
          </mxGeometry>
        </mxCell>
        <mxCell id="XEA2S3gQdm62LOCSLKKb-6" value="4：addInfantService()" style="text;html=1;align=center;verticalAlign=middle;resizable=0;points=[];autosize=1;strokeColor=none;fillColor=none;fontSize=13;" vertex="1" parent="1">
          <mxGeometry x="432" y="360" width="150" height="30" as="geometry" />
        </mxCell>
        <mxCell id="XEA2S3gQdm62LOCSLKKb-8" value="5:insert()" style="text;html=1;align=center;verticalAlign=middle;resizable=0;points=[];autosize=1;strokeColor=none;fillColor=none;fontSize=13;" vertex="1" parent="1">
          <mxGeometry x="623" y="378" width="70" height="30" as="geometry" />
        </mxCell>
        <mxCell id="fysDTIgjO2Bx7yAoU0-C-3" style="edgeStyle=orthogonalEdgeStyle;rounded=0;orthogonalLoop=1;jettySize=auto;html=1;curved=0;exitX=0;exitY=1;exitDx=0;exitDy=-5;exitPerimeter=0;entryX=1;entryY=0;entryDx=0;entryDy=5;entryPerimeter=0;fontSize=13;" edge="1" parent="1" source="XEA2S3gQdm62LOCSLKKb-2" target="STYy170UVrBewqX6tWQa-6">
          <mxGeometry relative="1" as="geometry" />
        </mxCell>
        <mxCell id="fysDTIgjO2Bx7yAoU0-C-4" value="6: return()" style="text;html=1;align=center;verticalAlign=middle;resizable=0;points=[];autosize=1;strokeColor=none;fillColor=none;fontSize=13;" vertex="1" parent="1">
          <mxGeometry x="310" y="428" width="80" height="30" as="geometry" />
        </mxCell>
        <mxCell id="fysDTIgjO2Bx7yAoU0-C-6" value="7:&lt;span style=&quot;font-size: 13px;&quot;&gt;showInfantsList()&lt;/span&gt;" style="text;html=1;align=center;verticalAlign=middle;resizable=0;points=[];autosize=1;strokeColor=none;fillColor=none;fontSize=13;" vertex="1" parent="1">
          <mxGeometry x="220" y="518" width="130" height="30" as="geometry" />
        </mxCell>
        <mxCell id="fysDTIgjO2Bx7yAoU0-C-8" value="" style="rounded=0;orthogonalLoop=1;jettySize=auto;html=1;dashed=1;endArrow=none;endFill=0;fontSize=13;" edge="1" parent="1" source="STYy170UVrBewqX6tWQa-23" target="fysDTIgjO2Bx7yAoU0-C-7">
          <mxGeometry relative="1" as="geometry">
            <mxPoint y="580" as="targetPoint" />
            <mxPoint y="385" as="sourcePoint" />
          </mxGeometry>
        </mxCell>
        <mxCell id="fysDTIgjO2Bx7yAoU0-C-7" value="" style="html=1;points=[[0,0,0,0,5],[0,1,0,0,-5],[1,0,0,0,5],[1,1,0,0,-5]];perimeter=orthogonalPerimeter;outlineConnect=0;targetShapes=umlLifeline;portConstraint=eastwest;newEdgeStyle={&quot;curved&quot;:0,&quot;rounded&quot;:0};fontSize=13;" vertex="1" parent="1">
          <mxGeometry x="-4" y="535" width="10" height="30" as="geometry" />
        </mxCell>
        <mxCell id="fysDTIgjO2Bx7yAoU0-C-9" style="edgeStyle=orthogonalEdgeStyle;rounded=0;orthogonalLoop=1;jettySize=auto;html=1;curved=0;exitX=0;exitY=1;exitDx=0;exitDy=-5;exitPerimeter=0;entryX=1;entryY=0;entryDx=0;entryDy=5;entryPerimeter=0;fontSize=13;" edge="1" parent="1" source="STYy170UVrBewqX6tWQa-6" target="fysDTIgjO2Bx7yAoU0-C-7">
          <mxGeometry relative="1" as="geometry" />
        </mxCell>
        <mxCell id="fysDTIgjO2Bx7yAoU0-C-10" value="8：Prompts success()" style="text;html=1;align=center;verticalAlign=middle;resizable=0;points=[];autosize=1;strokeColor=none;fillColor=none;fontSize=13;" vertex="1" parent="1">
          <mxGeometry x="25" y="508" width="150" height="30" as="geometry" />
        </mxCell>
      </root>
    </mxGraphModel>
  </diagram>
  <diagram id="7yKKGwMYGF2VJiNDz-Tx" name="第 6 页">
    <mxGraphModel dx="1834" dy="738" grid="1" gridSize="10" guides="1" tooltips="1" connect="1" arrows="1" fold="1" page="0" pageScale="1" pageWidth="827" pageHeight="1169" math="0" shadow="0">
      <root>
        <mxCell id="0" />
        <mxCell id="1" parent="0" />
        <mxCell id="qfLlHYT7YolfxRG2qUOp-1" value=":User" style="shape=umlActor;verticalLabelPosition=bottom;verticalAlign=top;html=1;outlineConnect=0;fontSize=13;" vertex="1" parent="1">
          <mxGeometry x="-14" y="185" width="30" height="60" as="geometry" />
        </mxCell>
        <mxCell id="qfLlHYT7YolfxRG2qUOp-2" value="&lt;u style=&quot;font-size: 13px;&quot;&gt;&lt;b style=&quot;font-size: 13px;&quot;&gt;Infants page&lt;/b&gt;&lt;/u&gt;" style="shape=umlLifeline;perimeter=lifelinePerimeter;whiteSpace=wrap;html=1;container=1;dropTarget=0;collapsible=0;recursiveResize=0;outlineConnect=0;portConstraint=eastwest;newEdgeStyle={&quot;edgeStyle&quot;:&quot;elbowEdgeStyle&quot;,&quot;elbow&quot;:&quot;vertical&quot;,&quot;curved&quot;:0,&quot;rounded&quot;:0};fontSize=13;" vertex="1" parent="1">
          <mxGeometry x="151" y="185" width="100" height="385" as="geometry" />
        </mxCell>
        <mxCell id="qfLlHYT7YolfxRG2qUOp-3" value="" style="html=1;points=[[0,0,0,0,5],[0,1,0,0,-5],[1,0,0,0,5],[1,1,0,0,-5]];perimeter=orthogonalPerimeter;outlineConnect=0;targetShapes=umlLifeline;portConstraint=eastwest;newEdgeStyle={&quot;curved&quot;:0,&quot;rounded&quot;:0};fontSize=13;" vertex="1" parent="qfLlHYT7YolfxRG2qUOp-2">
          <mxGeometry x="45" y="90" width="10" height="40" as="geometry" />
        </mxCell>
        <mxCell id="qfLlHYT7YolfxRG2qUOp-4" value="" style="html=1;points=[[0,0,0,0,5],[0,1,0,0,-5],[1,0,0,0,5],[1,1,0,0,-5]];perimeter=orthogonalPerimeter;outlineConnect=0;targetShapes=umlLifeline;portConstraint=eastwest;newEdgeStyle={&quot;curved&quot;:0,&quot;rounded&quot;:0};fontSize=13;" vertex="1" parent="qfLlHYT7YolfxRG2qUOp-2">
          <mxGeometry x="45" y="270" width="10" height="90" as="geometry" />
        </mxCell>
        <mxCell id="qfLlHYT7YolfxRG2qUOp-5" style="edgeStyle=orthogonalEdgeStyle;rounded=0;orthogonalLoop=1;jettySize=auto;html=1;curved=0;exitX=1;exitY=0;exitDx=0;exitDy=5;exitPerimeter=0;fontSize=13;" edge="1" parent="qfLlHYT7YolfxRG2qUOp-2" source="qfLlHYT7YolfxRG2qUOp-4">
          <mxGeometry relative="1" as="geometry">
            <mxPoint x="55" y="335" as="targetPoint" />
            <Array as="points">
              <mxPoint x="55" y="305" />
              <mxPoint x="199" y="305" />
              <mxPoint x="199" y="335" />
            </Array>
          </mxGeometry>
        </mxCell>
        <mxCell id="qfLlHYT7YolfxRG2qUOp-6" value="" style="rounded=0;orthogonalLoop=1;jettySize=auto;html=1;dashed=1;endArrow=none;endFill=0;fontSize=13;" edge="1" parent="1" target="qfLlHYT7YolfxRG2qUOp-7">
          <mxGeometry relative="1" as="geometry">
            <mxPoint x="1" y="740" as="targetPoint" />
            <mxPoint y="270" as="sourcePoint" />
          </mxGeometry>
        </mxCell>
        <mxCell id="qfLlHYT7YolfxRG2qUOp-7" value="" style="html=1;points=[[0,0,0,0,5],[0,1,0,0,-5],[1,0,0,0,5],[1,1,0,0,-5]];perimeter=orthogonalPerimeter;outlineConnect=0;targetShapes=umlLifeline;portConstraint=eastwest;newEdgeStyle={&quot;curved&quot;:0,&quot;rounded&quot;:0};fontSize=13;" vertex="1" parent="1">
          <mxGeometry x="-4" y="275" width="10" height="30" as="geometry" />
        </mxCell>
        <mxCell id="qfLlHYT7YolfxRG2qUOp-8" style="edgeStyle=orthogonalEdgeStyle;rounded=0;orthogonalLoop=1;jettySize=auto;html=1;curved=0;exitX=1;exitY=0;exitDx=0;exitDy=5;exitPerimeter=0;entryX=0;entryY=0;entryDx=0;entryDy=5;entryPerimeter=0;endArrow=classic;endFill=1;fontSize=13;" edge="1" parent="1" source="qfLlHYT7YolfxRG2qUOp-7" target="qfLlHYT7YolfxRG2qUOp-3">
          <mxGeometry relative="1" as="geometry" />
        </mxCell>
        <mxCell id="qfLlHYT7YolfxRG2qUOp-9" value="1:Into" style="text;html=1;align=center;verticalAlign=middle;resizable=0;points=[];autosize=1;strokeColor=none;fillColor=none;fontSize=13;" vertex="1" parent="1">
          <mxGeometry x="55" y="250" width="60" height="30" as="geometry" />
        </mxCell>
        <mxCell id="qfLlHYT7YolfxRG2qUOp-10" value="" style="rounded=0;orthogonalLoop=1;jettySize=auto;html=1;dashed=1;endArrow=none;endFill=0;fontSize=13;" edge="1" parent="1" source="qfLlHYT7YolfxRG2qUOp-29">
          <mxGeometry relative="1" as="geometry">
            <mxPoint y="580" as="targetPoint" />
            <mxPoint x="1" y="305" as="sourcePoint" />
          </mxGeometry>
        </mxCell>
        <mxCell id="qfLlHYT7YolfxRG2qUOp-11" value="&lt;b style=&quot;font-size: 13px;&quot;&gt;&lt;u style=&quot;font-size: 13px;&quot;&gt;InfantInfoFrom Page&lt;/u&gt;&lt;/b&gt;" style="shape=umlLifeline;perimeter=lifelinePerimeter;whiteSpace=wrap;html=1;container=1;dropTarget=0;collapsible=0;recursiveResize=0;outlineConnect=0;portConstraint=eastwest;newEdgeStyle={&quot;edgeStyle&quot;:&quot;elbowEdgeStyle&quot;,&quot;elbow&quot;:&quot;vertical&quot;,&quot;curved&quot;:0,&quot;rounded&quot;:0};fontSize=13;" vertex="1" parent="1">
          <mxGeometry x="338" y="185" width="169" height="385" as="geometry" />
        </mxCell>
        <mxCell id="qfLlHYT7YolfxRG2qUOp-12" value="" style="html=1;points=[[0,0,0,0,5],[0,1,0,0,-5],[1,0,0,0,5],[1,1,0,0,-5]];perimeter=orthogonalPerimeter;outlineConnect=0;targetShapes=umlLifeline;portConstraint=eastwest;newEdgeStyle={&quot;curved&quot;:0,&quot;rounded&quot;:0};fontSize=13;" vertex="1" parent="qfLlHYT7YolfxRG2qUOp-11">
          <mxGeometry x="79.5" y="120" width="10" height="90" as="geometry" />
        </mxCell>
        <mxCell id="qfLlHYT7YolfxRG2qUOp-13" value="" style="rounded=0;orthogonalLoop=1;jettySize=auto;html=1;dashed=1;endArrow=none;endFill=0;fontSize=13;" edge="1" parent="1" source="qfLlHYT7YolfxRG2qUOp-7" target="qfLlHYT7YolfxRG2qUOp-15">
          <mxGeometry relative="1" as="geometry">
            <mxPoint y="630" as="targetPoint" />
            <mxPoint y="305" as="sourcePoint" />
          </mxGeometry>
        </mxCell>
        <mxCell id="qfLlHYT7YolfxRG2qUOp-14" style="edgeStyle=orthogonalEdgeStyle;rounded=0;orthogonalLoop=1;jettySize=auto;html=1;curved=0;exitX=1;exitY=0;exitDx=0;exitDy=5;exitPerimeter=0;entryX=0.05;entryY=0.611;entryDx=0;entryDy=0;entryPerimeter=0;fontSize=13;" edge="1" parent="1" source="qfLlHYT7YolfxRG2qUOp-15" target="qfLlHYT7YolfxRG2qUOp-12">
          <mxGeometry relative="1" as="geometry">
            <mxPoint x="500" y="360" as="targetPoint" />
          </mxGeometry>
        </mxCell>
        <mxCell id="qfLlHYT7YolfxRG2qUOp-15" value="" style="html=1;points=[[0,0,0,0,5],[0,1,0,0,-5],[1,0,0,0,5],[1,1,0,0,-5]];perimeter=orthogonalPerimeter;outlineConnect=0;targetShapes=umlLifeline;portConstraint=eastwest;newEdgeStyle={&quot;curved&quot;:0,&quot;rounded&quot;:0};fontSize=13;" vertex="1" parent="1">
          <mxGeometry x="-4" y="355" width="10" height="30" as="geometry" />
        </mxCell>
        <mxCell id="qfLlHYT7YolfxRG2qUOp-16" style="edgeStyle=orthogonalEdgeStyle;rounded=0;orthogonalLoop=1;jettySize=auto;html=1;curved=0;exitX=1;exitY=1;exitDx=0;exitDy=-5;exitPerimeter=0;entryX=0;entryY=0;entryDx=0;entryDy=5;entryPerimeter=0;fontSize=13;" edge="1" parent="1" source="qfLlHYT7YolfxRG2qUOp-3" target="qfLlHYT7YolfxRG2qUOp-12">
          <mxGeometry relative="1" as="geometry" />
        </mxCell>
        <mxCell id="qfLlHYT7YolfxRG2qUOp-17" value="2:toEditInfant(infantID)" style="text;html=1;align=center;verticalAlign=middle;resizable=0;points=[];autosize=1;strokeColor=none;fillColor=none;fontSize=13;" vertex="1" parent="1">
          <mxGeometry x="257" y="280" width="150" height="30" as="geometry" />
        </mxCell>
        <mxCell id="qfLlHYT7YolfxRG2qUOp-18" value="&lt;b style=&quot;font-size: 13px;&quot;&gt;&lt;u style=&quot;font-size: 13px;&quot;&gt;DBServer&lt;/u&gt;&lt;/b&gt;" style="shape=umlLifeline;perimeter=lifelinePerimeter;whiteSpace=wrap;html=1;container=1;dropTarget=0;collapsible=0;recursiveResize=0;outlineConnect=0;portConstraint=eastwest;newEdgeStyle={&quot;edgeStyle&quot;:&quot;elbowEdgeStyle&quot;,&quot;elbow&quot;:&quot;vertical&quot;,&quot;curved&quot;:0,&quot;rounded&quot;:0};fontSize=13;" vertex="1" parent="1">
          <mxGeometry x="563" y="185" width="100" height="385" as="geometry" />
        </mxCell>
        <mxCell id="qfLlHYT7YolfxRG2qUOp-19" style="edgeStyle=orthogonalEdgeStyle;rounded=0;orthogonalLoop=1;jettySize=auto;html=1;curved=0;exitX=1;exitY=0;exitDx=0;exitDy=5;exitPerimeter=0;fontSize=13;" edge="1" parent="qfLlHYT7YolfxRG2qUOp-18">
          <mxGeometry relative="1" as="geometry">
            <mxPoint x="55" y="220" as="sourcePoint" />
            <mxPoint x="55" y="248" as="targetPoint" />
            <Array as="points">
              <mxPoint x="120" y="220" />
              <mxPoint x="120" y="248" />
            </Array>
          </mxGeometry>
        </mxCell>
        <mxCell id="qfLlHYT7YolfxRG2qUOp-20" value="" style="html=1;points=[[0,0,0,0,5],[0,1,0,0,-5],[1,0,0,0,5],[1,1,0,0,-5]];perimeter=orthogonalPerimeter;outlineConnect=0;targetShapes=umlLifeline;portConstraint=eastwest;newEdgeStyle={&quot;curved&quot;:0,&quot;rounded&quot;:0};fontSize=13;" vertex="1" parent="qfLlHYT7YolfxRG2qUOp-18">
          <mxGeometry x="45" y="200" width="10" height="80" as="geometry" />
        </mxCell>
        <mxCell id="qfLlHYT7YolfxRG2qUOp-21" value="3:input infant information" style="text;html=1;align=center;verticalAlign=middle;resizable=0;points=[];autosize=1;strokeColor=none;fillColor=none;fontSize=13;" vertex="1" parent="1">
          <mxGeometry x="6" y="330" width="170" height="30" as="geometry" />
        </mxCell>
        <mxCell id="qfLlHYT7YolfxRG2qUOp-22" style="edgeStyle=orthogonalEdgeStyle;rounded=0;orthogonalLoop=1;jettySize=auto;html=1;curved=0;exitX=1;exitY=1;exitDx=0;exitDy=-5;exitPerimeter=0;fontSize=13;" edge="1" parent="1" source="qfLlHYT7YolfxRG2qUOp-12">
          <mxGeometry relative="1" as="geometry">
            <mxPoint x="607" y="390" as="targetPoint" />
            <Array as="points">
              <mxPoint x="587" y="390" />
              <mxPoint x="587" y="390" />
            </Array>
          </mxGeometry>
        </mxCell>
        <mxCell id="qfLlHYT7YolfxRG2qUOp-23" value="4：addInfantService(infantID)" style="text;html=1;align=center;verticalAlign=middle;resizable=0;points=[];autosize=1;strokeColor=none;fillColor=none;fontSize=13;" vertex="1" parent="1">
          <mxGeometry x="424" y="360" width="190" height="30" as="geometry" />
        </mxCell>
        <mxCell id="qfLlHYT7YolfxRG2qUOp-24" value="5:Set()" style="text;html=1;align=center;verticalAlign=middle;resizable=0;points=[];autosize=1;strokeColor=none;fillColor=none;fontSize=13;" vertex="1" parent="1">
          <mxGeometry x="628" y="378" width="60" height="30" as="geometry" />
        </mxCell>
        <mxCell id="qfLlHYT7YolfxRG2qUOp-25" style="edgeStyle=orthogonalEdgeStyle;rounded=0;orthogonalLoop=1;jettySize=auto;html=1;curved=0;exitX=0;exitY=1;exitDx=0;exitDy=-5;exitPerimeter=0;entryX=1;entryY=0;entryDx=0;entryDy=5;entryPerimeter=0;fontSize=13;" edge="1" parent="1" source="qfLlHYT7YolfxRG2qUOp-20" target="qfLlHYT7YolfxRG2qUOp-4">
          <mxGeometry relative="1" as="geometry" />
        </mxCell>
        <mxCell id="qfLlHYT7YolfxRG2qUOp-26" value="6: return()" style="text;html=1;align=center;verticalAlign=middle;resizable=0;points=[];autosize=1;strokeColor=none;fillColor=none;fontSize=13;" vertex="1" parent="1">
          <mxGeometry x="310" y="428" width="80" height="30" as="geometry" />
        </mxCell>
        <mxCell id="qfLlHYT7YolfxRG2qUOp-27" value="7:&lt;span style=&quot;font-size: 13px;&quot;&gt;showInfantsList()&lt;/span&gt;" style="text;html=1;align=center;verticalAlign=middle;resizable=0;points=[];autosize=1;strokeColor=none;fillColor=none;fontSize=13;" vertex="1" parent="1">
          <mxGeometry x="220" y="518" width="130" height="30" as="geometry" />
        </mxCell>
        <mxCell id="qfLlHYT7YolfxRG2qUOp-28" value="" style="rounded=0;orthogonalLoop=1;jettySize=auto;html=1;dashed=1;endArrow=none;endFill=0;fontSize=13;" edge="1" parent="1" source="qfLlHYT7YolfxRG2qUOp-15" target="qfLlHYT7YolfxRG2qUOp-29">
          <mxGeometry relative="1" as="geometry">
            <mxPoint y="580" as="targetPoint" />
            <mxPoint y="385" as="sourcePoint" />
          </mxGeometry>
        </mxCell>
        <mxCell id="qfLlHYT7YolfxRG2qUOp-29" value="" style="html=1;points=[[0,0,0,0,5],[0,1,0,0,-5],[1,0,0,0,5],[1,1,0,0,-5]];perimeter=orthogonalPerimeter;outlineConnect=0;targetShapes=umlLifeline;portConstraint=eastwest;newEdgeStyle={&quot;curved&quot;:0,&quot;rounded&quot;:0};fontSize=13;" vertex="1" parent="1">
          <mxGeometry x="-4" y="535" width="10" height="30" as="geometry" />
        </mxCell>
        <mxCell id="qfLlHYT7YolfxRG2qUOp-30" style="edgeStyle=orthogonalEdgeStyle;rounded=0;orthogonalLoop=1;jettySize=auto;html=1;curved=0;exitX=0;exitY=1;exitDx=0;exitDy=-5;exitPerimeter=0;entryX=1;entryY=0;entryDx=0;entryDy=5;entryPerimeter=0;fontSize=13;" edge="1" parent="1" source="qfLlHYT7YolfxRG2qUOp-4" target="qfLlHYT7YolfxRG2qUOp-29">
          <mxGeometry relative="1" as="geometry" />
        </mxCell>
        <mxCell id="qfLlHYT7YolfxRG2qUOp-31" value="8：Prompts success()" style="text;html=1;align=center;verticalAlign=middle;resizable=0;points=[];autosize=1;strokeColor=none;fillColor=none;fontSize=13;" vertex="1" parent="1">
          <mxGeometry x="25" y="508" width="150" height="30" as="geometry" />
        </mxCell>
      </root>
    </mxGraphModel>
  </diagram>
  <diagram id="BhyyMseNskQUsoXocLzK" name="第 7 页">
    <mxGraphModel dx="1834" dy="738" grid="1" gridSize="10" guides="1" tooltips="1" connect="1" arrows="1" fold="1" page="0" pageScale="1" pageWidth="827" pageHeight="1169" math="0" shadow="0">
      <root>
        <mxCell id="0" />
        <mxCell id="1" parent="0" />
        <mxCell id="dbexcSr5xFepU4N81mYS-1" value=":User" style="shape=umlActor;verticalLabelPosition=bottom;verticalAlign=top;html=1;outlineConnect=0;fontSize=13;" vertex="1" parent="1">
          <mxGeometry x="-14" y="185" width="30" height="60" as="geometry" />
        </mxCell>
        <mxCell id="dbexcSr5xFepU4N81mYS-2" value="&lt;u style=&quot;font-size: 13px;&quot;&gt;&lt;b style=&quot;font-size: 13px;&quot;&gt;Infants page&lt;/b&gt;&lt;/u&gt;" style="shape=umlLifeline;perimeter=lifelinePerimeter;whiteSpace=wrap;html=1;container=1;dropTarget=0;collapsible=0;recursiveResize=0;outlineConnect=0;portConstraint=eastwest;newEdgeStyle={&quot;edgeStyle&quot;:&quot;elbowEdgeStyle&quot;,&quot;elbow&quot;:&quot;vertical&quot;,&quot;curved&quot;:0,&quot;rounded&quot;:0};fontSize=13;" vertex="1" parent="1">
          <mxGeometry x="151" y="185" width="100" height="505" as="geometry" />
        </mxCell>
        <mxCell id="dbexcSr5xFepU4N81mYS-3" value="" style="html=1;points=[[0,0,0,0,5],[0,1,0,0,-5],[1,0,0,0,5],[1,1,0,0,-5]];perimeter=orthogonalPerimeter;outlineConnect=0;targetShapes=umlLifeline;portConstraint=eastwest;newEdgeStyle={&quot;curved&quot;:0,&quot;rounded&quot;:0};fontSize=13;" vertex="1" parent="dbexcSr5xFepU4N81mYS-2">
          <mxGeometry x="45" y="90" width="10" height="40" as="geometry" />
        </mxCell>
        <mxCell id="dbexcSr5xFepU4N81mYS-4" value="" style="html=1;points=[[0,0,0,0,5],[0,1,0,0,-5],[1,0,0,0,5],[1,1,0,0,-5]];perimeter=orthogonalPerimeter;outlineConnect=0;targetShapes=umlLifeline;portConstraint=eastwest;newEdgeStyle={&quot;curved&quot;:0,&quot;rounded&quot;:0};fontSize=13;" vertex="1" parent="dbexcSr5xFepU4N81mYS-2">
          <mxGeometry x="45" y="330" width="10" height="90" as="geometry" />
        </mxCell>
        <mxCell id="dbexcSr5xFepU4N81mYS-6" value="" style="rounded=0;orthogonalLoop=1;jettySize=auto;html=1;dashed=1;endArrow=none;endFill=0;fontSize=13;" edge="1" parent="1" target="dbexcSr5xFepU4N81mYS-7">
          <mxGeometry relative="1" as="geometry">
            <mxPoint x="1" y="740" as="targetPoint" />
            <mxPoint y="270" as="sourcePoint" />
          </mxGeometry>
        </mxCell>
        <mxCell id="dbexcSr5xFepU4N81mYS-7" value="" style="html=1;points=[[0,0,0,0,5],[0,1,0,0,-5],[1,0,0,0,5],[1,1,0,0,-5]];perimeter=orthogonalPerimeter;outlineConnect=0;targetShapes=umlLifeline;portConstraint=eastwest;newEdgeStyle={&quot;curved&quot;:0,&quot;rounded&quot;:0};fontSize=13;" vertex="1" parent="1">
          <mxGeometry x="-4" y="275" width="10" height="30" as="geometry" />
        </mxCell>
        <mxCell id="dbexcSr5xFepU4N81mYS-8" style="edgeStyle=orthogonalEdgeStyle;rounded=0;orthogonalLoop=1;jettySize=auto;html=1;curved=0;exitX=1;exitY=0;exitDx=0;exitDy=5;exitPerimeter=0;entryX=0;entryY=0;entryDx=0;entryDy=5;entryPerimeter=0;endArrow=classic;endFill=1;fontSize=13;" edge="1" parent="1" source="dbexcSr5xFepU4N81mYS-7" target="dbexcSr5xFepU4N81mYS-3">
          <mxGeometry relative="1" as="geometry" />
        </mxCell>
        <mxCell id="dbexcSr5xFepU4N81mYS-9" value="1:Into" style="text;html=1;align=center;verticalAlign=middle;resizable=0;points=[];autosize=1;strokeColor=none;fillColor=none;fontSize=13;" vertex="1" parent="1">
          <mxGeometry x="55" y="250" width="60" height="30" as="geometry" />
        </mxCell>
        <mxCell id="dbexcSr5xFepU4N81mYS-10" value="" style="rounded=0;orthogonalLoop=1;jettySize=auto;html=1;dashed=1;endArrow=none;endFill=0;fontSize=13;" edge="1" parent="1" source="dbexcSr5xFepU4N81mYS-29">
          <mxGeometry relative="1" as="geometry">
            <mxPoint y="630" as="targetPoint" />
            <mxPoint x="1" y="305" as="sourcePoint" />
          </mxGeometry>
        </mxCell>
        <mxCell id="dbexcSr5xFepU4N81mYS-11" value="&lt;b style=&quot;font-size: 13px;&quot;&gt;&lt;u style=&quot;font-size: 13px;&quot;&gt;bindInfant Modal&lt;/u&gt;&lt;/b&gt;" style="shape=umlLifeline;perimeter=lifelinePerimeter;whiteSpace=wrap;html=1;container=1;dropTarget=0;collapsible=0;recursiveResize=0;outlineConnect=0;portConstraint=eastwest;newEdgeStyle={&quot;edgeStyle&quot;:&quot;elbowEdgeStyle&quot;,&quot;elbow&quot;:&quot;vertical&quot;,&quot;curved&quot;:0,&quot;rounded&quot;:0};fontSize=13;" vertex="1" parent="1">
          <mxGeometry x="338" y="185" width="169" height="385" as="geometry" />
        </mxCell>
        <mxCell id="dbexcSr5xFepU4N81mYS-12" value="" style="html=1;points=[[0,0,0,0,5],[0,1,0,0,-5],[1,0,0,0,5],[1,1,0,0,-5]];perimeter=orthogonalPerimeter;outlineConnect=0;targetShapes=umlLifeline;portConstraint=eastwest;newEdgeStyle={&quot;curved&quot;:0,&quot;rounded&quot;:0};fontSize=13;" vertex="1" parent="dbexcSr5xFepU4N81mYS-11">
          <mxGeometry x="79.5" y="120" width="10" height="90" as="geometry" />
        </mxCell>
        <mxCell id="dbexcSr5xFepU4N81mYS-13" value="" style="rounded=0;orthogonalLoop=1;jettySize=auto;html=1;dashed=1;endArrow=none;endFill=0;fontSize=13;" edge="1" parent="1" source="dbexcSr5xFepU4N81mYS-7" target="dbexcSr5xFepU4N81mYS-15">
          <mxGeometry relative="1" as="geometry">
            <mxPoint y="630" as="targetPoint" />
            <mxPoint y="305" as="sourcePoint" />
          </mxGeometry>
        </mxCell>
        <mxCell id="dbexcSr5xFepU4N81mYS-14" style="edgeStyle=orthogonalEdgeStyle;rounded=0;orthogonalLoop=1;jettySize=auto;html=1;curved=0;exitX=1;exitY=0;exitDx=0;exitDy=5;exitPerimeter=0;entryX=0.05;entryY=0.611;entryDx=0;entryDy=0;entryPerimeter=0;fontSize=13;" edge="1" parent="1" source="dbexcSr5xFepU4N81mYS-15" target="dbexcSr5xFepU4N81mYS-12">
          <mxGeometry relative="1" as="geometry">
            <mxPoint x="500" y="360" as="targetPoint" />
          </mxGeometry>
        </mxCell>
        <mxCell id="dbexcSr5xFepU4N81mYS-15" value="" style="html=1;points=[[0,0,0,0,5],[0,1,0,0,-5],[1,0,0,0,5],[1,1,0,0,-5]];perimeter=orthogonalPerimeter;outlineConnect=0;targetShapes=umlLifeline;portConstraint=eastwest;newEdgeStyle={&quot;curved&quot;:0,&quot;rounded&quot;:0};fontSize=13;" vertex="1" parent="1">
          <mxGeometry x="-4" y="355" width="10" height="30" as="geometry" />
        </mxCell>
        <mxCell id="dbexcSr5xFepU4N81mYS-16" style="edgeStyle=orthogonalEdgeStyle;rounded=0;orthogonalLoop=1;jettySize=auto;html=1;curved=0;exitX=1;exitY=1;exitDx=0;exitDy=-5;exitPerimeter=0;entryX=0;entryY=0;entryDx=0;entryDy=5;entryPerimeter=0;fontSize=13;" edge="1" parent="1" source="dbexcSr5xFepU4N81mYS-3" target="dbexcSr5xFepU4N81mYS-12">
          <mxGeometry relative="1" as="geometry" />
        </mxCell>
        <mxCell id="dbexcSr5xFepU4N81mYS-17" value="2:showBindInfantModal()" style="text;html=1;align=center;verticalAlign=middle;resizable=0;points=[];autosize=1;strokeColor=none;fillColor=none;fontSize=13;" vertex="1" parent="1">
          <mxGeometry x="238" y="280" width="170" height="30" as="geometry" />
        </mxCell>
        <mxCell id="dbexcSr5xFepU4N81mYS-18" value="&lt;b style=&quot;font-size: 13px;&quot;&gt;&lt;u style=&quot;font-size: 13px;&quot;&gt;DBServer&lt;/u&gt;&lt;/b&gt;" style="shape=umlLifeline;perimeter=lifelinePerimeter;whiteSpace=wrap;html=1;container=1;dropTarget=0;collapsible=0;recursiveResize=0;outlineConnect=0;portConstraint=eastwest;newEdgeStyle={&quot;edgeStyle&quot;:&quot;elbowEdgeStyle&quot;,&quot;elbow&quot;:&quot;vertical&quot;,&quot;curved&quot;:0,&quot;rounded&quot;:0};fontSize=13;" vertex="1" parent="1">
          <mxGeometry x="563" y="185" width="100" height="385" as="geometry" />
        </mxCell>
        <mxCell id="dbexcSr5xFepU4N81mYS-19" style="edgeStyle=orthogonalEdgeStyle;rounded=0;orthogonalLoop=1;jettySize=auto;html=1;curved=0;exitX=1;exitY=0;exitDx=0;exitDy=5;exitPerimeter=0;fontSize=13;" edge="1" parent="dbexcSr5xFepU4N81mYS-18">
          <mxGeometry relative="1" as="geometry">
            <mxPoint x="55" y="220" as="sourcePoint" />
            <mxPoint x="55" y="248" as="targetPoint" />
            <Array as="points">
              <mxPoint x="120" y="220" />
              <mxPoint x="120" y="248" />
            </Array>
          </mxGeometry>
        </mxCell>
        <mxCell id="dbexcSr5xFepU4N81mYS-20" value="" style="html=1;points=[[0,0,0,0,5],[0,1,0,0,-5],[1,0,0,0,5],[1,1,0,0,-5]];perimeter=orthogonalPerimeter;outlineConnect=0;targetShapes=umlLifeline;portConstraint=eastwest;newEdgeStyle={&quot;curved&quot;:0,&quot;rounded&quot;:0};fontSize=13;" vertex="1" parent="dbexcSr5xFepU4N81mYS-18">
          <mxGeometry x="45" y="200" width="10" height="140" as="geometry" />
        </mxCell>
        <mxCell id="dbexcSr5xFepU4N81mYS-21" value="3:input infantID and Role" style="text;html=1;align=center;verticalAlign=middle;resizable=0;points=[];autosize=1;strokeColor=none;fillColor=none;fontSize=13;" vertex="1" parent="1">
          <mxGeometry x="15" y="330" width="170" height="30" as="geometry" />
        </mxCell>
        <mxCell id="dbexcSr5xFepU4N81mYS-22" style="edgeStyle=orthogonalEdgeStyle;rounded=0;orthogonalLoop=1;jettySize=auto;html=1;curved=0;exitX=1;exitY=1;exitDx=0;exitDy=-5;exitPerimeter=0;fontSize=13;" edge="1" parent="1" source="dbexcSr5xFepU4N81mYS-12">
          <mxGeometry relative="1" as="geometry">
            <mxPoint x="607" y="390" as="targetPoint" />
            <Array as="points">
              <mxPoint x="587" y="390" />
              <mxPoint x="587" y="390" />
            </Array>
          </mxGeometry>
        </mxCell>
        <mxCell id="dbexcSr5xFepU4N81mYS-23" value="4：bindInfantService()" style="text;html=1;align=center;verticalAlign=middle;resizable=0;points=[];autosize=1;strokeColor=none;fillColor=none;fontSize=13;" vertex="1" parent="1">
          <mxGeometry x="444" y="360" width="150" height="30" as="geometry" />
        </mxCell>
        <mxCell id="dbexcSr5xFepU4N81mYS-24" value="5:Query()" style="text;html=1;align=center;verticalAlign=middle;resizable=0;points=[];autosize=1;strokeColor=none;fillColor=none;fontSize=13;" vertex="1" parent="1">
          <mxGeometry x="618" y="378" width="80" height="30" as="geometry" />
        </mxCell>
        <mxCell id="dbexcSr5xFepU4N81mYS-25" style="edgeStyle=orthogonalEdgeStyle;rounded=0;orthogonalLoop=1;jettySize=auto;html=1;curved=0;exitX=0;exitY=1;exitDx=0;exitDy=-5;exitPerimeter=0;entryX=1;entryY=0;entryDx=0;entryDy=5;entryPerimeter=0;fontSize=13;" edge="1" parent="1" source="dbexcSr5xFepU4N81mYS-20" target="dbexcSr5xFepU4N81mYS-4">
          <mxGeometry relative="1" as="geometry" />
        </mxCell>
        <mxCell id="dbexcSr5xFepU4N81mYS-26" value="7: return()" style="text;html=1;align=center;verticalAlign=middle;resizable=0;points=[];autosize=1;strokeColor=none;fillColor=none;fontSize=13;" vertex="1" parent="1">
          <mxGeometry x="320" y="486" width="80" height="30" as="geometry" />
        </mxCell>
        <mxCell id="dbexcSr5xFepU4N81mYS-27" value="8:&lt;span style=&quot;font-size: 13px;&quot;&gt;showInfantsList()&lt;/span&gt;" style="text;html=1;align=center;verticalAlign=middle;resizable=0;points=[];autosize=1;strokeColor=none;fillColor=none;fontSize=13;" vertex="1" parent="1">
          <mxGeometry x="210" y="580" width="130" height="30" as="geometry" />
        </mxCell>
        <mxCell id="dbexcSr5xFepU4N81mYS-28" value="" style="rounded=0;orthogonalLoop=1;jettySize=auto;html=1;dashed=1;endArrow=none;endFill=0;fontSize=13;" edge="1" parent="1" source="dbexcSr5xFepU4N81mYS-15" target="dbexcSr5xFepU4N81mYS-29">
          <mxGeometry relative="1" as="geometry">
            <mxPoint y="580" as="targetPoint" />
            <mxPoint y="385" as="sourcePoint" />
          </mxGeometry>
        </mxCell>
        <mxCell id="dbexcSr5xFepU4N81mYS-29" value="" style="html=1;points=[[0,0,0,0,5],[0,1,0,0,-5],[1,0,0,0,5],[1,1,0,0,-5]];perimeter=orthogonalPerimeter;outlineConnect=0;targetShapes=umlLifeline;portConstraint=eastwest;newEdgeStyle={&quot;curved&quot;:0,&quot;rounded&quot;:0};fontSize=13;" vertex="1" parent="1">
          <mxGeometry x="-4" y="595" width="10" height="30" as="geometry" />
        </mxCell>
        <mxCell id="dbexcSr5xFepU4N81mYS-30" style="edgeStyle=orthogonalEdgeStyle;rounded=0;orthogonalLoop=1;jettySize=auto;html=1;curved=0;exitX=0;exitY=1;exitDx=0;exitDy=-5;exitPerimeter=0;entryX=1;entryY=0;entryDx=0;entryDy=5;entryPerimeter=0;fontSize=13;" edge="1" parent="1" source="dbexcSr5xFepU4N81mYS-4" target="dbexcSr5xFepU4N81mYS-29">
          <mxGeometry relative="1" as="geometry" />
        </mxCell>
        <mxCell id="dbexcSr5xFepU4N81mYS-31" value="9：Prompts msg()" style="text;html=1;align=center;verticalAlign=middle;resizable=0;points=[];autosize=1;strokeColor=none;fillColor=none;fontSize=13;" vertex="1" parent="1">
          <mxGeometry x="35" y="570" width="130" height="30" as="geometry" />
        </mxCell>
        <mxCell id="dbexcSr5xFepU4N81mYS-32" style="edgeStyle=orthogonalEdgeStyle;rounded=0;orthogonalLoop=1;jettySize=auto;html=1;curved=0;exitX=1;exitY=0;exitDx=0;exitDy=5;exitPerimeter=0;fontSize=13;" edge="1" parent="1">
          <mxGeometry relative="1" as="geometry">
            <mxPoint x="617" y="483" as="sourcePoint" />
            <mxPoint x="617" y="511" as="targetPoint" />
            <Array as="points">
              <mxPoint x="682" y="483" />
              <mxPoint x="682" y="511" />
            </Array>
          </mxGeometry>
        </mxCell>
        <mxCell id="dbexcSr5xFepU4N81mYS-33" value="6:Set()" style="text;html=1;align=center;verticalAlign=middle;resizable=0;points=[];autosize=1;strokeColor=none;fillColor=none;fontSize=13;" vertex="1" parent="1">
          <mxGeometry x="627" y="456" width="60" height="30" as="geometry" />
        </mxCell>
        <mxCell id="dbexcSr5xFepU4N81mYS-35" style="edgeStyle=orthogonalEdgeStyle;rounded=0;orthogonalLoop=1;jettySize=auto;html=1;curved=0;entryX=-0.023;entryY=0.9;entryDx=0;entryDy=0;entryPerimeter=0;fontSize=13;" edge="1" parent="1">
          <mxGeometry relative="1" as="geometry">
            <mxPoint x="206" y="578" as="targetPoint" />
            <mxPoint x="206" y="550" as="sourcePoint" />
            <Array as="points">
              <mxPoint x="296" y="550" />
              <mxPoint x="296" y="578" />
            </Array>
          </mxGeometry>
        </mxCell>
      </root>
    </mxGraphModel>
  </diagram>
  <diagram id="eWCtBycjUdU6rMz7lOcT" name="第 8 页">
    <mxGraphModel dx="1834" dy="738" grid="1" gridSize="10" guides="1" tooltips="1" connect="1" arrows="1" fold="1" page="0" pageScale="1" pageWidth="827" pageHeight="1169" math="0" shadow="0">
      <root>
        <mxCell id="0" />
        <mxCell id="1" parent="0" />
        <mxCell id="_RsmzDXVBHwmU9yKw3Uq-1" value=":User" style="shape=umlActor;verticalLabelPosition=bottom;verticalAlign=top;html=1;outlineConnect=0;fontSize=13;" vertex="1" parent="1">
          <mxGeometry x="-4" y="195" width="30" height="60" as="geometry" />
        </mxCell>
        <mxCell id="_RsmzDXVBHwmU9yKw3Uq-2" value="&lt;u style=&quot;font-size: 13px;&quot;&gt;&lt;b style=&quot;font-size: 13px;&quot;&gt;Home page&lt;/b&gt;&lt;/u&gt;" style="shape=umlLifeline;perimeter=lifelinePerimeter;whiteSpace=wrap;html=1;container=1;dropTarget=0;collapsible=0;recursiveResize=0;outlineConnect=0;portConstraint=eastwest;newEdgeStyle={&quot;edgeStyle&quot;:&quot;elbowEdgeStyle&quot;,&quot;elbow&quot;:&quot;vertical&quot;,&quot;curved&quot;:0,&quot;rounded&quot;:0};fontSize=13;" vertex="1" parent="1">
          <mxGeometry x="161" y="195" width="100" height="555" as="geometry" />
        </mxCell>
        <mxCell id="_RsmzDXVBHwmU9yKw3Uq-3" value="" style="html=1;points=[[0,0,0,0,5],[0,1,0,0,-5],[1,0,0,0,5],[1,1,0,0,-5]];perimeter=orthogonalPerimeter;outlineConnect=0;targetShapes=umlLifeline;portConstraint=eastwest;newEdgeStyle={&quot;curved&quot;:0,&quot;rounded&quot;:0};fontSize=13;" vertex="1" parent="_RsmzDXVBHwmU9yKw3Uq-2">
          <mxGeometry x="45" y="90" width="10" height="160" as="geometry" />
        </mxCell>
        <mxCell id="_RsmzDXVBHwmU9yKw3Uq-6" value="" style="rounded=0;orthogonalLoop=1;jettySize=auto;html=1;dashed=1;endArrow=none;endFill=0;fontSize=13;" edge="1" parent="1" target="_RsmzDXVBHwmU9yKw3Uq-7">
          <mxGeometry relative="1" as="geometry">
            <mxPoint x="11" y="750" as="targetPoint" />
            <mxPoint x="10" y="280" as="sourcePoint" />
          </mxGeometry>
        </mxCell>
        <mxCell id="_RsmzDXVBHwmU9yKw3Uq-7" value="" style="html=1;points=[[0,0,0,0,5],[0,1,0,0,-5],[1,0,0,0,5],[1,1,0,0,-5]];perimeter=orthogonalPerimeter;outlineConnect=0;targetShapes=umlLifeline;portConstraint=eastwest;newEdgeStyle={&quot;curved&quot;:0,&quot;rounded&quot;:0};fontSize=13;" vertex="1" parent="1">
          <mxGeometry x="6" y="285" width="10" height="30" as="geometry" />
        </mxCell>
        <mxCell id="_RsmzDXVBHwmU9yKw3Uq-8" style="edgeStyle=orthogonalEdgeStyle;rounded=0;orthogonalLoop=1;jettySize=auto;html=1;curved=0;exitX=1;exitY=0;exitDx=0;exitDy=5;exitPerimeter=0;entryX=0;entryY=0;entryDx=0;entryDy=5;entryPerimeter=0;endArrow=classic;endFill=1;fontSize=13;" edge="1" parent="1" source="_RsmzDXVBHwmU9yKw3Uq-7" target="_RsmzDXVBHwmU9yKw3Uq-3">
          <mxGeometry relative="1" as="geometry" />
        </mxCell>
        <mxCell id="_RsmzDXVBHwmU9yKw3Uq-9" value="1:Into" style="text;html=1;align=center;verticalAlign=middle;resizable=0;points=[];autosize=1;strokeColor=none;fillColor=none;fontSize=13;" vertex="1" parent="1">
          <mxGeometry x="65" y="260" width="60" height="30" as="geometry" />
        </mxCell>
        <mxCell id="_RsmzDXVBHwmU9yKw3Uq-10" value="&lt;b style=&quot;font-size: 13px;&quot;&gt;&lt;u style=&quot;font-size: 13px;&quot;&gt;DBServer&lt;/u&gt;&lt;/b&gt;" style="shape=umlLifeline;perimeter=lifelinePerimeter;whiteSpace=wrap;html=1;container=1;dropTarget=0;collapsible=0;recursiveResize=0;outlineConnect=0;portConstraint=eastwest;newEdgeStyle={&quot;edgeStyle&quot;:&quot;elbowEdgeStyle&quot;,&quot;elbow&quot;:&quot;vertical&quot;,&quot;curved&quot;:0,&quot;rounded&quot;:0};fontSize=13;" vertex="1" parent="1">
          <mxGeometry x="348" y="195" width="169" height="555" as="geometry" />
        </mxCell>
        <mxCell id="_RsmzDXVBHwmU9yKw3Uq-11" value="" style="html=1;points=[[0,0,0,0,5],[0,1,0,0,-5],[1,0,0,0,5],[1,1,0,0,-5]];perimeter=orthogonalPerimeter;outlineConnect=0;targetShapes=umlLifeline;portConstraint=eastwest;newEdgeStyle={&quot;curved&quot;:0,&quot;rounded&quot;:0};fontSize=13;" vertex="1" parent="_RsmzDXVBHwmU9yKw3Uq-10">
          <mxGeometry x="79.5" y="115" width="10" height="155" as="geometry" />
        </mxCell>
        <mxCell id="_RsmzDXVBHwmU9yKw3Uq-37" value="" style="html=1;points=[[0,0,0,0,5],[0,1,0,0,-5],[1,0,0,0,5],[1,1,0,0,-5]];perimeter=orthogonalPerimeter;outlineConnect=0;targetShapes=umlLifeline;portConstraint=eastwest;newEdgeStyle={&quot;curved&quot;:0,&quot;rounded&quot;:0};fontSize=13;" vertex="1" parent="_RsmzDXVBHwmU9yKw3Uq-10">
          <mxGeometry x="79.5" y="348" width="10" height="123" as="geometry" />
        </mxCell>
        <mxCell id="_RsmzDXVBHwmU9yKw3Uq-13" value="" style="rounded=0;orthogonalLoop=1;jettySize=auto;html=1;dashed=1;endArrow=none;endFill=0;fontSize=13;" edge="1" parent="1" source="_RsmzDXVBHwmU9yKw3Uq-7">
          <mxGeometry relative="1" as="geometry">
            <mxPoint x="11" y="365" as="targetPoint" />
            <mxPoint x="10" y="315" as="sourcePoint" />
          </mxGeometry>
        </mxCell>
        <mxCell id="_RsmzDXVBHwmU9yKw3Uq-14" value="2:getInfantsService(userID)" style="text;html=1;align=center;verticalAlign=middle;resizable=0;points=[];autosize=1;strokeColor=none;fillColor=none;fontSize=13;" vertex="1" parent="1">
          <mxGeometry x="225" y="285" width="180" height="30" as="geometry" />
        </mxCell>
        <mxCell id="_RsmzDXVBHwmU9yKw3Uq-16" value="5:&lt;span style=&quot;font-size: 13px;&quot;&gt;showInfantsList()&lt;/span&gt;" style="text;html=1;align=center;verticalAlign=middle;resizable=0;points=[];autosize=1;strokeColor=none;fillColor=none;fontSize=13;" vertex="1" parent="1">
          <mxGeometry x="213" y="378" width="130" height="30" as="geometry" />
        </mxCell>
        <mxCell id="_RsmzDXVBHwmU9yKw3Uq-17" value="" style="rounded=0;orthogonalLoop=1;jettySize=auto;html=1;dashed=1;endArrow=none;endFill=0;fontSize=13;" edge="1" parent="1" source="_RsmzDXVBHwmU9yKw3Uq-25">
          <mxGeometry relative="1" as="geometry">
            <mxPoint x="10" y="738" as="targetPoint" />
            <mxPoint x="11" y="411" as="sourcePoint" />
          </mxGeometry>
        </mxCell>
        <mxCell id="_RsmzDXVBHwmU9yKw3Uq-19" style="edgeStyle=orthogonalEdgeStyle;rounded=0;orthogonalLoop=1;jettySize=auto;html=1;curved=0;exitX=1;exitY=0;exitDx=0;exitDy=5;exitPerimeter=0;fontSize=13;" edge="1" parent="1">
          <mxGeometry relative="1" as="geometry">
            <mxPoint x="440" y="330" as="sourcePoint" />
            <mxPoint x="440" y="358" as="targetPoint" />
            <Array as="points">
              <mxPoint x="505" y="330" />
              <mxPoint x="505" y="358" />
            </Array>
          </mxGeometry>
        </mxCell>
        <mxCell id="_RsmzDXVBHwmU9yKw3Uq-20" style="rounded=0;orthogonalLoop=1;jettySize=auto;html=1;entryX=0;entryY=0;entryDx=0;entryDy=5;entryPerimeter=0;fontSize=13;" edge="1" parent="1" source="_RsmzDXVBHwmU9yKw3Uq-3" target="_RsmzDXVBHwmU9yKw3Uq-11">
          <mxGeometry relative="1" as="geometry">
            <mxPoint x="220" y="310" as="sourcePoint" />
          </mxGeometry>
        </mxCell>
        <mxCell id="_RsmzDXVBHwmU9yKw3Uq-21" value="3:Query()" style="text;html=1;align=center;verticalAlign=middle;resizable=0;points=[];autosize=1;strokeColor=none;fillColor=none;fontSize=13;" vertex="1" parent="1">
          <mxGeometry x="440" y="300" width="80" height="30" as="geometry" />
        </mxCell>
        <mxCell id="_RsmzDXVBHwmU9yKw3Uq-22" style="rounded=0;orthogonalLoop=1;jettySize=auto;html=1;exitX=0;exitY=0;exitDx=0;exitDy=5;exitPerimeter=0;fontSize=13;" edge="1" parent="1">
          <mxGeometry relative="1" as="geometry">
            <mxPoint x="427.5" y="377" as="sourcePoint" />
            <mxPoint x="216" y="377" as="targetPoint" />
          </mxGeometry>
        </mxCell>
        <mxCell id="_RsmzDXVBHwmU9yKw3Uq-23" value="4:return()" style="text;html=1;align=center;verticalAlign=middle;resizable=0;points=[];autosize=1;strokeColor=none;fillColor=none;fontSize=13;" vertex="1" parent="1">
          <mxGeometry x="270" y="345" width="80" height="30" as="geometry" />
        </mxCell>
        <mxCell id="_RsmzDXVBHwmU9yKw3Uq-24" value="" style="rounded=0;orthogonalLoop=1;jettySize=auto;html=1;dashed=1;endArrow=none;endFill=0;fontSize=13;" edge="1" parent="1" target="_RsmzDXVBHwmU9yKw3Uq-25">
          <mxGeometry relative="1" as="geometry">
            <mxPoint x="10" y="650" as="targetPoint" />
            <mxPoint x="11" y="363" as="sourcePoint" />
          </mxGeometry>
        </mxCell>
        <mxCell id="_RsmzDXVBHwmU9yKw3Uq-25" value="" style="html=1;points=[[0,0,0,0,5],[0,1,0,0,-5],[1,0,0,0,5],[1,1,0,0,-5]];perimeter=orthogonalPerimeter;outlineConnect=0;targetShapes=umlLifeline;portConstraint=eastwest;newEdgeStyle={&quot;curved&quot;:0,&quot;rounded&quot;:0};fontSize=13;" vertex="1" parent="1">
          <mxGeometry x="6" y="508" width="10" height="43" as="geometry" />
        </mxCell>
        <mxCell id="_RsmzDXVBHwmU9yKw3Uq-26" style="edgeStyle=orthogonalEdgeStyle;rounded=0;orthogonalLoop=1;jettySize=auto;html=1;curved=0;exitX=1;exitY=0;exitDx=0;exitDy=5;exitPerimeter=0;entryX=0;entryY=0;entryDx=0;entryDy=5;entryPerimeter=0;fontSize=13;" edge="1" parent="1" source="_RsmzDXVBHwmU9yKw3Uq-25" target="_RsmzDXVBHwmU9yKw3Uq-36">
          <mxGeometry relative="1" as="geometry">
            <mxPoint x="206" y="513" as="targetPoint" />
          </mxGeometry>
        </mxCell>
        <mxCell id="_RsmzDXVBHwmU9yKw3Uq-27" value="10:toMonitorInfant(infantID)" style="text;html=1;align=center;verticalAlign=middle;resizable=0;points=[];autosize=1;strokeColor=none;fillColor=none;fontSize=13;" vertex="1" parent="1">
          <mxGeometry x="245" y="478" width="180" height="30" as="geometry" />
        </mxCell>
        <mxCell id="_RsmzDXVBHwmU9yKw3Uq-33" style="edgeStyle=orthogonalEdgeStyle;rounded=0;orthogonalLoop=1;jettySize=auto;html=1;curved=0;exitX=1;exitY=0;exitDx=0;exitDy=5;exitPerimeter=0;fontSize=13;" edge="1" parent="1">
          <mxGeometry relative="1" as="geometry">
            <mxPoint x="217" y="404" as="sourcePoint" />
            <mxPoint x="217" y="432" as="targetPoint" />
            <Array as="points">
              <mxPoint x="282" y="404" />
              <mxPoint x="282" y="432" />
            </Array>
          </mxGeometry>
        </mxCell>
        <mxCell id="_RsmzDXVBHwmU9yKw3Uq-35" value="&lt;b style=&quot;font-size: 13px;&quot;&gt;&lt;u style=&quot;font-size: 13px;&quot;&gt;Expression Page&lt;/u&gt;&lt;/b&gt;" style="shape=umlLifeline;perimeter=lifelinePerimeter;whiteSpace=wrap;html=1;container=1;dropTarget=0;collapsible=0;recursiveResize=0;outlineConnect=0;portConstraint=eastwest;newEdgeStyle={&quot;edgeStyle&quot;:&quot;elbowEdgeStyle&quot;,&quot;elbow&quot;:&quot;vertical&quot;,&quot;curved&quot;:0,&quot;rounded&quot;:0};fontSize=13;" vertex="1" parent="1">
          <mxGeometry x="570" y="195" width="169" height="565" as="geometry" />
        </mxCell>
        <mxCell id="_RsmzDXVBHwmU9yKw3Uq-36" value="" style="html=1;points=[[0,0,0,0,5],[0,1,0,0,-5],[1,0,0,0,5],[1,1,0,0,-5]];perimeter=orthogonalPerimeter;outlineConnect=0;targetShapes=umlLifeline;portConstraint=eastwest;newEdgeStyle={&quot;curved&quot;:0,&quot;rounded&quot;:0};fontSize=13;" vertex="1" parent="_RsmzDXVBHwmU9yKw3Uq-35">
          <mxGeometry x="79.5" y="313" width="10" height="45" as="geometry" />
        </mxCell>
        <mxCell id="_RsmzDXVBHwmU9yKw3Uq-42" value="" style="html=1;points=[[0,0,0,0,5],[0,1,0,0,-5],[1,0,0,0,5],[1,1,0,0,-5]];perimeter=orthogonalPerimeter;outlineConnect=0;targetShapes=umlLifeline;portConstraint=eastwest;newEdgeStyle={&quot;curved&quot;:0,&quot;rounded&quot;:0};fontSize=13;" vertex="1" parent="_RsmzDXVBHwmU9yKw3Uq-35">
          <mxGeometry x="79.5" y="460" width="10" height="61" as="geometry" />
        </mxCell>
        <mxCell id="_RsmzDXVBHwmU9yKw3Uq-38" style="edgeStyle=orthogonalEdgeStyle;rounded=0;orthogonalLoop=1;jettySize=auto;html=1;curved=0;exitX=0;exitY=1;exitDx=0;exitDy=-5;exitPerimeter=0;entryX=1;entryY=0;entryDx=0;entryDy=5;entryPerimeter=0;" edge="1" parent="1" source="_RsmzDXVBHwmU9yKw3Uq-36" target="_RsmzDXVBHwmU9yKw3Uq-37">
          <mxGeometry relative="1" as="geometry" />
        </mxCell>
        <mxCell id="_RsmzDXVBHwmU9yKw3Uq-39" value="11:getExpression(infantID)" style="text;html=1;align=center;verticalAlign=middle;resizable=0;points=[];autosize=1;strokeColor=none;fillColor=none;" vertex="1" parent="1">
          <mxGeometry x="460" y="519" width="160" height="30" as="geometry" />
        </mxCell>
        <mxCell id="_RsmzDXVBHwmU9yKw3Uq-40" style="edgeStyle=orthogonalEdgeStyle;rounded=0;orthogonalLoop=1;jettySize=auto;html=1;curved=0;exitX=1;exitY=0;exitDx=0;exitDy=5;exitPerimeter=0;fontSize=13;" edge="1" parent="1">
          <mxGeometry relative="1" as="geometry">
            <mxPoint x="440" y="420" as="sourcePoint" />
            <mxPoint x="440" y="448" as="targetPoint" />
            <Array as="points">
              <mxPoint x="530" y="420" />
              <mxPoint x="530" y="448" />
            </Array>
          </mxGeometry>
        </mxCell>
        <mxCell id="_RsmzDXVBHwmU9yKw3Uq-41" value="12:QueryExpression(infantID)" style="text;html=1;align=center;verticalAlign=middle;resizable=0;points=[];autosize=1;strokeColor=none;fillColor=none;fontSize=13;" vertex="1" parent="1">
          <mxGeometry x="427" y="565" width="190" height="30" as="geometry" />
        </mxCell>
        <mxCell id="_RsmzDXVBHwmU9yKw3Uq-43" style="rounded=0;orthogonalLoop=1;jettySize=auto;html=1;exitX=1;exitY=1;exitDx=0;exitDy=-5;exitPerimeter=0;entryX=0;entryY=0;entryDx=0;entryDy=5;entryPerimeter=0;" edge="1" parent="1" source="_RsmzDXVBHwmU9yKw3Uq-37" target="_RsmzDXVBHwmU9yKw3Uq-42">
          <mxGeometry relative="1" as="geometry" />
        </mxCell>
        <mxCell id="_RsmzDXVBHwmU9yKw3Uq-44" value="13:return()" style="text;html=1;align=center;verticalAlign=middle;resizable=0;points=[];autosize=1;strokeColor=none;fillColor=none;" vertex="1" parent="1">
          <mxGeometry x="460" y="639" width="80" height="30" as="geometry" />
        </mxCell>
        <mxCell id="_RsmzDXVBHwmU9yKw3Uq-45" style="edgeStyle=orthogonalEdgeStyle;rounded=0;orthogonalLoop=1;jettySize=auto;html=1;curved=0;exitX=1;exitY=0;exitDx=0;exitDy=5;exitPerimeter=0;fontSize=13;" edge="1" parent="1">
          <mxGeometry relative="1" as="geometry">
            <mxPoint x="661" y="669" as="sourcePoint" />
            <mxPoint x="661" y="697" as="targetPoint" />
            <Array as="points">
              <mxPoint x="791" y="669" />
              <mxPoint x="791" y="697" />
            </Array>
          </mxGeometry>
        </mxCell>
        <mxCell id="_RsmzDXVBHwmU9yKw3Uq-46" value="14:updatePage()" style="text;html=1;align=center;verticalAlign=middle;resizable=0;points=[];autosize=1;strokeColor=none;fillColor=none;" vertex="1" parent="1">
          <mxGeometry x="680" y="639" width="110" height="30" as="geometry" />
        </mxCell>
        <mxCell id="_RsmzDXVBHwmU9yKw3Uq-48" value="&lt;b&gt;&lt;u&gt;AI Model&lt;/u&gt;&lt;/b&gt;" style="shape=umlLifeline;perimeter=lifelinePerimeter;whiteSpace=wrap;html=1;container=1;dropTarget=0;collapsible=0;recursiveResize=0;outlineConnect=0;portConstraint=eastwest;newEdgeStyle={&quot;edgeStyle&quot;:&quot;elbowEdgeStyle&quot;,&quot;elbow&quot;:&quot;vertical&quot;,&quot;curved&quot;:0,&quot;rounded&quot;:0};fontSize=13;" vertex="1" parent="1">
          <mxGeometry x="770" y="195" width="169" height="565" as="geometry" />
        </mxCell>
        <mxCell id="_RsmzDXVBHwmU9yKw3Uq-50" value="" style="html=1;points=[[0,0,0,0,5],[0,1,0,0,-5],[1,0,0,0,5],[1,1,0,0,-5]];perimeter=orthogonalPerimeter;outlineConnect=0;targetShapes=umlLifeline;portConstraint=eastwest;newEdgeStyle={&quot;curved&quot;:0,&quot;rounded&quot;:0};fontSize=13;" vertex="1" parent="_RsmzDXVBHwmU9yKw3Uq-48">
          <mxGeometry x="79.5" y="81" width="10" height="130" as="geometry" />
        </mxCell>
        <mxCell id="_RsmzDXVBHwmU9yKw3Uq-51" style="edgeStyle=orthogonalEdgeStyle;rounded=0;orthogonalLoop=1;jettySize=auto;html=1;curved=0;exitX=1;exitY=0;exitDx=0;exitDy=5;exitPerimeter=0;fontSize=13;" edge="1" parent="1">
          <mxGeometry relative="1" as="geometry">
            <mxPoint x="860" y="281" as="sourcePoint" />
            <mxPoint x="860" y="309" as="targetPoint" />
            <Array as="points">
              <mxPoint x="990" y="281" />
              <mxPoint x="990" y="309" />
            </Array>
          </mxGeometry>
        </mxCell>
        <mxCell id="_RsmzDXVBHwmU9yKw3Uq-52" value="6: getCamera()" style="text;html=1;align=center;verticalAlign=middle;resizable=0;points=[];autosize=1;strokeColor=none;fillColor=none;" vertex="1" parent="1">
          <mxGeometry x="875" y="251" width="100" height="30" as="geometry" />
        </mxCell>
        <mxCell id="_RsmzDXVBHwmU9yKw3Uq-53" style="edgeStyle=orthogonalEdgeStyle;rounded=0;orthogonalLoop=1;jettySize=auto;html=1;curved=0;exitX=1;exitY=0;exitDx=0;exitDy=5;exitPerimeter=0;fontSize=13;" edge="1" parent="1">
          <mxGeometry relative="1" as="geometry">
            <mxPoint x="862" y="338" as="sourcePoint" />
            <mxPoint x="862" y="366" as="targetPoint" />
            <Array as="points">
              <mxPoint x="992" y="338" />
              <mxPoint x="992" y="366" />
            </Array>
          </mxGeometry>
        </mxCell>
        <mxCell id="_RsmzDXVBHwmU9yKw3Uq-55" value="7: predictExpress()" style="text;html=1;align=center;verticalAlign=middle;resizable=0;points=[];autosize=1;strokeColor=none;fillColor=none;" vertex="1" parent="1">
          <mxGeometry x="865" y="311" width="120" height="30" as="geometry" />
        </mxCell>
        <mxCell id="_RsmzDXVBHwmU9yKw3Uq-57" style="rounded=0;orthogonalLoop=1;jettySize=auto;html=1;exitX=0;exitY=1;exitDx=0;exitDy=-5;exitPerimeter=0;" edge="1" parent="1" source="_RsmzDXVBHwmU9yKw3Uq-50" target="_RsmzDXVBHwmU9yKw3Uq-11">
          <mxGeometry relative="1" as="geometry">
            <mxPoint x="440" y="730" as="targetPoint" />
          </mxGeometry>
        </mxCell>
        <mxCell id="_RsmzDXVBHwmU9yKw3Uq-59" style="edgeStyle=orthogonalEdgeStyle;rounded=0;orthogonalLoop=1;jettySize=auto;html=1;curved=0;exitX=1;exitY=0;exitDx=0;exitDy=5;exitPerimeter=0;fontSize=13;" edge="1" parent="1">
          <mxGeometry relative="1" as="geometry">
            <mxPoint x="437" y="605" as="sourcePoint" />
            <mxPoint x="437" y="633" as="targetPoint" />
            <Array as="points">
              <mxPoint x="567" y="605" />
              <mxPoint x="567" y="633" />
            </Array>
          </mxGeometry>
        </mxCell>
        <mxCell id="_RsmzDXVBHwmU9yKw3Uq-60" value="8: expressionPredictResultService()" style="text;html=1;align=center;verticalAlign=middle;resizable=0;points=[];autosize=1;strokeColor=none;fillColor=none;" vertex="1" parent="1">
          <mxGeometry x="575" y="375" width="210" height="30" as="geometry" />
        </mxCell>
        <mxCell id="_RsmzDXVBHwmU9yKw3Uq-61" value="9:Insert()" style="text;html=1;align=center;verticalAlign=middle;resizable=0;points=[];autosize=1;strokeColor=none;fillColor=none;" vertex="1" parent="1">
          <mxGeometry x="445" y="448" width="70" height="30" as="geometry" />
        </mxCell>
      </root>
    </mxGraphModel>
  </diagram>
  <diagram id="GFqQvSlXLD0qwQvsErQN" name="第 9 页">
    <mxGraphModel dx="1834" dy="738" grid="1" gridSize="10" guides="1" tooltips="1" connect="1" arrows="1" fold="1" page="0" pageScale="1" pageWidth="827" pageHeight="1169" math="0" shadow="0">
      <root>
        <mxCell id="0" />
        <mxCell id="1" parent="0" />
        <mxCell id="WmA4s1XzMwQbjy8BzGnv-1" value=":User" style="shape=umlActor;verticalLabelPosition=bottom;verticalAlign=top;html=1;outlineConnect=0;fontSize=13;" vertex="1" parent="1">
          <mxGeometry x="-23" y="185" width="30" height="60" as="geometry" />
        </mxCell>
        <mxCell id="WmA4s1XzMwQbjy8BzGnv-2" value="&lt;u style=&quot;font-size: 13px;&quot;&gt;&lt;b style=&quot;font-size: 13px;&quot;&gt;&amp;nbsp;page&lt;/b&gt;&lt;/u&gt;" style="shape=umlLifeline;perimeter=lifelinePerimeter;whiteSpace=wrap;html=1;container=1;dropTarget=0;collapsible=0;recursiveResize=0;outlineConnect=0;portConstraint=eastwest;newEdgeStyle={&quot;edgeStyle&quot;:&quot;elbowEdgeStyle&quot;,&quot;elbow&quot;:&quot;vertical&quot;,&quot;curved&quot;:0,&quot;rounded&quot;:0};fontSize=13;" vertex="1" parent="1">
          <mxGeometry x="96" y="185" width="180" height="505" as="geometry" />
        </mxCell>
        <mxCell id="WmA4s1XzMwQbjy8BzGnv-3" value="" style="html=1;points=[[0,0,0,0,5],[0,1,0,0,-5],[1,0,0,0,5],[1,1,0,0,-5]];perimeter=orthogonalPerimeter;outlineConnect=0;targetShapes=umlLifeline;portConstraint=eastwest;newEdgeStyle={&quot;curved&quot;:0,&quot;rounded&quot;:0};fontSize=13;" vertex="1" parent="WmA4s1XzMwQbjy8BzGnv-2">
          <mxGeometry x="85" y="90" width="10" height="140" as="geometry" />
        </mxCell>
        <mxCell id="WmA4s1XzMwQbjy8BzGnv-4" value="" style="html=1;points=[[0,0,0,0,5],[0,1,0,0,-5],[1,0,0,0,5],[1,1,0,0,-5]];perimeter=orthogonalPerimeter;outlineConnect=0;targetShapes=umlLifeline;portConstraint=eastwest;newEdgeStyle={&quot;curved&quot;:0,&quot;rounded&quot;:0};fontSize=13;" vertex="1" parent="WmA4s1XzMwQbjy8BzGnv-2">
          <mxGeometry x="85" y="350" width="10" height="120" as="geometry" />
        </mxCell>
        <mxCell id="WmA4s1XzMwQbjy8BzGnv-5" value="" style="html=1;points=[[0,0,0,0,5],[0,1,0,0,-5],[1,0,0,0,5],[1,1,0,0,-5]];perimeter=orthogonalPerimeter;outlineConnect=0;targetShapes=umlLifeline;portConstraint=eastwest;newEdgeStyle={&quot;curved&quot;:0,&quot;rounded&quot;:0};fontSize=13;" vertex="1" parent="WmA4s1XzMwQbjy8BzGnv-2">
          <mxGeometry x="85" y="265" width="10" height="30" as="geometry" />
        </mxCell>
        <mxCell id="WmA4s1XzMwQbjy8BzGnv-6" value="" style="rounded=0;orthogonalLoop=1;jettySize=auto;html=1;dashed=1;endArrow=none;endFill=0;fontSize=13;" edge="1" parent="1" target="WmA4s1XzMwQbjy8BzGnv-7">
          <mxGeometry relative="1" as="geometry">
            <mxPoint x="-8" y="740" as="targetPoint" />
            <mxPoint x="-9" y="270" as="sourcePoint" />
          </mxGeometry>
        </mxCell>
        <mxCell id="WmA4s1XzMwQbjy8BzGnv-7" value="" style="html=1;points=[[0,0,0,0,5],[0,1,0,0,-5],[1,0,0,0,5],[1,1,0,0,-5]];perimeter=orthogonalPerimeter;outlineConnect=0;targetShapes=umlLifeline;portConstraint=eastwest;newEdgeStyle={&quot;curved&quot;:0,&quot;rounded&quot;:0};fontSize=13;" vertex="1" parent="1">
          <mxGeometry x="-13" y="275" width="10" height="30" as="geometry" />
        </mxCell>
        <mxCell id="WmA4s1XzMwQbjy8BzGnv-8" style="edgeStyle=orthogonalEdgeStyle;rounded=0;orthogonalLoop=1;jettySize=auto;html=1;curved=0;exitX=1;exitY=0;exitDx=0;exitDy=5;exitPerimeter=0;entryX=0;entryY=0;entryDx=0;entryDy=5;entryPerimeter=0;endArrow=classic;endFill=1;fontSize=13;" edge="1" parent="1" source="WmA4s1XzMwQbjy8BzGnv-7" target="WmA4s1XzMwQbjy8BzGnv-3">
          <mxGeometry relative="1" as="geometry" />
        </mxCell>
        <mxCell id="WmA4s1XzMwQbjy8BzGnv-9" value="1:Into" style="text;html=1;align=center;verticalAlign=middle;resizable=0;points=[];autosize=1;strokeColor=none;fillColor=none;fontSize=13;" vertex="1" parent="1">
          <mxGeometry x="55" y="250" width="60" height="30" as="geometry" />
        </mxCell>
        <mxCell id="WmA4s1XzMwQbjy8BzGnv-10" value="&lt;b style=&quot;font-size: 13px;&quot;&gt;&lt;u style=&quot;font-size: 13px;&quot;&gt;DBServer&lt;/u&gt;&lt;/b&gt;" style="shape=umlLifeline;perimeter=lifelinePerimeter;whiteSpace=wrap;html=1;container=1;dropTarget=0;collapsible=0;recursiveResize=0;outlineConnect=0;portConstraint=eastwest;newEdgeStyle={&quot;edgeStyle&quot;:&quot;elbowEdgeStyle&quot;,&quot;elbow&quot;:&quot;vertical&quot;,&quot;curved&quot;:0,&quot;rounded&quot;:0};fontSize=13;" vertex="1" parent="1">
          <mxGeometry x="338" y="185" width="169" height="495" as="geometry" />
        </mxCell>
        <mxCell id="WmA4s1XzMwQbjy8BzGnv-11" value="" style="html=1;points=[[0,0,0,0,5],[0,1,0,0,-5],[1,0,0,0,5],[1,1,0,0,-5]];perimeter=orthogonalPerimeter;outlineConnect=0;targetShapes=umlLifeline;portConstraint=eastwest;newEdgeStyle={&quot;curved&quot;:0,&quot;rounded&quot;:0};fontSize=13;" vertex="1" parent="WmA4s1XzMwQbjy8BzGnv-10">
          <mxGeometry x="79.5" y="115" width="10" height="120" as="geometry" />
        </mxCell>
        <mxCell id="WmA4s1XzMwQbjy8BzGnv-12" value="" style="html=1;points=[[0,0,0,0,5],[0,1,0,0,-5],[1,0,0,0,5],[1,1,0,0,-5]];perimeter=orthogonalPerimeter;outlineConnect=0;targetShapes=umlLifeline;portConstraint=eastwest;newEdgeStyle={&quot;curved&quot;:0,&quot;rounded&quot;:0};fontSize=13;" vertex="1" parent="WmA4s1XzMwQbjy8BzGnv-10">
          <mxGeometry x="79.5" y="285" width="10" height="75" as="geometry" />
        </mxCell>
        <mxCell id="WmA4s1XzMwQbjy8BzGnv-13" value="" style="rounded=0;orthogonalLoop=1;jettySize=auto;html=1;dashed=1;endArrow=none;endFill=0;fontSize=13;" edge="1" parent="1" source="WmA4s1XzMwQbjy8BzGnv-7">
          <mxGeometry relative="1" as="geometry">
            <mxPoint x="-8" y="355" as="targetPoint" />
            <mxPoint x="-9" y="305" as="sourcePoint" />
          </mxGeometry>
        </mxCell>
        <mxCell id="WmA4s1XzMwQbjy8BzGnv-14" value="2:getInfantsService(userID)" style="text;html=1;align=center;verticalAlign=middle;resizable=0;points=[];autosize=1;strokeColor=none;fillColor=none;fontSize=13;" vertex="1" parent="1">
          <mxGeometry x="215" y="275" width="180" height="30" as="geometry" />
        </mxCell>
        <mxCell id="WmA4s1XzMwQbjy8BzGnv-15" value="8: return()" style="text;html=1;align=center;verticalAlign=middle;resizable=0;points=[];autosize=1;strokeColor=none;fillColor=none;fontSize=13;" vertex="1" parent="1">
          <mxGeometry x="258" y="510" width="80" height="30" as="geometry" />
        </mxCell>
        <mxCell id="WmA4s1XzMwQbjy8BzGnv-16" value="10:&lt;span style=&quot;font-size: 13px;&quot;&gt;showInfantsList()&lt;/span&gt;" style="text;html=1;align=center;verticalAlign=middle;resizable=0;points=[];autosize=1;strokeColor=none;fillColor=none;fontSize=13;" vertex="1" parent="1">
          <mxGeometry x="198" y="580" width="140" height="30" as="geometry" />
        </mxCell>
        <mxCell id="WmA4s1XzMwQbjy8BzGnv-17" value="" style="rounded=0;orthogonalLoop=1;jettySize=auto;html=1;dashed=1;endArrow=none;endFill=0;fontSize=13;" edge="1" parent="1" source="WmA4s1XzMwQbjy8BzGnv-25">
          <mxGeometry relative="1" as="geometry">
            <mxPoint x="-9" y="680" as="targetPoint" />
            <mxPoint x="-8" y="353" as="sourcePoint" />
          </mxGeometry>
        </mxCell>
        <mxCell id="WmA4s1XzMwQbjy8BzGnv-18" value="9：Prompts msg()" style="text;html=1;align=center;verticalAlign=middle;resizable=0;points=[];autosize=1;strokeColor=none;fillColor=none;fontSize=13;" vertex="1" parent="1">
          <mxGeometry x="40" y="530" width="130" height="30" as="geometry" />
        </mxCell>
        <mxCell id="WmA4s1XzMwQbjy8BzGnv-19" style="edgeStyle=orthogonalEdgeStyle;rounded=0;orthogonalLoop=1;jettySize=auto;html=1;curved=0;exitX=1;exitY=0;exitDx=0;exitDy=5;exitPerimeter=0;fontSize=13;" edge="1" parent="1">
          <mxGeometry relative="1" as="geometry">
            <mxPoint x="430" y="320" as="sourcePoint" />
            <mxPoint x="430" y="348" as="targetPoint" />
            <Array as="points">
              <mxPoint x="495" y="320" />
              <mxPoint x="495" y="348" />
            </Array>
          </mxGeometry>
        </mxCell>
        <mxCell id="WmA4s1XzMwQbjy8BzGnv-20" style="rounded=0;orthogonalLoop=1;jettySize=auto;html=1;entryX=0;entryY=0;entryDx=0;entryDy=5;entryPerimeter=0;fontSize=13;" edge="1" parent="1" source="WmA4s1XzMwQbjy8BzGnv-3" target="WmA4s1XzMwQbjy8BzGnv-11">
          <mxGeometry relative="1" as="geometry">
            <mxPoint x="210" y="300" as="sourcePoint" />
          </mxGeometry>
        </mxCell>
        <mxCell id="WmA4s1XzMwQbjy8BzGnv-21" value="3:Query()" style="text;html=1;align=center;verticalAlign=middle;resizable=0;points=[];autosize=1;strokeColor=none;fillColor=none;fontSize=13;" vertex="1" parent="1">
          <mxGeometry x="430" y="290" width="80" height="30" as="geometry" />
        </mxCell>
        <mxCell id="WmA4s1XzMwQbjy8BzGnv-22" style="rounded=0;orthogonalLoop=1;jettySize=auto;html=1;exitX=0;exitY=0;exitDx=0;exitDy=5;exitPerimeter=0;fontSize=13;" edge="1" parent="1" target="WmA4s1XzMwQbjy8BzGnv-3">
          <mxGeometry relative="1" as="geometry">
            <mxPoint x="417.5" y="380" as="sourcePoint" />
            <mxPoint x="200.5" y="380" as="targetPoint" />
          </mxGeometry>
        </mxCell>
        <mxCell id="WmA4s1XzMwQbjy8BzGnv-23" value="4:return()" style="text;html=1;align=center;verticalAlign=middle;resizable=0;points=[];autosize=1;strokeColor=none;fillColor=none;fontSize=13;" vertex="1" parent="1">
          <mxGeometry x="260" y="348" width="80" height="30" as="geometry" />
        </mxCell>
        <mxCell id="WmA4s1XzMwQbjy8BzGnv-24" value="" style="rounded=0;orthogonalLoop=1;jettySize=auto;html=1;dashed=1;endArrow=none;endFill=0;fontSize=13;" edge="1" parent="1" target="WmA4s1XzMwQbjy8BzGnv-25">
          <mxGeometry relative="1" as="geometry">
            <mxPoint x="-9" y="640" as="targetPoint" />
            <mxPoint x="-8" y="353" as="sourcePoint" />
          </mxGeometry>
        </mxCell>
        <mxCell id="WmA4s1XzMwQbjy8BzGnv-25" value="" style="html=1;points=[[0,0,0,0,5],[0,1,0,0,-5],[1,0,0,0,5],[1,1,0,0,-5]];perimeter=orthogonalPerimeter;outlineConnect=0;targetShapes=umlLifeline;portConstraint=eastwest;newEdgeStyle={&quot;curved&quot;:0,&quot;rounded&quot;:0};fontSize=13;" vertex="1" parent="1">
          <mxGeometry x="-13" y="450" width="10" height="180" as="geometry" />
        </mxCell>
        <mxCell id="WmA4s1XzMwQbjy8BzGnv-26" style="edgeStyle=orthogonalEdgeStyle;rounded=0;orthogonalLoop=1;jettySize=auto;html=1;curved=0;exitX=1;exitY=0;exitDx=0;exitDy=5;exitPerimeter=0;entryX=0;entryY=0;entryDx=0;entryDy=5;entryPerimeter=0;fontSize=13;" edge="1" parent="1" source="WmA4s1XzMwQbjy8BzGnv-25" target="WmA4s1XzMwQbjy8BzGnv-5">
          <mxGeometry relative="1" as="geometry" />
        </mxCell>
        <mxCell id="WmA4s1XzMwQbjy8BzGnv-27" value="5:toDelectInfant(infantID)" style="text;html=1;align=center;verticalAlign=middle;resizable=0;points=[];autosize=1;strokeColor=none;fillColor=none;fontSize=13;" vertex="1" parent="1">
          <mxGeometry x="12" y="428" width="170" height="30" as="geometry" />
        </mxCell>
        <mxCell id="WmA4s1XzMwQbjy8BzGnv-28" style="edgeStyle=orthogonalEdgeStyle;rounded=0;orthogonalLoop=1;jettySize=auto;html=1;curved=0;exitX=1;exitY=1;exitDx=0;exitDy=-5;exitPerimeter=0;entryX=0;entryY=0;entryDx=0;entryDy=5;entryPerimeter=0;fontSize=13;" edge="1" parent="1" source="WmA4s1XzMwQbjy8BzGnv-5" target="WmA4s1XzMwQbjy8BzGnv-12">
          <mxGeometry relative="1" as="geometry" />
        </mxCell>
        <mxCell id="WmA4s1XzMwQbjy8BzGnv-29" value="6:delectInfantService(infantID)" style="text;html=1;align=center;verticalAlign=middle;resizable=0;points=[];autosize=1;strokeColor=none;fillColor=none;fontSize=13;" vertex="1" parent="1">
          <mxGeometry x="210" y="450" width="200" height="30" as="geometry" />
        </mxCell>
        <mxCell id="WmA4s1XzMwQbjy8BzGnv-30" value="7:Delect()" style="text;html=1;align=center;verticalAlign=middle;resizable=0;points=[];autosize=1;strokeColor=none;fillColor=none;fontSize=13;" vertex="1" parent="1">
          <mxGeometry x="425" y="460" width="80" height="30" as="geometry" />
        </mxCell>
        <mxCell id="WmA4s1XzMwQbjy8BzGnv-31" style="edgeStyle=orthogonalEdgeStyle;rounded=0;orthogonalLoop=1;jettySize=auto;html=1;curved=0;exitX=1;exitY=0;exitDx=0;exitDy=5;exitPerimeter=0;fontSize=13;" edge="1" parent="1">
          <mxGeometry relative="1" as="geometry">
            <mxPoint x="430" y="490" as="sourcePoint" />
            <mxPoint x="430" y="518" as="targetPoint" />
            <Array as="points">
              <mxPoint x="495" y="490" />
              <mxPoint x="495" y="518" />
            </Array>
          </mxGeometry>
        </mxCell>
        <mxCell id="WmA4s1XzMwQbjy8BzGnv-32" style="edgeStyle=orthogonalEdgeStyle;rounded=0;orthogonalLoop=1;jettySize=auto;html=1;curved=0;exitX=0;exitY=1;exitDx=0;exitDy=-5;exitPerimeter=0;entryX=1;entryY=0;entryDx=0;entryDy=5;entryPerimeter=0;fontSize=13;" edge="1" parent="1" source="WmA4s1XzMwQbjy8BzGnv-12" target="WmA4s1XzMwQbjy8BzGnv-4">
          <mxGeometry relative="1" as="geometry" />
        </mxCell>
        <mxCell id="WmA4s1XzMwQbjy8BzGnv-33" style="edgeStyle=orthogonalEdgeStyle;rounded=0;orthogonalLoop=1;jettySize=auto;html=1;curved=0;exitX=1;exitY=0;exitDx=0;exitDy=5;exitPerimeter=0;fontSize=13;" edge="1" parent="1">
          <mxGeometry relative="1" as="geometry">
            <mxPoint x="207" y="603" as="sourcePoint" />
            <mxPoint x="207" y="631" as="targetPoint" />
            <Array as="points">
              <mxPoint x="272" y="603" />
              <mxPoint x="272" y="631" />
            </Array>
          </mxGeometry>
        </mxCell>
        <mxCell id="WmA4s1XzMwQbjy8BzGnv-34" style="rounded=0;orthogonalLoop=1;jettySize=auto;html=1;exitX=0;exitY=1;exitDx=0;exitDy=-5;exitPerimeter=0;fontSize=13;" edge="1" parent="1">
          <mxGeometry relative="1" as="geometry">
            <mxPoint x="187" y="562" as="sourcePoint" />
            <mxPoint x="-3" y="562" as="targetPoint" />
          </mxGeometry>
        </mxCell>
      </root>
    </mxGraphModel>
  </diagram>
  <diagram id="Z7f2lsYwaTj3vw4cDrsO" name="第 10 页">
    <mxGraphModel dx="1834" dy="738" grid="1" gridSize="10" guides="1" tooltips="1" connect="1" arrows="1" fold="1" page="0" pageScale="1" pageWidth="827" pageHeight="1169" math="0" shadow="0">
      <root>
        <mxCell id="0" />
        <mxCell id="1" parent="0" />
        <mxCell id="ztNsl_LstvjEG5gNHX9X-1" value=":User" style="shape=umlActor;verticalLabelPosition=bottom;verticalAlign=top;html=1;outlineConnect=0;fontSize=13;" vertex="1" parent="1">
          <mxGeometry x="-4" y="195" width="30" height="60" as="geometry" />
        </mxCell>
        <mxCell id="ztNsl_LstvjEG5gNHX9X-2" value="&lt;u style=&quot;font-size: 13px;&quot;&gt;&lt;b style=&quot;font-size: 13px;&quot;&gt;History page&lt;/b&gt;&lt;/u&gt;" style="shape=umlLifeline;perimeter=lifelinePerimeter;whiteSpace=wrap;html=1;container=1;dropTarget=0;collapsible=0;recursiveResize=0;outlineConnect=0;portConstraint=eastwest;newEdgeStyle={&quot;edgeStyle&quot;:&quot;elbowEdgeStyle&quot;,&quot;elbow&quot;:&quot;vertical&quot;,&quot;curved&quot;:0,&quot;rounded&quot;:0};fontSize=13;" vertex="1" parent="1">
          <mxGeometry x="161" y="195" width="100" height="555" as="geometry" />
        </mxCell>
        <mxCell id="ztNsl_LstvjEG5gNHX9X-3" value="" style="html=1;points=[[0,0,0,0,5],[0,1,0,0,-5],[1,0,0,0,5],[1,1,0,0,-5]];perimeter=orthogonalPerimeter;outlineConnect=0;targetShapes=umlLifeline;portConstraint=eastwest;newEdgeStyle={&quot;curved&quot;:0,&quot;rounded&quot;:0};fontSize=13;" vertex="1" parent="ztNsl_LstvjEG5gNHX9X-2">
          <mxGeometry x="45" y="90" width="10" height="160" as="geometry" />
        </mxCell>
        <mxCell id="ztNsl_LstvjEG5gNHX9X-4" value="" style="rounded=0;orthogonalLoop=1;jettySize=auto;html=1;dashed=1;endArrow=none;endFill=0;fontSize=13;" edge="1" parent="1" target="ztNsl_LstvjEG5gNHX9X-5">
          <mxGeometry relative="1" as="geometry">
            <mxPoint x="11" y="750" as="targetPoint" />
            <mxPoint x="10" y="280" as="sourcePoint" />
          </mxGeometry>
        </mxCell>
        <mxCell id="ztNsl_LstvjEG5gNHX9X-5" value="" style="html=1;points=[[0,0,0,0,5],[0,1,0,0,-5],[1,0,0,0,5],[1,1,0,0,-5]];perimeter=orthogonalPerimeter;outlineConnect=0;targetShapes=umlLifeline;portConstraint=eastwest;newEdgeStyle={&quot;curved&quot;:0,&quot;rounded&quot;:0};fontSize=13;" vertex="1" parent="1">
          <mxGeometry x="6" y="285" width="10" height="30" as="geometry" />
        </mxCell>
        <mxCell id="ztNsl_LstvjEG5gNHX9X-6" style="edgeStyle=orthogonalEdgeStyle;rounded=0;orthogonalLoop=1;jettySize=auto;html=1;curved=0;exitX=1;exitY=0;exitDx=0;exitDy=5;exitPerimeter=0;entryX=0;entryY=0;entryDx=0;entryDy=5;entryPerimeter=0;endArrow=classic;endFill=1;fontSize=13;" edge="1" parent="1" source="ztNsl_LstvjEG5gNHX9X-5" target="ztNsl_LstvjEG5gNHX9X-3">
          <mxGeometry relative="1" as="geometry" />
        </mxCell>
        <mxCell id="ztNsl_LstvjEG5gNHX9X-7" value="1:Into" style="text;html=1;align=center;verticalAlign=middle;resizable=0;points=[];autosize=1;strokeColor=none;fillColor=none;fontSize=13;" vertex="1" parent="1">
          <mxGeometry x="65" y="260" width="60" height="30" as="geometry" />
        </mxCell>
        <mxCell id="ztNsl_LstvjEG5gNHX9X-8" value="&lt;b style=&quot;font-size: 13px;&quot;&gt;&lt;u style=&quot;font-size: 13px;&quot;&gt;DBServer&lt;/u&gt;&lt;/b&gt;" style="shape=umlLifeline;perimeter=lifelinePerimeter;whiteSpace=wrap;html=1;container=1;dropTarget=0;collapsible=0;recursiveResize=0;outlineConnect=0;portConstraint=eastwest;newEdgeStyle={&quot;edgeStyle&quot;:&quot;elbowEdgeStyle&quot;,&quot;elbow&quot;:&quot;vertical&quot;,&quot;curved&quot;:0,&quot;rounded&quot;:0};fontSize=13;" vertex="1" parent="1">
          <mxGeometry x="348" y="195" width="169" height="555" as="geometry" />
        </mxCell>
        <mxCell id="ztNsl_LstvjEG5gNHX9X-9" value="" style="html=1;points=[[0,0,0,0,5],[0,1,0,0,-5],[1,0,0,0,5],[1,1,0,0,-5]];perimeter=orthogonalPerimeter;outlineConnect=0;targetShapes=umlLifeline;portConstraint=eastwest;newEdgeStyle={&quot;curved&quot;:0,&quot;rounded&quot;:0};fontSize=13;" vertex="1" parent="ztNsl_LstvjEG5gNHX9X-8">
          <mxGeometry x="79.5" y="115" width="10" height="105" as="geometry" />
        </mxCell>
        <mxCell id="ztNsl_LstvjEG5gNHX9X-10" value="" style="html=1;points=[[0,0,0,0,5],[0,1,0,0,-5],[1,0,0,0,5],[1,1,0,0,-5]];perimeter=orthogonalPerimeter;outlineConnect=0;targetShapes=umlLifeline;portConstraint=eastwest;newEdgeStyle={&quot;curved&quot;:0,&quot;rounded&quot;:0};fontSize=13;" vertex="1" parent="ztNsl_LstvjEG5gNHX9X-8">
          <mxGeometry x="79.5" y="348" width="10" height="123" as="geometry" />
        </mxCell>
        <mxCell id="ztNsl_LstvjEG5gNHX9X-11" value="" style="rounded=0;orthogonalLoop=1;jettySize=auto;html=1;dashed=1;endArrow=none;endFill=0;fontSize=13;" edge="1" parent="1" source="ztNsl_LstvjEG5gNHX9X-5">
          <mxGeometry relative="1" as="geometry">
            <mxPoint x="11" y="365" as="targetPoint" />
            <mxPoint x="10" y="315" as="sourcePoint" />
          </mxGeometry>
        </mxCell>
        <mxCell id="ztNsl_LstvjEG5gNHX9X-12" value="2:getInfantsService(userID)" style="text;html=1;align=center;verticalAlign=middle;resizable=0;points=[];autosize=1;strokeColor=none;fillColor=none;fontSize=13;" vertex="1" parent="1">
          <mxGeometry x="225" y="285" width="180" height="30" as="geometry" />
        </mxCell>
        <mxCell id="ztNsl_LstvjEG5gNHX9X-13" value="5:&lt;span style=&quot;font-size: 13px;&quot;&gt;showInfantsList()&lt;/span&gt;" style="text;html=1;align=center;verticalAlign=middle;resizable=0;points=[];autosize=1;strokeColor=none;fillColor=none;fontSize=13;" vertex="1" parent="1">
          <mxGeometry x="213" y="378" width="130" height="30" as="geometry" />
        </mxCell>
        <mxCell id="ztNsl_LstvjEG5gNHX9X-14" value="" style="rounded=0;orthogonalLoop=1;jettySize=auto;html=1;dashed=1;endArrow=none;endFill=0;fontSize=13;" edge="1" parent="1" source="ztNsl_LstvjEG5gNHX9X-21">
          <mxGeometry relative="1" as="geometry">
            <mxPoint x="10" y="738" as="targetPoint" />
            <mxPoint x="11" y="411" as="sourcePoint" />
          </mxGeometry>
        </mxCell>
        <mxCell id="ztNsl_LstvjEG5gNHX9X-16" style="rounded=0;orthogonalLoop=1;jettySize=auto;html=1;entryX=0;entryY=0;entryDx=0;entryDy=5;entryPerimeter=0;fontSize=13;" edge="1" parent="1" source="ztNsl_LstvjEG5gNHX9X-3" target="ztNsl_LstvjEG5gNHX9X-9">
          <mxGeometry relative="1" as="geometry">
            <mxPoint x="220" y="310" as="sourcePoint" />
          </mxGeometry>
        </mxCell>
        <mxCell id="ztNsl_LstvjEG5gNHX9X-18" style="rounded=0;orthogonalLoop=1;jettySize=auto;html=1;exitX=0;exitY=0;exitDx=0;exitDy=5;exitPerimeter=0;fontSize=13;" edge="1" parent="1">
          <mxGeometry relative="1" as="geometry">
            <mxPoint x="427.5" y="377" as="sourcePoint" />
            <mxPoint x="216" y="377" as="targetPoint" />
          </mxGeometry>
        </mxCell>
        <mxCell id="ztNsl_LstvjEG5gNHX9X-19" value="4:return()" style="text;html=1;align=center;verticalAlign=middle;resizable=0;points=[];autosize=1;strokeColor=none;fillColor=none;fontSize=13;" vertex="1" parent="1">
          <mxGeometry x="270" y="345" width="80" height="30" as="geometry" />
        </mxCell>
        <mxCell id="ztNsl_LstvjEG5gNHX9X-20" value="" style="rounded=0;orthogonalLoop=1;jettySize=auto;html=1;dashed=1;endArrow=none;endFill=0;fontSize=13;" edge="1" parent="1" target="ztNsl_LstvjEG5gNHX9X-21">
          <mxGeometry relative="1" as="geometry">
            <mxPoint x="10" y="650" as="targetPoint" />
            <mxPoint x="11" y="363" as="sourcePoint" />
          </mxGeometry>
        </mxCell>
        <mxCell id="ztNsl_LstvjEG5gNHX9X-21" value="" style="html=1;points=[[0,0,0,0,5],[0,1,0,0,-5],[1,0,0,0,5],[1,1,0,0,-5]];perimeter=orthogonalPerimeter;outlineConnect=0;targetShapes=umlLifeline;portConstraint=eastwest;newEdgeStyle={&quot;curved&quot;:0,&quot;rounded&quot;:0};fontSize=13;" vertex="1" parent="1">
          <mxGeometry x="6" y="508" width="10" height="43" as="geometry" />
        </mxCell>
        <mxCell id="ztNsl_LstvjEG5gNHX9X-22" style="edgeStyle=orthogonalEdgeStyle;rounded=0;orthogonalLoop=1;jettySize=auto;html=1;curved=0;exitX=1;exitY=0;exitDx=0;exitDy=5;exitPerimeter=0;entryX=0;entryY=0;entryDx=0;entryDy=5;entryPerimeter=0;fontSize=13;" edge="1" parent="1" source="ztNsl_LstvjEG5gNHX9X-21" target="ztNsl_LstvjEG5gNHX9X-26">
          <mxGeometry relative="1" as="geometry">
            <mxPoint x="206" y="513" as="targetPoint" />
          </mxGeometry>
        </mxCell>
        <mxCell id="ztNsl_LstvjEG5gNHX9X-23" value="6:toHistoryExpression(infantID)" style="text;html=1;align=center;verticalAlign=middle;resizable=0;points=[];autosize=1;strokeColor=none;fillColor=none;fontSize=13;" vertex="1" parent="1">
          <mxGeometry x="235" y="478" width="200" height="30" as="geometry" />
        </mxCell>
        <mxCell id="ztNsl_LstvjEG5gNHX9X-24" style="edgeStyle=orthogonalEdgeStyle;rounded=0;orthogonalLoop=1;jettySize=auto;html=1;curved=0;exitX=1;exitY=0;exitDx=0;exitDy=5;exitPerimeter=0;fontSize=13;" edge="1" parent="1">
          <mxGeometry relative="1" as="geometry">
            <mxPoint x="217" y="404" as="sourcePoint" />
            <mxPoint x="217" y="432" as="targetPoint" />
            <Array as="points">
              <mxPoint x="282" y="404" />
              <mxPoint x="282" y="432" />
            </Array>
          </mxGeometry>
        </mxCell>
        <mxCell id="ztNsl_LstvjEG5gNHX9X-25" value="&lt;b style=&quot;font-size: 13px;&quot;&gt;&lt;u style=&quot;font-size: 13px;&quot;&gt;HistoryExpression Page&lt;/u&gt;&lt;/b&gt;" style="shape=umlLifeline;perimeter=lifelinePerimeter;whiteSpace=wrap;html=1;container=1;dropTarget=0;collapsible=0;recursiveResize=0;outlineConnect=0;portConstraint=eastwest;newEdgeStyle={&quot;edgeStyle&quot;:&quot;elbowEdgeStyle&quot;,&quot;elbow&quot;:&quot;vertical&quot;,&quot;curved&quot;:0,&quot;rounded&quot;:0};fontSize=13;" vertex="1" parent="1">
          <mxGeometry x="626" y="195" width="169" height="565" as="geometry" />
        </mxCell>
        <mxCell id="ztNsl_LstvjEG5gNHX9X-26" value="" style="html=1;points=[[0,0,0,0,5],[0,1,0,0,-5],[1,0,0,0,5],[1,1,0,0,-5]];perimeter=orthogonalPerimeter;outlineConnect=0;targetShapes=umlLifeline;portConstraint=eastwest;newEdgeStyle={&quot;curved&quot;:0,&quot;rounded&quot;:0};fontSize=13;" vertex="1" parent="ztNsl_LstvjEG5gNHX9X-25">
          <mxGeometry x="79.5" y="313" width="10" height="45" as="geometry" />
        </mxCell>
        <mxCell id="ztNsl_LstvjEG5gNHX9X-27" value="" style="html=1;points=[[0,0,0,0,5],[0,1,0,0,-5],[1,0,0,0,5],[1,1,0,0,-5]];perimeter=orthogonalPerimeter;outlineConnect=0;targetShapes=umlLifeline;portConstraint=eastwest;newEdgeStyle={&quot;curved&quot;:0,&quot;rounded&quot;:0};fontSize=13;" vertex="1" parent="ztNsl_LstvjEG5gNHX9X-25">
          <mxGeometry x="79.5" y="460" width="10" height="61" as="geometry" />
        </mxCell>
        <mxCell id="ztNsl_LstvjEG5gNHX9X-28" style="edgeStyle=orthogonalEdgeStyle;rounded=0;orthogonalLoop=1;jettySize=auto;html=1;curved=0;exitX=0;exitY=1;exitDx=0;exitDy=-5;exitPerimeter=0;entryX=1;entryY=0;entryDx=0;entryDy=5;entryPerimeter=0;fontSize=13;" edge="1" parent="1" source="ztNsl_LstvjEG5gNHX9X-26" target="ztNsl_LstvjEG5gNHX9X-10">
          <mxGeometry relative="1" as="geometry" />
        </mxCell>
        <mxCell id="ztNsl_LstvjEG5gNHX9X-29" value="7:getHistoryExpressionService(infantID)" style="text;html=1;align=center;verticalAlign=middle;resizable=0;points=[];autosize=1;strokeColor=none;fillColor=none;fontSize=13;" vertex="1" parent="1">
          <mxGeometry x="448" y="519" width="250" height="30" as="geometry" />
        </mxCell>
        <mxCell id="ztNsl_LstvjEG5gNHX9X-31" value="8:QueryExpression(infantID)" style="text;html=1;align=center;verticalAlign=middle;resizable=0;points=[];autosize=1;strokeColor=none;fillColor=none;fontSize=13;" vertex="1" parent="1">
          <mxGeometry x="440" y="580" width="190" height="30" as="geometry" />
        </mxCell>
        <mxCell id="ztNsl_LstvjEG5gNHX9X-32" style="rounded=0;orthogonalLoop=1;jettySize=auto;html=1;exitX=1;exitY=1;exitDx=0;exitDy=-5;exitPerimeter=0;entryX=0;entryY=0;entryDx=0;entryDy=5;entryPerimeter=0;fontSize=13;" edge="1" parent="1" source="ztNsl_LstvjEG5gNHX9X-10" target="ztNsl_LstvjEG5gNHX9X-27">
          <mxGeometry relative="1" as="geometry" />
        </mxCell>
        <mxCell id="ztNsl_LstvjEG5gNHX9X-33" value="9:return()" style="text;html=1;align=center;verticalAlign=middle;resizable=0;points=[];autosize=1;strokeColor=none;fillColor=none;fontSize=13;" vertex="1" parent="1">
          <mxGeometry x="460" y="639" width="80" height="30" as="geometry" />
        </mxCell>
        <mxCell id="ztNsl_LstvjEG5gNHX9X-34" style="edgeStyle=orthogonalEdgeStyle;rounded=0;orthogonalLoop=1;jettySize=auto;html=1;curved=0;exitX=1;exitY=0;exitDx=0;exitDy=5;exitPerimeter=0;fontSize=13;" edge="1" parent="1">
          <mxGeometry relative="1" as="geometry">
            <mxPoint x="717" y="669" as="sourcePoint" />
            <mxPoint x="717" y="697" as="targetPoint" />
            <Array as="points">
              <mxPoint x="847" y="669" />
              <mxPoint x="847" y="697" />
            </Array>
          </mxGeometry>
        </mxCell>
        <mxCell id="ztNsl_LstvjEG5gNHX9X-35" value="10:showExpressionList()" style="text;html=1;align=center;verticalAlign=middle;resizable=0;points=[];autosize=1;strokeColor=none;fillColor=none;fontSize=13;" vertex="1" parent="1">
          <mxGeometry x="706" y="639" width="170" height="30" as="geometry" />
        </mxCell>
        <mxCell id="ztNsl_LstvjEG5gNHX9X-43" style="edgeStyle=orthogonalEdgeStyle;rounded=0;orthogonalLoop=1;jettySize=auto;html=1;curved=0;exitX=1;exitY=0;exitDx=0;exitDy=5;exitPerimeter=0;fontSize=13;" edge="1" parent="1">
          <mxGeometry relative="1" as="geometry">
            <mxPoint x="437" y="605" as="sourcePoint" />
            <mxPoint x="437" y="633" as="targetPoint" />
            <Array as="points">
              <mxPoint x="567" y="605" />
              <mxPoint x="567" y="633" />
            </Array>
          </mxGeometry>
        </mxCell>
        <mxCell id="ztNsl_LstvjEG5gNHX9X-46" style="edgeStyle=orthogonalEdgeStyle;rounded=0;orthogonalLoop=1;jettySize=auto;html=1;curved=0;exitX=1;exitY=0;exitDx=0;exitDy=5;exitPerimeter=0;fontSize=13;" edge="1" parent="1">
          <mxGeometry relative="1" as="geometry">
            <mxPoint x="440" y="330" as="sourcePoint" />
            <mxPoint x="440" y="358" as="targetPoint" />
            <Array as="points">
              <mxPoint x="570" y="330" />
              <mxPoint x="570" y="358" />
            </Array>
          </mxGeometry>
        </mxCell>
        <mxCell id="ztNsl_LstvjEG5gNHX9X-47" value="3:QueryInfants()" style="text;html=1;align=center;verticalAlign=middle;resizable=0;points=[];autosize=1;strokeColor=none;fillColor=none;fontSize=13;" vertex="1" parent="1">
          <mxGeometry x="440" y="298" width="120" height="30" as="geometry" />
        </mxCell>
      </root>
    </mxGraphModel>
  </diagram>
  <diagram id="1AYDLRT7MnirFPjOwFZt" name="第 11 页">
    <mxGraphModel dx="1834" dy="738" grid="1" gridSize="10" guides="1" tooltips="1" connect="1" arrows="1" fold="1" page="0" pageScale="1" pageWidth="827" pageHeight="1169" math="0" shadow="0">
      <root>
        <mxCell id="0" />
        <mxCell id="1" parent="0" />
        <mxCell id="ZERluaqNeqFuhQolB-5T-1" value=":Manager" style="shape=umlActor;verticalLabelPosition=bottom;verticalAlign=top;html=1;outlineConnect=0;fontSize=13;" vertex="1" parent="1">
          <mxGeometry x="-4" y="195" width="30" height="60" as="geometry" />
        </mxCell>
        <mxCell id="ZERluaqNeqFuhQolB-5T-2" value="&lt;u style=&quot;font-size: 13px;&quot;&gt;&lt;b style=&quot;font-size: 13px;&quot;&gt;Users Page&lt;/b&gt;&lt;/u&gt;" style="shape=umlLifeline;perimeter=lifelinePerimeter;whiteSpace=wrap;html=1;container=1;dropTarget=0;collapsible=0;recursiveResize=0;outlineConnect=0;portConstraint=eastwest;newEdgeStyle={&quot;edgeStyle&quot;:&quot;elbowEdgeStyle&quot;,&quot;elbow&quot;:&quot;vertical&quot;,&quot;curved&quot;:0,&quot;rounded&quot;:0};fontSize=13;" vertex="1" parent="1">
          <mxGeometry x="161" y="195" width="100" height="555" as="geometry" />
        </mxCell>
        <mxCell id="ZERluaqNeqFuhQolB-5T-3" value="" style="html=1;points=[[0,0,0,0,5],[0,1,0,0,-5],[1,0,0,0,5],[1,1,0,0,-5]];perimeter=orthogonalPerimeter;outlineConnect=0;targetShapes=umlLifeline;portConstraint=eastwest;newEdgeStyle={&quot;curved&quot;:0,&quot;rounded&quot;:0};fontSize=13;" vertex="1" parent="ZERluaqNeqFuhQolB-5T-2">
          <mxGeometry x="45" y="90" width="10" height="160" as="geometry" />
        </mxCell>
        <mxCell id="ZERluaqNeqFuhQolB-5T-41" value="" style="html=1;points=[[0,0,0,0,5],[0,1,0,0,-5],[1,0,0,0,5],[1,1,0,0,-5]];perimeter=orthogonalPerimeter;outlineConnect=0;targetShapes=umlLifeline;portConstraint=eastwest;newEdgeStyle={&quot;curved&quot;:0,&quot;rounded&quot;:0};fontSize=13;" vertex="1" parent="ZERluaqNeqFuhQolB-5T-2">
          <mxGeometry x="45" y="410" width="10" height="95" as="geometry" />
        </mxCell>
        <mxCell id="ZERluaqNeqFuhQolB-5T-4" value="" style="rounded=0;orthogonalLoop=1;jettySize=auto;html=1;dashed=1;endArrow=none;endFill=0;fontSize=13;" edge="1" parent="1" target="ZERluaqNeqFuhQolB-5T-5">
          <mxGeometry relative="1" as="geometry">
            <mxPoint x="11" y="750" as="targetPoint" />
            <mxPoint x="10" y="280" as="sourcePoint" />
          </mxGeometry>
        </mxCell>
        <mxCell id="ZERluaqNeqFuhQolB-5T-5" value="" style="html=1;points=[[0,0,0,0,5],[0,1,0,0,-5],[1,0,0,0,5],[1,1,0,0,-5]];perimeter=orthogonalPerimeter;outlineConnect=0;targetShapes=umlLifeline;portConstraint=eastwest;newEdgeStyle={&quot;curved&quot;:0,&quot;rounded&quot;:0};fontSize=13;" vertex="1" parent="1">
          <mxGeometry x="6" y="285" width="10" height="30" as="geometry" />
        </mxCell>
        <mxCell id="ZERluaqNeqFuhQolB-5T-6" style="edgeStyle=orthogonalEdgeStyle;rounded=0;orthogonalLoop=1;jettySize=auto;html=1;curved=0;exitX=1;exitY=0;exitDx=0;exitDy=5;exitPerimeter=0;entryX=0;entryY=0;entryDx=0;entryDy=5;entryPerimeter=0;endArrow=classic;endFill=1;fontSize=13;" edge="1" parent="1" source="ZERluaqNeqFuhQolB-5T-5" target="ZERluaqNeqFuhQolB-5T-3">
          <mxGeometry relative="1" as="geometry" />
        </mxCell>
        <mxCell id="ZERluaqNeqFuhQolB-5T-7" value="1:Into" style="text;html=1;align=center;verticalAlign=middle;resizable=0;points=[];autosize=1;strokeColor=none;fillColor=none;fontSize=13;" vertex="1" parent="1">
          <mxGeometry x="65" y="260" width="60" height="30" as="geometry" />
        </mxCell>
        <mxCell id="ZERluaqNeqFuhQolB-5T-8" value="&lt;b style=&quot;font-size: 13px;&quot;&gt;&lt;u style=&quot;font-size: 13px;&quot;&gt;DBServer&lt;/u&gt;&lt;/b&gt;" style="shape=umlLifeline;perimeter=lifelinePerimeter;whiteSpace=wrap;html=1;container=1;dropTarget=0;collapsible=0;recursiveResize=0;outlineConnect=0;portConstraint=eastwest;newEdgeStyle={&quot;edgeStyle&quot;:&quot;elbowEdgeStyle&quot;,&quot;elbow&quot;:&quot;vertical&quot;,&quot;curved&quot;:0,&quot;rounded&quot;:0};fontSize=13;" vertex="1" parent="1">
          <mxGeometry x="348" y="195" width="169" height="555" as="geometry" />
        </mxCell>
        <mxCell id="ZERluaqNeqFuhQolB-5T-9" value="" style="html=1;points=[[0,0,0,0,5],[0,1,0,0,-5],[1,0,0,0,5],[1,1,0,0,-5]];perimeter=orthogonalPerimeter;outlineConnect=0;targetShapes=umlLifeline;portConstraint=eastwest;newEdgeStyle={&quot;curved&quot;:0,&quot;rounded&quot;:0};fontSize=13;" vertex="1" parent="ZERluaqNeqFuhQolB-5T-8">
          <mxGeometry x="79.5" y="115" width="10" height="105" as="geometry" />
        </mxCell>
        <mxCell id="ZERluaqNeqFuhQolB-5T-10" value="" style="html=1;points=[[0,0,0,0,5],[0,1,0,0,-5],[1,0,0,0,5],[1,1,0,0,-5]];perimeter=orthogonalPerimeter;outlineConnect=0;targetShapes=umlLifeline;portConstraint=eastwest;newEdgeStyle={&quot;curved&quot;:0,&quot;rounded&quot;:0};fontSize=13;" vertex="1" parent="ZERluaqNeqFuhQolB-5T-8">
          <mxGeometry x="79.5" y="297" width="10" height="123" as="geometry" />
        </mxCell>
        <mxCell id="ZERluaqNeqFuhQolB-5T-11" value="" style="rounded=0;orthogonalLoop=1;jettySize=auto;html=1;dashed=1;endArrow=none;endFill=0;fontSize=13;" edge="1" parent="1" source="ZERluaqNeqFuhQolB-5T-5">
          <mxGeometry relative="1" as="geometry">
            <mxPoint x="11" y="365" as="targetPoint" />
            <mxPoint x="10" y="315" as="sourcePoint" />
          </mxGeometry>
        </mxCell>
        <mxCell id="ZERluaqNeqFuhQolB-5T-12" value="2:getUsersService(userID)" style="text;html=1;align=center;verticalAlign=middle;resizable=0;points=[];autosize=1;strokeColor=none;fillColor=none;fontSize=13;" vertex="1" parent="1">
          <mxGeometry x="225" y="285" width="180" height="30" as="geometry" />
        </mxCell>
        <mxCell id="ZERluaqNeqFuhQolB-5T-13" value="5:&lt;span style=&quot;font-size: 13px;&quot;&gt;showUsersList()&lt;/span&gt;" style="text;html=1;align=center;verticalAlign=middle;resizable=0;points=[];autosize=1;strokeColor=none;fillColor=none;fontSize=13;" vertex="1" parent="1">
          <mxGeometry x="213" y="378" width="130" height="30" as="geometry" />
        </mxCell>
        <mxCell id="ZERluaqNeqFuhQolB-5T-14" value="" style="rounded=0;orthogonalLoop=1;jettySize=auto;html=1;dashed=1;endArrow=none;endFill=0;fontSize=13;" edge="1" parent="1" source="ZERluaqNeqFuhQolB-5T-19">
          <mxGeometry relative="1" as="geometry">
            <mxPoint x="10" y="738" as="targetPoint" />
            <mxPoint x="11" y="411" as="sourcePoint" />
          </mxGeometry>
        </mxCell>
        <mxCell id="ZERluaqNeqFuhQolB-5T-15" style="rounded=0;orthogonalLoop=1;jettySize=auto;html=1;entryX=0;entryY=0;entryDx=0;entryDy=5;entryPerimeter=0;fontSize=13;" edge="1" parent="1" source="ZERluaqNeqFuhQolB-5T-3" target="ZERluaqNeqFuhQolB-5T-9">
          <mxGeometry relative="1" as="geometry">
            <mxPoint x="220" y="310" as="sourcePoint" />
          </mxGeometry>
        </mxCell>
        <mxCell id="ZERluaqNeqFuhQolB-5T-16" style="rounded=0;orthogonalLoop=1;jettySize=auto;html=1;exitX=0;exitY=0;exitDx=0;exitDy=5;exitPerimeter=0;fontSize=13;" edge="1" parent="1">
          <mxGeometry relative="1" as="geometry">
            <mxPoint x="427.5" y="377" as="sourcePoint" />
            <mxPoint x="216" y="377" as="targetPoint" />
          </mxGeometry>
        </mxCell>
        <mxCell id="ZERluaqNeqFuhQolB-5T-17" value="4:return()" style="text;html=1;align=center;verticalAlign=middle;resizable=0;points=[];autosize=1;strokeColor=none;fillColor=none;fontSize=13;" vertex="1" parent="1">
          <mxGeometry x="270" y="345" width="80" height="30" as="geometry" />
        </mxCell>
        <mxCell id="ZERluaqNeqFuhQolB-5T-18" value="" style="rounded=0;orthogonalLoop=1;jettySize=auto;html=1;dashed=1;endArrow=none;endFill=0;fontSize=13;" edge="1" parent="1" target="ZERluaqNeqFuhQolB-5T-19">
          <mxGeometry relative="1" as="geometry">
            <mxPoint x="10" y="650" as="targetPoint" />
            <mxPoint x="11" y="363" as="sourcePoint" />
          </mxGeometry>
        </mxCell>
        <mxCell id="ZERluaqNeqFuhQolB-5T-19" value="" style="html=1;points=[[0,0,0,0,5],[0,1,0,0,-5],[1,0,0,0,5],[1,1,0,0,-5]];perimeter=orthogonalPerimeter;outlineConnect=0;targetShapes=umlLifeline;portConstraint=eastwest;newEdgeStyle={&quot;curved&quot;:0,&quot;rounded&quot;:0};fontSize=13;" vertex="1" parent="1">
          <mxGeometry x="6" y="493" width="10" height="177" as="geometry" />
        </mxCell>
        <mxCell id="ZERluaqNeqFuhQolB-5T-22" style="edgeStyle=orthogonalEdgeStyle;rounded=0;orthogonalLoop=1;jettySize=auto;html=1;curved=0;exitX=1;exitY=0;exitDx=0;exitDy=5;exitPerimeter=0;fontSize=13;" edge="1" parent="1">
          <mxGeometry relative="1" as="geometry">
            <mxPoint x="217" y="404" as="sourcePoint" />
            <mxPoint x="217" y="432" as="targetPoint" />
            <Array as="points">
              <mxPoint x="282" y="404" />
              <mxPoint x="282" y="432" />
            </Array>
          </mxGeometry>
        </mxCell>
        <mxCell id="ZERluaqNeqFuhQolB-5T-34" style="edgeStyle=orthogonalEdgeStyle;rounded=0;orthogonalLoop=1;jettySize=auto;html=1;curved=0;exitX=1;exitY=0;exitDx=0;exitDy=5;exitPerimeter=0;fontSize=13;" edge="1" parent="1">
          <mxGeometry relative="1" as="geometry">
            <mxPoint x="440" y="330" as="sourcePoint" />
            <mxPoint x="440" y="358" as="targetPoint" />
            <Array as="points">
              <mxPoint x="570" y="330" />
              <mxPoint x="570" y="358" />
            </Array>
          </mxGeometry>
        </mxCell>
        <mxCell id="ZERluaqNeqFuhQolB-5T-35" value="3:QueryUsers()" style="text;html=1;align=center;verticalAlign=middle;resizable=0;points=[];autosize=1;strokeColor=none;fillColor=none;fontSize=13;" vertex="1" parent="1">
          <mxGeometry x="445" y="298" width="110" height="30" as="geometry" />
        </mxCell>
        <mxCell id="ZERluaqNeqFuhQolB-5T-37" style="rounded=0;orthogonalLoop=1;jettySize=auto;html=1;exitX=1;exitY=0;exitDx=0;exitDy=5;exitPerimeter=0;entryX=0;entryY=0;entryDx=0;entryDy=5;entryPerimeter=0;" edge="1" parent="1" source="ZERluaqNeqFuhQolB-5T-19" target="ZERluaqNeqFuhQolB-5T-10">
          <mxGeometry relative="1" as="geometry" />
        </mxCell>
        <mxCell id="ZERluaqNeqFuhQolB-5T-38" value="6: banUserService(UserID)" style="text;html=1;align=center;verticalAlign=middle;resizable=0;points=[];autosize=1;strokeColor=none;fillColor=none;" vertex="1" parent="1">
          <mxGeometry x="43" y="470" width="170" height="30" as="geometry" />
        </mxCell>
        <mxCell id="ZERluaqNeqFuhQolB-5T-39" style="edgeStyle=orthogonalEdgeStyle;rounded=0;orthogonalLoop=1;jettySize=auto;html=1;curved=0;exitX=1;exitY=0;exitDx=0;exitDy=5;exitPerimeter=0;fontSize=13;" edge="1" parent="1">
          <mxGeometry relative="1" as="geometry">
            <mxPoint x="438" y="532" as="sourcePoint" />
            <mxPoint x="438" y="560" as="targetPoint" />
            <Array as="points">
              <mxPoint x="520" y="532" />
              <mxPoint x="520" y="560" />
            </Array>
          </mxGeometry>
        </mxCell>
        <mxCell id="ZERluaqNeqFuhQolB-5T-40" value="7:Set()" style="text;html=1;align=center;verticalAlign=middle;resizable=0;points=[];autosize=1;strokeColor=none;fillColor=none;" vertex="1" parent="1">
          <mxGeometry x="450" y="498" width="60" height="30" as="geometry" />
        </mxCell>
        <mxCell id="ZERluaqNeqFuhQolB-5T-44" style="edgeStyle=orthogonalEdgeStyle;rounded=0;orthogonalLoop=1;jettySize=auto;html=1;curved=0;exitX=0;exitY=1;exitDx=0;exitDy=-5;exitPerimeter=0;entryX=1;entryY=0;entryDx=0;entryDy=5;entryPerimeter=0;" edge="1" parent="1" source="ZERluaqNeqFuhQolB-5T-10" target="ZERluaqNeqFuhQolB-5T-41">
          <mxGeometry relative="1" as="geometry" />
        </mxCell>
        <mxCell id="ZERluaqNeqFuhQolB-5T-45" value="8:return()" style="text;html=1;align=center;verticalAlign=middle;resizable=0;points=[];autosize=1;strokeColor=none;fillColor=none;" vertex="1" parent="1">
          <mxGeometry x="265" y="578" width="70" height="30" as="geometry" />
        </mxCell>
        <mxCell id="ZERluaqNeqFuhQolB-5T-47" style="rounded=0;orthogonalLoop=1;jettySize=auto;html=1;exitX=0;exitY=0;exitDx=0;exitDy=5;exitPerimeter=0;" edge="1" parent="1">
          <mxGeometry relative="1" as="geometry">
            <mxPoint x="206" y="632" as="sourcePoint" />
            <mxPoint x="16" y="632" as="targetPoint" />
          </mxGeometry>
        </mxCell>
        <mxCell id="ZERluaqNeqFuhQolB-5T-48" value="9: promotMsg()" style="text;html=1;align=center;verticalAlign=middle;resizable=0;points=[];autosize=1;strokeColor=none;fillColor=none;" vertex="1" parent="1">
          <mxGeometry x="30" y="598" width="100" height="30" as="geometry" />
        </mxCell>
        <mxCell id="ZERluaqNeqFuhQolB-5T-50" style="edgeStyle=orthogonalEdgeStyle;rounded=0;orthogonalLoop=1;jettySize=auto;html=1;curved=0;exitX=1;exitY=0;exitDx=0;exitDy=5;exitPerimeter=0;fontSize=13;" edge="1" parent="1">
          <mxGeometry relative="1" as="geometry">
            <mxPoint x="218" y="650" as="sourcePoint" />
            <mxPoint x="218" y="678" as="targetPoint" />
            <Array as="points">
              <mxPoint x="283" y="650" />
              <mxPoint x="283" y="678" />
            </Array>
          </mxGeometry>
        </mxCell>
        <mxCell id="ZERluaqNeqFuhQolB-5T-51" value="10:&lt;span style=&quot;font-size: 13px;&quot;&gt;showUsersList()&lt;/span&gt;" style="text;html=1;align=center;verticalAlign=middle;resizable=0;points=[];autosize=1;strokeColor=none;fillColor=none;fontSize=13;" vertex="1" parent="1">
          <mxGeometry x="220" y="680" width="130" height="30" as="geometry" />
        </mxCell>
      </root>
    </mxGraphModel>
  </diagram>
  <diagram id="zDcP22nDG28pvykq6ndu" name="第 12 页">
    <mxGraphModel dx="1834" dy="738" grid="1" gridSize="10" guides="1" tooltips="1" connect="1" arrows="1" fold="1" page="0" pageScale="1" pageWidth="827" pageHeight="1169" math="0" shadow="0">
      <root>
        <mxCell id="0" />
        <mxCell id="1" parent="0" />
        <mxCell id="j5lPrz2M0qizQ7v8qotR-1" value=":Manager" style="shape=umlActor;verticalLabelPosition=bottom;verticalAlign=top;html=1;outlineConnect=0;fontSize=13;" vertex="1" parent="1">
          <mxGeometry x="-4" y="195" width="30" height="60" as="geometry" />
        </mxCell>
        <mxCell id="j5lPrz2M0qizQ7v8qotR-2" value="&lt;u style=&quot;font-size: 13px;&quot;&gt;&lt;b style=&quot;font-size: 13px;&quot;&gt;Users Page&lt;/b&gt;&lt;/u&gt;" style="shape=umlLifeline;perimeter=lifelinePerimeter;whiteSpace=wrap;html=1;container=1;dropTarget=0;collapsible=0;recursiveResize=0;outlineConnect=0;portConstraint=eastwest;newEdgeStyle={&quot;edgeStyle&quot;:&quot;elbowEdgeStyle&quot;,&quot;elbow&quot;:&quot;vertical&quot;,&quot;curved&quot;:0,&quot;rounded&quot;:0};fontSize=13;" vertex="1" parent="1">
          <mxGeometry x="161" y="195" width="100" height="555" as="geometry" />
        </mxCell>
        <mxCell id="j5lPrz2M0qizQ7v8qotR-3" value="" style="html=1;points=[[0,0,0,0,5],[0,1,0,0,-5],[1,0,0,0,5],[1,1,0,0,-5]];perimeter=orthogonalPerimeter;outlineConnect=0;targetShapes=umlLifeline;portConstraint=eastwest;newEdgeStyle={&quot;curved&quot;:0,&quot;rounded&quot;:0};fontSize=13;" vertex="1" parent="j5lPrz2M0qizQ7v8qotR-2">
          <mxGeometry x="45" y="90" width="10" height="160" as="geometry" />
        </mxCell>
        <mxCell id="j5lPrz2M0qizQ7v8qotR-4" value="" style="html=1;points=[[0,0,0,0,5],[0,1,0,0,-5],[1,0,0,0,5],[1,1,0,0,-5]];perimeter=orthogonalPerimeter;outlineConnect=0;targetShapes=umlLifeline;portConstraint=eastwest;newEdgeStyle={&quot;curved&quot;:0,&quot;rounded&quot;:0};fontSize=13;" vertex="1" parent="j5lPrz2M0qizQ7v8qotR-2">
          <mxGeometry x="45" y="410" width="10" height="95" as="geometry" />
        </mxCell>
        <mxCell id="j5lPrz2M0qizQ7v8qotR-5" value="" style="rounded=0;orthogonalLoop=1;jettySize=auto;html=1;dashed=1;endArrow=none;endFill=0;fontSize=13;" edge="1" parent="1" target="j5lPrz2M0qizQ7v8qotR-6">
          <mxGeometry relative="1" as="geometry">
            <mxPoint x="11" y="750" as="targetPoint" />
            <mxPoint x="10" y="280" as="sourcePoint" />
          </mxGeometry>
        </mxCell>
        <mxCell id="j5lPrz2M0qizQ7v8qotR-6" value="" style="html=1;points=[[0,0,0,0,5],[0,1,0,0,-5],[1,0,0,0,5],[1,1,0,0,-5]];perimeter=orthogonalPerimeter;outlineConnect=0;targetShapes=umlLifeline;portConstraint=eastwest;newEdgeStyle={&quot;curved&quot;:0,&quot;rounded&quot;:0};fontSize=13;" vertex="1" parent="1">
          <mxGeometry x="6" y="285" width="10" height="30" as="geometry" />
        </mxCell>
        <mxCell id="j5lPrz2M0qizQ7v8qotR-7" style="edgeStyle=orthogonalEdgeStyle;rounded=0;orthogonalLoop=1;jettySize=auto;html=1;curved=0;exitX=1;exitY=0;exitDx=0;exitDy=5;exitPerimeter=0;entryX=0;entryY=0;entryDx=0;entryDy=5;entryPerimeter=0;endArrow=classic;endFill=1;fontSize=13;" edge="1" parent="1" source="j5lPrz2M0qizQ7v8qotR-6" target="j5lPrz2M0qizQ7v8qotR-3">
          <mxGeometry relative="1" as="geometry" />
        </mxCell>
        <mxCell id="j5lPrz2M0qizQ7v8qotR-8" value="1:Into" style="text;html=1;align=center;verticalAlign=middle;resizable=0;points=[];autosize=1;strokeColor=none;fillColor=none;fontSize=13;" vertex="1" parent="1">
          <mxGeometry x="65" y="260" width="60" height="30" as="geometry" />
        </mxCell>
        <mxCell id="j5lPrz2M0qizQ7v8qotR-9" value="&lt;b style=&quot;font-size: 13px;&quot;&gt;&lt;u style=&quot;font-size: 13px;&quot;&gt;DBServer&lt;/u&gt;&lt;/b&gt;" style="shape=umlLifeline;perimeter=lifelinePerimeter;whiteSpace=wrap;html=1;container=1;dropTarget=0;collapsible=0;recursiveResize=0;outlineConnect=0;portConstraint=eastwest;newEdgeStyle={&quot;edgeStyle&quot;:&quot;elbowEdgeStyle&quot;,&quot;elbow&quot;:&quot;vertical&quot;,&quot;curved&quot;:0,&quot;rounded&quot;:0};fontSize=13;" vertex="1" parent="1">
          <mxGeometry x="348" y="195" width="169" height="555" as="geometry" />
        </mxCell>
        <mxCell id="j5lPrz2M0qizQ7v8qotR-10" value="" style="html=1;points=[[0,0,0,0,5],[0,1,0,0,-5],[1,0,0,0,5],[1,1,0,0,-5]];perimeter=orthogonalPerimeter;outlineConnect=0;targetShapes=umlLifeline;portConstraint=eastwest;newEdgeStyle={&quot;curved&quot;:0,&quot;rounded&quot;:0};fontSize=13;" vertex="1" parent="j5lPrz2M0qizQ7v8qotR-9">
          <mxGeometry x="79.5" y="115" width="10" height="105" as="geometry" />
        </mxCell>
        <mxCell id="j5lPrz2M0qizQ7v8qotR-11" value="" style="html=1;points=[[0,0,0,0,5],[0,1,0,0,-5],[1,0,0,0,5],[1,1,0,0,-5]];perimeter=orthogonalPerimeter;outlineConnect=0;targetShapes=umlLifeline;portConstraint=eastwest;newEdgeStyle={&quot;curved&quot;:0,&quot;rounded&quot;:0};fontSize=13;" vertex="1" parent="j5lPrz2M0qizQ7v8qotR-9">
          <mxGeometry x="79.5" y="297" width="10" height="123" as="geometry" />
        </mxCell>
        <mxCell id="j5lPrz2M0qizQ7v8qotR-12" value="" style="rounded=0;orthogonalLoop=1;jettySize=auto;html=1;dashed=1;endArrow=none;endFill=0;fontSize=13;" edge="1" parent="1" source="j5lPrz2M0qizQ7v8qotR-6">
          <mxGeometry relative="1" as="geometry">
            <mxPoint x="11" y="365" as="targetPoint" />
            <mxPoint x="10" y="315" as="sourcePoint" />
          </mxGeometry>
        </mxCell>
        <mxCell id="j5lPrz2M0qizQ7v8qotR-13" value="2:getUsersService(userID)" style="text;html=1;align=center;verticalAlign=middle;resizable=0;points=[];autosize=1;strokeColor=none;fillColor=none;fontSize=13;" vertex="1" parent="1">
          <mxGeometry x="225" y="285" width="180" height="30" as="geometry" />
        </mxCell>
        <mxCell id="j5lPrz2M0qizQ7v8qotR-14" value="5:&lt;span style=&quot;font-size: 13px;&quot;&gt;showUsersList()&lt;/span&gt;" style="text;html=1;align=center;verticalAlign=middle;resizable=0;points=[];autosize=1;strokeColor=none;fillColor=none;fontSize=13;" vertex="1" parent="1">
          <mxGeometry x="213" y="378" width="130" height="30" as="geometry" />
        </mxCell>
        <mxCell id="j5lPrz2M0qizQ7v8qotR-15" value="" style="rounded=0;orthogonalLoop=1;jettySize=auto;html=1;dashed=1;endArrow=none;endFill=0;fontSize=13;" edge="1" parent="1" source="j5lPrz2M0qizQ7v8qotR-20">
          <mxGeometry relative="1" as="geometry">
            <mxPoint x="10" y="738" as="targetPoint" />
            <mxPoint x="11" y="411" as="sourcePoint" />
          </mxGeometry>
        </mxCell>
        <mxCell id="j5lPrz2M0qizQ7v8qotR-16" style="rounded=0;orthogonalLoop=1;jettySize=auto;html=1;entryX=0;entryY=0;entryDx=0;entryDy=5;entryPerimeter=0;fontSize=13;" edge="1" parent="1" source="j5lPrz2M0qizQ7v8qotR-3" target="j5lPrz2M0qizQ7v8qotR-10">
          <mxGeometry relative="1" as="geometry">
            <mxPoint x="220" y="310" as="sourcePoint" />
          </mxGeometry>
        </mxCell>
        <mxCell id="j5lPrz2M0qizQ7v8qotR-17" style="rounded=0;orthogonalLoop=1;jettySize=auto;html=1;exitX=0;exitY=0;exitDx=0;exitDy=5;exitPerimeter=0;fontSize=13;" edge="1" parent="1">
          <mxGeometry relative="1" as="geometry">
            <mxPoint x="427.5" y="377" as="sourcePoint" />
            <mxPoint x="216" y="377" as="targetPoint" />
          </mxGeometry>
        </mxCell>
        <mxCell id="j5lPrz2M0qizQ7v8qotR-18" value="4:return()" style="text;html=1;align=center;verticalAlign=middle;resizable=0;points=[];autosize=1;strokeColor=none;fillColor=none;fontSize=13;" vertex="1" parent="1">
          <mxGeometry x="270" y="345" width="80" height="30" as="geometry" />
        </mxCell>
        <mxCell id="j5lPrz2M0qizQ7v8qotR-19" value="" style="rounded=0;orthogonalLoop=1;jettySize=auto;html=1;dashed=1;endArrow=none;endFill=0;fontSize=13;" edge="1" parent="1" target="j5lPrz2M0qizQ7v8qotR-20">
          <mxGeometry relative="1" as="geometry">
            <mxPoint x="10" y="650" as="targetPoint" />
            <mxPoint x="11" y="363" as="sourcePoint" />
          </mxGeometry>
        </mxCell>
        <mxCell id="j5lPrz2M0qizQ7v8qotR-20" value="" style="html=1;points=[[0,0,0,0,5],[0,1,0,0,-5],[1,0,0,0,5],[1,1,0,0,-5]];perimeter=orthogonalPerimeter;outlineConnect=0;targetShapes=umlLifeline;portConstraint=eastwest;newEdgeStyle={&quot;curved&quot;:0,&quot;rounded&quot;:0};fontSize=13;" vertex="1" parent="1">
          <mxGeometry x="6" y="493" width="10" height="177" as="geometry" />
        </mxCell>
        <mxCell id="j5lPrz2M0qizQ7v8qotR-21" style="edgeStyle=orthogonalEdgeStyle;rounded=0;orthogonalLoop=1;jettySize=auto;html=1;curved=0;exitX=1;exitY=0;exitDx=0;exitDy=5;exitPerimeter=0;fontSize=13;" edge="1" parent="1">
          <mxGeometry relative="1" as="geometry">
            <mxPoint x="217" y="404" as="sourcePoint" />
            <mxPoint x="217" y="432" as="targetPoint" />
            <Array as="points">
              <mxPoint x="282" y="404" />
              <mxPoint x="282" y="432" />
            </Array>
          </mxGeometry>
        </mxCell>
        <mxCell id="j5lPrz2M0qizQ7v8qotR-22" style="edgeStyle=orthogonalEdgeStyle;rounded=0;orthogonalLoop=1;jettySize=auto;html=1;curved=0;exitX=1;exitY=0;exitDx=0;exitDy=5;exitPerimeter=0;fontSize=13;" edge="1" parent="1">
          <mxGeometry relative="1" as="geometry">
            <mxPoint x="440" y="330" as="sourcePoint" />
            <mxPoint x="440" y="358" as="targetPoint" />
            <Array as="points">
              <mxPoint x="570" y="330" />
              <mxPoint x="570" y="358" />
            </Array>
          </mxGeometry>
        </mxCell>
        <mxCell id="j5lPrz2M0qizQ7v8qotR-23" value="3:QueryUsers()" style="text;html=1;align=center;verticalAlign=middle;resizable=0;points=[];autosize=1;strokeColor=none;fillColor=none;fontSize=13;" vertex="1" parent="1">
          <mxGeometry x="445" y="298" width="110" height="30" as="geometry" />
        </mxCell>
        <mxCell id="j5lPrz2M0qizQ7v8qotR-24" style="rounded=0;orthogonalLoop=1;jettySize=auto;html=1;exitX=1;exitY=0;exitDx=0;exitDy=5;exitPerimeter=0;entryX=0;entryY=0;entryDx=0;entryDy=5;entryPerimeter=0;" edge="1" parent="1" source="j5lPrz2M0qizQ7v8qotR-20" target="j5lPrz2M0qizQ7v8qotR-11">
          <mxGeometry relative="1" as="geometry" />
        </mxCell>
        <mxCell id="j5lPrz2M0qizQ7v8qotR-25" value="6: liftUserService(UserID)" style="text;html=1;align=center;verticalAlign=middle;resizable=0;points=[];autosize=1;strokeColor=none;fillColor=none;" vertex="1" parent="1">
          <mxGeometry x="48" y="470" width="160" height="30" as="geometry" />
        </mxCell>
        <mxCell id="j5lPrz2M0qizQ7v8qotR-26" style="edgeStyle=orthogonalEdgeStyle;rounded=0;orthogonalLoop=1;jettySize=auto;html=1;curved=0;exitX=1;exitY=0;exitDx=0;exitDy=5;exitPerimeter=0;fontSize=13;" edge="1" parent="1">
          <mxGeometry relative="1" as="geometry">
            <mxPoint x="438" y="532" as="sourcePoint" />
            <mxPoint x="438" y="560" as="targetPoint" />
            <Array as="points">
              <mxPoint x="520" y="532" />
              <mxPoint x="520" y="560" />
            </Array>
          </mxGeometry>
        </mxCell>
        <mxCell id="j5lPrz2M0qizQ7v8qotR-27" value="7:Set()" style="text;html=1;align=center;verticalAlign=middle;resizable=0;points=[];autosize=1;strokeColor=none;fillColor=none;" vertex="1" parent="1">
          <mxGeometry x="445" y="500" width="60" height="30" as="geometry" />
        </mxCell>
        <mxCell id="j5lPrz2M0qizQ7v8qotR-28" style="edgeStyle=orthogonalEdgeStyle;rounded=0;orthogonalLoop=1;jettySize=auto;html=1;curved=0;exitX=0;exitY=1;exitDx=0;exitDy=-5;exitPerimeter=0;entryX=1;entryY=0;entryDx=0;entryDy=5;entryPerimeter=0;" edge="1" parent="1" source="j5lPrz2M0qizQ7v8qotR-11" target="j5lPrz2M0qizQ7v8qotR-4">
          <mxGeometry relative="1" as="geometry" />
        </mxCell>
        <mxCell id="j5lPrz2M0qizQ7v8qotR-29" value="8:return()" style="text;html=1;align=center;verticalAlign=middle;resizable=0;points=[];autosize=1;strokeColor=none;fillColor=none;" vertex="1" parent="1">
          <mxGeometry x="265" y="578" width="70" height="30" as="geometry" />
        </mxCell>
        <mxCell id="j5lPrz2M0qizQ7v8qotR-30" style="rounded=0;orthogonalLoop=1;jettySize=auto;html=1;exitX=0;exitY=0;exitDx=0;exitDy=5;exitPerimeter=0;" edge="1" parent="1">
          <mxGeometry relative="1" as="geometry">
            <mxPoint x="206" y="632" as="sourcePoint" />
            <mxPoint x="16" y="632" as="targetPoint" />
          </mxGeometry>
        </mxCell>
        <mxCell id="j5lPrz2M0qizQ7v8qotR-31" value="9: promotMsg()" style="text;html=1;align=center;verticalAlign=middle;resizable=0;points=[];autosize=1;strokeColor=none;fillColor=none;" vertex="1" parent="1">
          <mxGeometry x="30" y="598" width="100" height="30" as="geometry" />
        </mxCell>
        <mxCell id="j5lPrz2M0qizQ7v8qotR-32" style="edgeStyle=orthogonalEdgeStyle;rounded=0;orthogonalLoop=1;jettySize=auto;html=1;curved=0;exitX=1;exitY=0;exitDx=0;exitDy=5;exitPerimeter=0;fontSize=13;" edge="1" parent="1">
          <mxGeometry relative="1" as="geometry">
            <mxPoint x="218" y="650" as="sourcePoint" />
            <mxPoint x="218" y="678" as="targetPoint" />
            <Array as="points">
              <mxPoint x="283" y="650" />
              <mxPoint x="283" y="678" />
            </Array>
          </mxGeometry>
        </mxCell>
        <mxCell id="j5lPrz2M0qizQ7v8qotR-33" value="10:&lt;span style=&quot;font-size: 13px;&quot;&gt;showUsersList()&lt;/span&gt;" style="text;html=1;align=center;verticalAlign=middle;resizable=0;points=[];autosize=1;strokeColor=none;fillColor=none;fontSize=13;" vertex="1" parent="1">
          <mxGeometry x="220" y="680" width="130" height="30" as="geometry" />
        </mxCell>
      </root>
    </mxGraphModel>
  </diagram>
</mxfile>
